<svg width="24" height="24" viewBox="0 0 24 24" fill="none" xmlns="http://www.w3.org/2000/svg">
<path d="M19.95 9.83105L19.5117 11.5843L22.1415 11.146L19.95 9.83105Z" fill="#FFC269"/>
<path d="M19.1407 5.5043C18.3841 5.38561 17.6679 5.5936 17.191 6.00717C17.1169 6.07139 17.0992 6.18455 17.15 6.26841C17.4774 6.80817 18.0954 7.22541 18.8521 7.34409C19.6759 7.47333 20.4516 7.21533 20.9229 6.72638C20.6239 6.11658 19.9645 5.63349 19.1407 5.5043Z" fill="#95D6A4"/>
<path d="M21.6517 2.92194C22.2128 2.46669 22.8949 2.2956 23.4809 2.40411C23.5778 2.42206 23.6506 2.51183 23.6481 2.61031C23.6335 3.20614 23.3256 3.83825 22.7646 4.2935C22.1504 4.79183 21.3914 4.94961 20.7719 4.77308C20.7267 4.13052 21.0375 3.42027 21.6517 2.92194Z" fill="#CCF49F"/>
<path d="M16.381 10.0502L5.99009 5.01849C5.75702 4.90562 5.49199 5.10169 5.5361 5.35688C5.65891 6.06741 5.95188 7.28447 6.6131 8.29693L15.3165 11.8659L16.381 10.0502Z" fill="#DBEAFF"/>
<path d="M18.8237 8.82917H18.8228C17.8205 8.82919 16.8592 9.22737 16.1504 9.93613L15.5085 10.5781C15.3574 10.7292 15.1665 10.8342 14.958 10.8809C14.7494 10.9277 14.5319 10.9141 14.3308 10.8419L1.04783 6.07367C0.765691 5.97238 0.501457 6.25705 0.621504 6.53174C0.960316 7.30691 1.64319 8.57563 2.80921 9.59745C4.81279 12.9774 7.97089 12.7974 7.97089 12.7974L10.5098 14.7842L4.175 17.6446C3.88752 17.7753 3.71403 18.0704 3.7363 18.3854C3.81088 19.4408 4.33063 21.6718 7.39705 21.626C7.67835 21.6218 7.93635 21.4604 8.06221 21.2088L9.44202 18.4273C11.8419 19.2591 16.1924 19.6837 18.1599 13.0317C18.3119 12.5178 18.683 12.0959 19.179 11.893L19.1915 11.8879C19.5083 11.7583 19.7794 11.5373 19.9702 11.2531C20.161 10.9689 20.2629 10.6343 20.2629 10.292V10.2685C20.2629 9.47356 19.6185 8.82917 18.8237 8.82917Z" fill="#EDF4FF"/>
<path d="M7.39644 21.6259C7.67773 21.6217 7.93573 21.4603 8.06159 21.2087L9.44141 18.4272L8.13767 17.8267C8.02488 17.7748 7.90097 17.7516 7.77702 17.7592C7.65308 17.7669 7.53296 17.8052 7.42742 17.8706L4.13281 19.9133C4.57789 20.8106 5.49894 21.6543 7.39644 21.6259Z" fill="#DBEAFF"/>
<path d="M5.72266 21.3605C6.17298 21.5342 6.72236 21.636 7.39727 21.6259C7.67856 21.6217 7.93656 21.4603 8.06242 21.2086L9.44223 18.4272L8.55536 18.0187L5.72266 21.3605ZM7.09323 13.3433L10.4953 12.5859L12.3737 13.713C8.99256 16.7185 7.09323 13.3433 7.09323 13.3433Z" fill="#C3DDFF"/>
<path d="M7.32547 11.2143C5.34373 11.2595 3.87458 10.5313 2.80859 9.59717C3.34072 11.3648 5.27075 14.9074 10.4944 12.5858L9.91114 12.1192C9.17741 11.5322 8.26484 11.1929 7.32547 11.2143Z" fill="#DBEAFF"/>
<path d="M18.7363 10.7072V10.3315C18.7363 10.2383 18.6993 10.1489 18.6334 10.083C18.5674 10.017 18.478 9.97998 18.3848 9.97998C18.2915 9.97998 18.2021 10.017 18.1362 10.083C18.0702 10.1489 18.0332 10.2383 18.0332 10.3315V10.7072C18.0332 10.9014 18.1906 11.0588 18.3848 11.0588C18.5789 11.0588 18.7363 10.9014 18.7363 10.7072Z" fill="black"/>
<path d="M21.0554 5.18132C21.1296 5.18896 21.2042 5.19298 21.2788 5.19336C21.8685 5.19336 22.4844 4.97333 22.9858 4.56646C23.6628 4.01722 24.0494 3.19386 23.9948 2.41766C23.9898 2.34561 23.9626 2.27686 23.9171 2.22077C23.8716 2.16468 23.81 2.12396 23.7405 2.10416C22.9921 1.89093 22.1068 2.09961 21.4299 2.64885C21.1416 2.88285 20.9064 3.16686 20.7351 3.47554C20.6755 3.09908 20.6259 2.73275 20.5891 2.38213C20.5845 2.33602 20.5709 2.29127 20.5489 2.25045C20.527 2.20963 20.4972 2.17355 20.4613 2.14428C20.4254 2.11501 20.3841 2.09313 20.3396 2.07989C20.2952 2.06666 20.2487 2.06233 20.2026 2.06716C20.1565 2.072 20.1118 2.08589 20.0711 2.10804C20.0304 2.1302 19.9945 2.16018 19.9655 2.19627C19.9364 2.23235 19.9147 2.27382 19.9018 2.3183C19.8888 2.36278 19.8847 2.40939 19.8898 2.45544C19.9939 3.44811 20.1924 4.54883 20.4362 5.6549C20.0796 5.40425 19.6528 5.22885 19.1949 5.15704C18.2929 5.01557 17.3816 5.2919 16.8165 5.87807C16.7664 5.93007 16.7335 5.99625 16.7223 6.0676C16.7111 6.13896 16.7222 6.21203 16.754 6.27688C17.1125 7.00799 17.8955 7.55 18.7974 7.69152C18.9536 7.71599 19.11 7.72799 19.265 7.72799C19.8356 7.72799 20.3845 7.56496 20.8204 7.26819C21.1088 8.40275 21.4203 9.48814 21.6993 10.4078L20.5221 9.70157C20.2844 8.99108 19.613 8.47743 18.823 8.47743C17.8043 8.47743 16.8425 8.84436 16.0867 9.51454L5.60783 4.44261C5.55401 4.41656 5.49443 4.40467 5.43473 4.40807C5.37503 4.41146 5.31718 4.43002 5.26666 4.46201C5.21613 4.49399 5.1746 4.53833 5.14598 4.59083C5.11737 4.64334 5.10262 4.70227 5.10313 4.76207C5.10369 4.82657 5.12277 6.09393 5.68555 7.36471L0.47038 5.49261C0.409289 5.47068 0.343317 5.46608 0.279774 5.47933C0.216231 5.49259 0.157598 5.52318 0.110372 5.56771C0.0631462 5.61224 0.0291712 5.66898 0.0122117 5.73164C-0.00474784 5.79429 -0.00402966 5.86042 0.0142866 5.92269C0.0343491 5.9909 0.520584 7.61033 1.82399 9.10686C2.03531 9.34976 2.26136 9.57942 2.50086 9.79457C2.83527 10.7813 3.65961 12.5491 5.41311 13.32C5.87399 13.5227 6.36866 13.6454 6.89516 13.6891C7.12518 14.0413 7.89566 15.0674 9.18477 15.2839C9.3448 15.3107 9.50601 15.3241 9.66862 15.3241C10.6124 15.3241 11.5987 14.8721 12.6071 13.9757C12.642 13.9451 12.6705 13.908 12.691 13.8663C12.7115 13.8247 12.7235 13.7794 12.7264 13.7331C12.7293 13.6868 12.723 13.6404 12.7079 13.5966C12.6927 13.5527 12.6691 13.5123 12.6383 13.4776C12.6074 13.443 12.5701 13.4147 12.5283 13.3946C12.4865 13.3744 12.4412 13.3627 12.3949 13.3602C12.3485 13.3576 12.3022 13.3642 12.2584 13.3797C12.2147 13.3951 12.1744 13.4191 12.14 13.4502C11.1271 14.3505 10.174 14.7345 9.30702 14.5914C8.61247 14.4767 8.09591 14.0387 7.78335 13.6895C8.6609 13.6225 9.61429 13.3621 10.6379 12.9071C10.7223 12.8687 10.7881 12.7986 10.821 12.7119C10.8539 12.6252 10.8512 12.5291 10.8135 12.4444C10.7759 12.3597 10.7063 12.2932 10.62 12.2596C10.5336 12.2259 10.4374 12.2277 10.3524 12.2646C8.50682 13.0849 6.94026 13.2234 5.69619 12.6764C4.68482 12.2317 4.02876 11.3888 3.61658 10.6176C4.85521 11.3544 6.51594 11.8109 8.67782 11.4294C8.72328 11.4214 8.76673 11.4045 8.80566 11.3797C8.8446 11.3548 8.87827 11.3226 8.90474 11.2848C8.93122 11.247 8.94999 11.2043 8.95998 11.1592C8.96997 11.1142 8.97098 11.0675 8.96296 11.0221C8.94671 10.9303 8.89469 10.8487 8.81832 10.7952C8.74195 10.7418 8.64748 10.7208 8.55566 10.7369C6.04555 11.18 3.96435 10.4822 2.37004 8.6631C1.66283 7.85619 1.20955 6.99374 0.954037 6.41333L14.2121 11.1726C14.7481 11.365 15.3546 11.2292 15.7572 10.8265L16.3991 10.1846C17.0466 9.53718 17.9074 9.1806 18.8238 9.1806C19.4235 9.1806 19.9115 9.66852 19.9115 10.2683V10.2918C19.9115 10.8562 19.5729 11.3564 19.0484 11.5664C18.4554 11.8039 18.0102 12.2966 17.8269 12.9181C17.0209 15.6519 15.733 17.4096 13.999 18.1425C13.2358 18.4651 11.1522 19.0532 8.29635 17.5506C7.95641 17.3717 7.54007 17.3874 7.20965 17.5913L4.28755 19.3955C4.18504 19.0983 4.11496 18.7556 4.08707 18.3605C4.07502 18.1899 4.16666 18.0344 4.32055 17.9645L8.01083 16.2871C8.09572 16.2485 8.1618 16.1778 8.19454 16.0905C8.22728 16.0032 8.224 15.9065 8.18542 15.8216C8.14684 15.7367 8.07611 15.6706 7.98881 15.6379C7.9015 15.6051 7.80477 15.6084 7.71988 15.647L4.0296 17.3244C3.61199 17.5142 3.35319 17.9505 3.38568 18.41C3.42833 19.0139 3.59826 19.8896 4.1654 20.6319C4.84808 21.5255 5.90352 21.9781 7.30358 21.9781C7.3363 21.9781 7.36926 21.9778 7.4023 21.9773C7.8178 21.9711 8.19116 21.7368 8.37665 21.3658L9.62952 18.8601C10.3169 19.0736 11.1255 19.2389 11.9826 19.2389C12.7256 19.2388 13.5051 19.1147 14.2727 18.7903C16.2101 17.9714 17.6328 16.0627 18.5013 13.117C18.6232 12.7033 18.9179 12.3761 19.3102 12.219C19.5526 12.1223 19.7747 11.981 19.9649 11.8023L22.0257 11.4589C22.3213 12.3887 22.5336 12.9995 22.5609 13.0776C22.585 13.1464 22.6299 13.2061 22.6893 13.2483C22.7488 13.2905 22.8199 13.3132 22.8928 13.3132C22.949 13.3132 23.0043 13.2998 23.0542 13.274C23.1041 13.2483 23.1471 13.2109 23.1796 13.1651C23.212 13.1193 23.2331 13.0664 23.241 13.0108C23.2488 12.9552 23.2432 12.8986 23.2247 12.8456C23.2073 12.7958 21.8409 8.86499 21.0554 5.18132ZM21.8729 3.1949C22.2951 2.85238 22.8163 2.68565 23.2877 2.73154C23.2356 3.20216 22.965 3.67794 22.5428 4.0205C22.1206 4.36302 21.5996 4.52985 21.1281 4.48386C21.1802 4.01324 21.4508 3.53741 21.8729 3.1949ZM18.9063 6.99693C18.3279 6.90618 17.8192 6.60646 17.521 6.19293C17.9315 5.89058 18.5076 5.76102 19.0859 5.85177C19.6644 5.94252 20.173 6.24219 20.4712 6.65572C20.0608 6.95802 19.4848 7.08763 18.9063 6.99693ZM14.4496 10.5108L6.67283 7.71913C6.14451 6.90491 5.93736 5.94613 5.85711 5.3444L15.5523 10.037L15.26 10.3292C15.0488 10.5405 14.7308 10.6117 14.4496 10.5108ZM4.59576 20.0316L7.57902 18.1896C7.69874 18.1157 7.84808 18.1093 7.96888 18.1728L7.97249 18.1747L5.61908 20.9248C5.2319 20.7361 4.87119 20.4522 4.59576 20.0316ZM7.74772 21.0514C7.68112 21.1845 7.54143 21.2721 7.39176 21.2743C7.08074 21.279 6.71113 21.2566 6.33346 21.1715L8.62935 18.4885C8.73899 18.536 8.84948 18.5816 8.96076 18.6252L7.74772 21.0514ZM20.4906 11.0019C20.5414 10.8609 20.5769 10.7147 20.5963 10.5661L21.1417 10.8933L20.4906 11.0019Z" fill="black"/>
</svg>
