<svg width="20" height="20" viewBox="0 0 20 20" fill="none" xmlns="http://www.w3.org/2000/svg">
<g clip-path="url(#clip0_5294_4966)">
<path d="M1.84704 16.6011C1.82469 16.5886 1.8056 16.5693 1.78455 16.5549L0.0777374 19.4991C0.0497966 19.5503 0.0351563 19.6078 0.0351562 19.6661C0.0351563 19.7245 0.0497966 19.7819 0.0777374 19.8332C0.107148 19.8842 0.149538 19.9266 0.200604 19.9559C0.251669 19.9853 0.309591 20.0006 0.368486 20.0003H3.35575C3.41253 20.0004 3.46841 19.9861 3.5181 19.9586C3.5678 19.9311 3.60967 19.8915 3.63977 19.8433L4.64221 18.2268L1.84704 16.6011ZM3.26244 10.1097L2.27303 11.8338C2.18231 11.9935 2.23761 12.1965 2.39671 12.2883C2.94137 12.6057 2.93464 14.0292 2.0492 15.5629C2.01102 15.6294 1.99715 15.707 2.00995 15.7826C2.02275 15.8582 2.06143 15.927 2.11937 15.9772C2.13482 15.9934 2.15295 16.007 2.17283 16.0173L2.69414 16.3214L4.41821 17.3239L4.99628 17.658L5.04653 17.688C5.09827 17.7182 5.157 17.7343 5.2169 17.7348C5.24509 17.7348 5.27299 17.7314 5.30044 17.7247C5.34309 17.7134 5.38307 17.6936 5.41804 17.6667C5.45301 17.6397 5.48229 17.6061 5.50418 17.5678C6.08893 16.552 6.90768 15.7768 7.58933 15.5963C7.67936 15.5646 7.77482 15.5513 7.8701 15.557C7.96537 15.5627 8.05853 15.5875 8.1441 15.6298C8.22068 15.6747 8.31179 15.6879 8.39797 15.6665C8.44064 15.6551 8.48062 15.6354 8.5156 15.6084C8.55059 15.5814 8.57987 15.5478 8.60175 15.5094L9.59325 13.7825L3.26244 10.1097ZM13.574 1.0375L12.3609 0.332498C11.2265 -0.326187 9.77469 0.0224941 9.063 1.12446L3.62578 9.54861L9.89686 13.1865L14.4827 4.12167C15.0433 3.01515 14.6451 1.66336 13.574 1.0375ZM10.4997 1.68441L6.06187 8.75159C6.01436 8.82571 5.93951 8.87808 5.85359 8.8973C5.76768 8.91652 5.67765 8.90103 5.60309 8.85422C5.52852 8.80741 5.47543 8.73307 5.45536 8.64735C5.43528 8.56163 5.44984 8.47145 5.49587 8.3964L9.93341 1.32921C9.98184 1.25713 10.0564 1.20674 10.1414 1.18872C10.2263 1.17069 10.3149 1.18645 10.3885 1.23264C10.462 1.27881 10.5147 1.35179 10.5353 1.43612C10.556 1.52045 10.543 1.6095 10.4991 1.68441H10.4997Z" fill="white"/>
</g>
<defs>
<clipPath id="clip0_5294_4966">
<rect width="20" height="20" fill="white"/>
</clipPath>
</defs>
</svg>
