<svg width="24" height="24" viewBox="0 0 24 24" fill="none" xmlns="http://www.w3.org/2000/svg">
<path d="M4.04995 9.83105L4.48828 11.5843L1.85845 11.146L4.04995 9.83105Z" fill="#FFC269"/>
<path d="M4.85929 5.5043C5.61594 5.38561 6.33205 5.5936 6.80901 6.00717C6.88307 6.07139 6.90083 6.18455 6.84998 6.26841C6.52255 6.80817 5.90455 7.22541 5.1479 7.34409C4.32412 7.47333 3.54843 7.21533 3.07705 6.72638C3.37607 6.11658 4.03551 5.63349 4.85929 5.5043Z" fill="#95D6A4"/>
<path d="M2.34832 2.92194C1.78722 2.46669 1.10515 2.2956 0.519068 2.40411C0.422177 2.42206 0.349426 2.51183 0.351864 2.61031C0.366489 3.20614 0.674364 3.83825 1.23541 4.2935C1.84957 4.79183 2.60861 4.94961 3.22811 4.77308C3.27326 4.13052 2.96247 3.42027 2.34832 2.92194Z" fill="#CCF49F"/>
<path d="M7.61904 10.0502L18.0099 5.01849C18.243 4.90562 18.508 5.10169 18.4639 5.35688C18.3411 6.06741 18.0481 7.28447 17.3869 8.29693L8.68348 11.8659L7.61904 10.0502Z" fill="#DBEAFF"/>
<path d="M5.17632 8.82917H5.17722C6.17954 8.82919 7.14081 9.22737 7.84956 9.93613L8.49146 10.5781C8.64257 10.7292 8.83352 10.8342 9.04204 10.8809C9.25056 10.9277 9.46807 10.9141 9.6692 10.8419L22.9522 6.07367C23.2343 5.97238 23.4985 6.25705 23.3785 6.53174C23.0397 7.30691 22.3568 8.57563 21.1908 9.59745C19.1872 12.9774 16.0291 12.7974 16.0291 12.7974L13.4902 14.7842L19.825 17.6446C20.1125 17.7753 20.286 18.0704 20.2637 18.3854C20.1891 19.4408 19.6694 21.6718 16.6029 21.626C16.3217 21.6218 16.0637 21.4604 15.9378 21.2088L14.558 18.4273C12.1581 19.2591 7.80756 19.6837 5.84007 13.0317C5.68806 12.5178 5.31704 12.0959 4.82101 11.893L4.80849 11.8879C4.49167 11.7583 4.22059 11.5373 4.02978 11.2531C3.83898 10.9689 3.73708 10.6343 3.73707 10.292V10.2685C3.73707 9.47356 4.38147 8.82917 5.17632 8.82917Z" fill="#EDF4FF"/>
<path d="M16.6036 21.6259C16.3223 21.6217 16.0643 21.4603 15.9384 21.2087L14.5586 18.4272L15.8623 17.8267C15.9751 17.7748 16.099 17.7516 16.223 17.7592C16.3469 17.7669 16.467 17.8052 16.5726 17.8706L19.8672 19.9133C19.4221 20.8106 18.5011 21.6543 16.6036 21.6259Z" fill="#DBEAFF"/>
<path d="M18.2773 21.3605C17.827 21.5342 17.2776 21.636 16.6027 21.6259C16.3214 21.6217 16.0634 21.4603 15.9376 21.2086L14.5578 18.4272L15.4446 18.0187L18.2773 21.3605ZM16.9068 13.3433L13.5047 12.5859L11.6263 13.713C15.0074 16.7185 16.9068 13.3433 16.9068 13.3433Z" fill="#C3DDFF"/>
<path d="M16.6745 11.2143C18.6563 11.2595 20.1254 10.5313 21.1914 9.59717C20.6593 11.3648 18.7293 14.9074 13.5056 12.5858L14.0889 12.1192C14.8226 11.5322 15.7352 11.1929 16.6745 11.2143Z" fill="#DBEAFF"/>
<path d="M5.26367 10.7072V10.3315C5.26367 10.2383 5.30071 10.1489 5.36664 10.083C5.43257 10.017 5.52199 9.97998 5.61523 9.97998C5.70847 9.97998 5.7979 10.017 5.86383 10.083C5.92976 10.1489 5.9668 10.2383 5.9668 10.3315V10.7072C5.9668 10.9014 5.80939 11.0588 5.61523 11.0588C5.42108 11.0588 5.26367 10.9014 5.26367 10.7072Z" fill="black"/>
<path d="M2.9446 5.18132C2.87039 5.18896 2.79585 5.19298 2.72124 5.19336C2.13146 5.19336 1.51557 4.97333 1.01415 4.56646C0.337229 4.01722 -0.0493965 3.19386 0.0051651 2.41766C0.0102272 2.34561 0.0373554 2.27686 0.0828629 2.22077C0.12837 2.16468 0.190048 2.12396 0.25951 2.10416C1.00787 1.89093 1.8932 2.09961 2.57007 2.64885C2.85845 2.88285 3.09357 3.16686 3.2649 3.47554C3.32448 3.09908 3.37412 2.73275 3.41092 2.38213C3.41549 2.33602 3.42913 2.29127 3.45105 2.25045C3.47298 2.20963 3.50276 2.17355 3.53868 2.14428C3.57459 2.11501 3.61595 2.09313 3.66035 2.07989C3.70476 2.06666 3.75134 2.06233 3.79742 2.06716C3.8435 2.072 3.88818 2.08589 3.92887 2.10804C3.96957 2.1302 4.00548 2.16018 4.03455 2.19627C4.06361 2.23235 4.08526 2.27382 4.09824 2.3183C4.11123 2.36278 4.11529 2.40939 4.1102 2.45544C4.00609 3.44811 3.80757 4.54883 3.56382 5.6549C3.9204 5.40425 4.34724 5.22885 4.80512 5.15704C5.70713 5.01557 6.61843 5.2919 7.18351 5.87807C7.23364 5.93007 7.26653 5.99625 7.27772 6.0676C7.28891 6.13896 7.27785 6.21203 7.24604 6.27688C6.88754 7.00799 6.10454 7.55 5.20262 7.69152C5.04638 7.71599 4.88996 7.72799 4.73499 7.72799C4.16438 7.72799 3.61553 7.56496 3.17963 7.26819C2.89117 8.40275 2.57968 9.48814 2.30073 10.4078L3.4779 9.70157C3.7156 8.99108 4.38699 8.47743 5.17702 8.47743C6.19567 8.47743 7.15754 8.84436 7.91326 9.51454L18.3922 4.44261C18.446 4.41656 18.5056 4.40467 18.5653 4.40807C18.625 4.41146 18.6828 4.43002 18.7333 4.46201C18.7839 4.49399 18.8254 4.53833 18.854 4.59083C18.8826 4.64334 18.8974 4.70227 18.8969 4.76207C18.8963 4.82657 18.8772 6.09393 18.3144 7.36471L23.5296 5.49261C23.5907 5.47068 23.6567 5.46608 23.7202 5.47933C23.7838 5.49259 23.8424 5.52318 23.8896 5.56771C23.9369 5.61224 23.9708 5.66898 23.9878 5.73164C24.0047 5.79429 24.004 5.86042 23.9857 5.92269C23.9657 5.9909 23.4794 7.61033 22.176 9.10686C21.9647 9.34976 21.7386 9.57942 21.4991 9.79457C21.1647 10.7813 20.3404 12.5491 18.5869 13.32C18.126 13.5227 17.6313 13.6454 17.1048 13.6891C16.8748 14.0413 16.1043 15.0674 14.8152 15.2839C14.6552 15.3107 14.494 15.3241 14.3314 15.3241C13.3876 15.3241 12.4013 14.8721 11.3929 13.9757C11.358 13.9451 11.3295 13.908 11.309 13.8663C11.2885 13.8247 11.2765 13.7794 11.2736 13.7331C11.2707 13.6868 11.277 13.6404 11.2921 13.5966C11.3073 13.5527 11.3309 13.5123 11.3617 13.4776C11.3926 13.443 11.4299 13.4147 11.4717 13.3946C11.5135 13.3744 11.5588 13.3627 11.6051 13.3602C11.6515 13.3576 11.6978 13.3642 11.7416 13.3797C11.7853 13.3951 11.8256 13.4191 11.86 13.4502C12.8729 14.3505 13.826 14.7345 14.693 14.5914C15.3875 14.4767 15.9041 14.0387 16.2167 13.6895C15.3391 13.6225 14.3857 13.3621 13.3621 12.9071C13.2777 12.8687 13.2119 12.7986 13.179 12.7119C13.1461 12.6252 13.1488 12.5291 13.1865 12.4444C13.2241 12.3597 13.2937 12.2932 13.38 12.2596C13.4664 12.2259 13.5626 12.2277 13.6476 12.2646C15.4932 13.0849 17.0597 13.2234 18.3038 12.6764C19.3152 12.2317 19.9712 11.3888 20.3834 10.6176C19.1448 11.3544 17.4841 11.8109 15.3222 11.4294C15.2767 11.4214 15.2333 11.4045 15.1943 11.3797C15.1554 11.3548 15.1217 11.3226 15.0953 11.2848C15.0688 11.247 15.05 11.2043 15.04 11.1592C15.03 11.1142 15.029 11.0675 15.037 11.0221C15.0533 10.9303 15.1053 10.8487 15.1817 10.7952C15.258 10.7418 15.3525 10.7208 15.4443 10.7369C17.9544 11.18 20.0357 10.4822 21.63 8.6631C22.3372 7.85619 22.7904 6.99374 23.046 6.41333L9.78789 11.1726C9.25192 11.365 8.6454 11.2292 8.24279 10.8265L7.60089 10.1846C6.95345 9.53718 6.09263 9.1806 5.17623 9.1806C4.57651 9.1806 4.08854 9.66852 4.08854 10.2683V10.2918C4.08854 10.8562 4.42712 11.3564 4.9516 11.5664C5.54462 11.8039 5.98984 12.2966 6.17307 12.9181C6.97909 15.6519 8.26698 17.4096 10.001 18.1425C10.7642 18.4651 12.8478 19.0532 15.7037 17.5506C16.0436 17.3717 16.4599 17.3874 16.7904 17.5913L19.7124 19.3955C19.815 19.0983 19.885 18.7556 19.9129 18.3605C19.925 18.1899 19.8333 18.0344 19.6794 17.9645L15.9892 16.2871C15.9043 16.2485 15.8382 16.1778 15.8055 16.0905C15.7727 16.0032 15.776 15.9065 15.8146 15.8216C15.8532 15.7367 15.9239 15.6706 16.0112 15.6379C16.0985 15.6051 16.1952 15.6084 16.2801 15.647L19.9704 17.3244C20.388 17.5142 20.6468 17.9505 20.6143 18.41C20.5717 19.0139 20.4017 19.8896 19.8346 20.6319C19.1519 21.5255 18.0965 21.9781 16.6964 21.9781C16.6637 21.9781 16.6307 21.9778 16.5977 21.9773C16.1822 21.9711 15.8088 21.7368 15.6234 21.3658L14.3705 18.8601C13.6831 19.0736 12.8745 19.2389 12.0174 19.2389C11.2744 19.2388 10.4949 19.1147 9.72732 18.7903C7.78988 17.9714 6.36718 16.0627 5.49873 13.117C5.37676 12.7033 5.0821 12.3761 4.68981 12.219C4.4474 12.1223 4.22532 11.981 4.0351 11.8023L1.97434 11.4589C1.67874 12.3887 1.4664 12.9995 1.43907 13.0776C1.41501 13.1464 1.37014 13.2061 1.31069 13.2483C1.25123 13.2905 1.18012 13.3132 1.1072 13.3132C1.05105 13.3132 0.995712 13.2998 0.945824 13.274C0.895935 13.2483 0.852945 13.2109 0.82045 13.1651C0.787954 13.1193 0.766901 13.0664 0.759048 13.0108C0.751198 12.9552 0.756779 12.8986 0.775322 12.8456C0.792713 12.7958 2.15907 8.86499 2.9446 5.18132ZM2.12706 3.1949C1.7049 2.85238 1.1837 2.68565 0.712322 2.73154C0.764448 3.20216 1.03501 3.67794 1.45721 4.0205C1.87937 4.36302 2.40043 4.52985 2.87195 4.48386C2.81978 4.01324 2.54921 3.53741 2.12706 3.1949ZM5.09368 6.99693C5.67212 6.90618 6.18076 6.60646 6.47898 6.19293C6.06849 5.89058 5.49245 5.76102 4.91406 5.85177C4.33562 5.94252 3.82703 6.24219 3.52876 6.65572C3.93925 6.95802 4.51515 7.08763 5.09368 6.99693ZM9.55037 10.5108L17.3272 7.71913C17.8555 6.90491 18.0626 5.94613 18.1429 5.3444L8.44768 10.037L8.73999 10.3292C8.95117 10.5405 9.26921 10.6117 9.55037 10.5108ZM19.4042 20.0316L16.421 18.1896C16.3013 18.1157 16.1519 18.1093 16.0311 18.1728L16.0275 18.1747L18.3809 20.9248C18.7681 20.7361 19.1288 20.4522 19.4042 20.0316ZM16.2523 21.0514C16.3189 21.1845 16.4586 21.2721 16.6082 21.2743C16.9193 21.279 17.2889 21.2566 17.6665 21.1715L15.3707 18.4885C15.261 18.536 15.1505 18.5816 15.0392 18.6252L16.2523 21.0514ZM3.50945 11.0019C3.45856 10.8609 3.4231 10.7147 3.4037 10.5661L2.85831 10.8933L3.50945 11.0019Z" fill="black"/>
</svg>
