<svg width="60" height="60" viewBox="0 0 60 60" fill="none" xmlns="http://www.w3.org/2000/svg">
<path d="M6.38445 40.3016C6.36854 40.3584 6.36929 40.4185 6.38661 40.4749C6.40393 40.5313 6.43708 40.5815 6.48213 40.6196C8.84841 42.8693 11.384 44.9372 13.8006 47.1322C14.8781 48.1109 15.8114 49.09 17.2701 49.4409C24.8773 50.9945 33.1848 49.8817 40.2675 53.5853C42.8737 55.1473 44.6552 57.7407 47.1806 59.4189C47.6351 59.7208 48.0597 58.9883 47.6075 58.6887C45.398 57.2247 43.766 55.0791 41.6477 53.5006C34.5233 48.8195 25.2667 50.3134 17.2853 48.5732C16.4245 48.3443 15.8042 47.8661 15.1481 47.2879C12.5421 44.9915 9.95109 42.6724 7.31205 40.414C9.78789 38.8511 12.9017 42.1397 14.6533 43.654C15.2904 44.3438 16.1204 45.1138 17.1888 45.2104C19.4273 45.452 21.6151 45.6165 23.8608 45.3152C25.8708 44.9834 27.891 44.516 29.9391 44.7905C31.143 45.1025 32.3846 45.227 33.5262 45.754C34.0315 45.9873 34.4547 45.3022 33.9686 44.9971C33.0919 44.4467 32.0215 44.3267 31.0273 44.1267C28.4139 43.5267 26.0028 42.3147 23.4806 41.389C23.0486 41.2406 22.9023 40.723 23.0936 40.3265C23.8214 39.4204 25.6293 39.6638 26.6726 39.7378C30.0667 39.9109 33.4591 40.484 36.8589 40.1651C40.2317 39.8255 43.0218 42.1571 45.1969 44.4553C48.4785 47.8503 51.606 51.5319 55.7291 53.9441C56.2451 54.2467 56.7093 53.4495 56.1971 53.1435C52.2385 50.7795 49.2195 47.2933 46.0551 44.0077C43.9394 41.7877 41.4001 39.5155 38.2011 39.2685C36.9421 39.1696 35.6833 39.4354 34.4237 39.4357C31.5065 39.4559 28.5657 38.8894 25.6607 38.7351C24.9606 38.6024 24.1899 38.5376 23.5959 38.7969C22.6315 39.1647 21.5291 40.0786 22.0526 41.2259C22.5672 42.2272 24.2435 42.5504 25.2222 43.0197C25.9608 43.3197 26.6993 43.6317 27.4439 43.9271C25.9763 44.0457 24.5448 44.4311 23.0832 44.585C22.5748 44.6424 22.0618 44.5286 21.6254 44.2614C21.1891 43.9942 20.8544 43.5891 20.6744 43.1102C20.2031 41.8303 20.4797 40.1308 20.1132 38.7928C19.7172 37.2256 18.3307 35.2759 16.4669 35.6319C16.1957 35.6837 16.137 36.0381 16.2869 36.226C16.7048 37.6038 16.9884 39.0188 17.1337 40.4512C16.0242 38.3164 13.4544 35.9505 10.8869 37.1294C10.6562 37.2471 10.7052 37.5479 10.8869 37.6676C11.8161 38.9368 12.8021 40.1625 13.5222 41.5741C11.7723 40.0144 8.19045 37.8417 6.38445 40.3016ZM16.9649 36.4533C20.7569 37.412 18.5095 42.5007 20.6795 44.6733C20.3288 44.6691 19.9783 44.6601 19.6281 44.6409C18.6759 44.1687 18.3786 42.9469 17.9565 41.9993C17.8936 40.1127 17.5596 38.2449 16.9649 36.4533ZM11.8133 37.723C15.6719 37.5225 16.6661 41.8457 18.2408 44.5448C17.6736 44.5043 17.0437 44.4927 16.5282 44.2328C15.7144 43.7002 15.0522 42.9663 14.6058 42.1022C13.827 40.5536 12.9841 39.0262 11.8133 37.723ZM32.0459 13.0831C31.7727 4.49994 19.3283 4.50198 19.0565 13.0831C19.3296 21.6662 31.7741 21.6643 32.0459 13.0831ZM21.7724 5.09586C22.3501 5.46786 22.9177 4.61802 22.353 4.22682C21.7754 3.85494 21.2078 4.70418 21.7724 5.09586ZM28.6051 21.2145C28.2331 21.7922 29.0828 22.3598 29.474 21.7952C29.8454 21.2175 28.9963 20.6499 28.6051 21.2145ZM34.4073 9.88494C34.7793 9.30738 33.9296 8.73978 33.5384 9.30438C33.1665 9.88194 34.0161 10.4495 34.4073 9.88494ZM16.6949 16.2812C16.3229 16.8587 17.1726 17.4265 17.5639 16.8617C17.9358 16.2842 17.0861 15.7166 16.6949 16.2812ZM28.9376 4.14882C28.2662 4.29426 28.4657 5.29638 29.1416 5.17386C29.8129 5.02818 29.6135 4.02618 28.9376 4.14882ZM21.9614 20.9923C21.29 21.1378 21.4893 22.1399 22.1654 22.0173C22.8361 21.8719 22.6367 20.8697 21.9614 20.9923ZM33.4604 16.6735C33.6059 17.3449 34.608 17.1454 34.4855 16.4695C34.3399 15.7981 33.3374 15.9976 33.4604 16.6735ZM17.2313 10.1072C17.9033 9.96174 17.7033 8.9595 17.0273 9.08214C16.356 9.22818 16.5554 10.2298 17.2313 10.1072Z" fill="black"/>
<path d="M25.0702 0.982851V3.96725C25.0808 4.59737 26.0196 4.59881 26.0302 3.96725V0.982851C26.0198 0.352851 25.0806 0.351291 25.0702 0.982851ZM25.0702 22.3081V25.2925C25.0808 25.9226 26.0196 25.924 26.0302 25.2925V22.3081C26.0198 21.6782 25.0806 21.6766 25.0702 22.3081ZM37.7051 13.6178C38.3353 13.6072 38.3367 12.6685 37.7051 12.6578H34.7206C34.0906 12.6682 34.0891 13.607 34.7206 13.6178H37.7051ZM13.3953 13.6178H16.3798C17.01 13.6072 17.0114 12.6685 16.3798 12.6578H13.3953C12.7653 12.6682 12.7638 13.607 13.3953 13.6178ZM34.4845 4.20341C34.4399 4.15884 34.387 4.12348 34.3287 4.09935C34.2705 4.07523 34.2081 4.06281 34.1451 4.06281C34.082 4.06281 34.0196 4.07523 33.9614 4.09935C33.9031 4.12348 33.8502 4.15884 33.8056 4.20341L31.6953 6.31385C31.6053 6.40387 31.5547 6.52596 31.5547 6.65327C31.5547 6.78058 31.6053 6.90267 31.6953 6.99269C31.7853 7.08271 31.9074 7.13328 32.0347 7.13328C32.162 7.13328 32.2841 7.08271 32.3742 6.99269L34.4845 4.88237C34.5291 4.8378 34.5644 4.78487 34.5886 4.72662C34.6127 4.66838 34.6251 4.60594 34.6251 4.54289C34.6251 4.47984 34.6127 4.41741 34.5886 4.35916C34.5644 4.30091 34.5291 4.24799 34.4845 4.20341ZM17.295 22.0719L19.4053 19.9616C19.8465 19.5165 19.1727 18.8404 18.7263 19.2827L16.616 21.3931C16.1746 21.8383 16.8486 22.5142 17.295 22.0719ZM33.8056 22.0719C34.2505 22.5171 34.9254 21.8345 34.4845 21.3931L32.3742 19.2827C31.9213 18.8449 31.2562 19.5073 31.6953 19.9616L33.8056 22.0719ZM17.295 4.20341C16.8422 3.76565 16.1769 4.42781 16.6161 4.88237L18.7263 6.99269C19.1712 7.43789 19.8462 6.75533 19.4052 6.31385L17.295 4.20341ZM9.59575 32.3489C12.7233 32.4176 15.5545 29.6687 15.5703 26.5139C15.5732 26.3991 15.5349 26.287 15.4622 26.198C15.3895 26.1091 15.2873 26.0491 15.1742 26.0291C15.0611 26.009 14.9445 26.0302 14.8457 26.0888C14.7469 26.1474 14.6723 26.2395 14.6356 26.3483C14.3483 27.202 13.742 27.9116 12.9436 28.3286C12.1452 28.7457 11.2165 28.8379 10.3516 28.5861C6.33343 27.3701 7.48831 21.3971 11.6568 21.7581C12.1942 21.8181 12.3888 21.0381 11.8867 20.8371C6.72451 18.6531 1.61911 24.3418 4.33759 29.2451C4.85534 30.1863 5.61659 30.971 6.54165 31.5171C7.46671 32.0631 8.52155 32.3504 9.59575 32.3489ZM44.1988 27.9494L47.2628 26.8319C47.6903 26.6913 47.6698 26.0293 47.2303 25.9199L44.0947 25.0231C44.0141 25.0001 43.9429 24.9522 43.8913 24.8862C43.8397 24.8202 43.8104 24.7396 43.8075 24.6559L43.6916 21.3965C43.6897 20.9465 43.0541 20.7605 42.8138 21.1454L40.9917 23.8504C40.945 23.9199 40.8774 23.9729 40.7987 24.0016C40.72 24.0303 40.6342 24.0333 40.5537 24.0101L37.4181 23.1133C36.9895 22.9755 36.6171 23.5235 36.9081 23.8706L38.9176 26.4392C38.9693 26.5051 38.9988 26.5857 39.0018 26.6694C39.0048 26.7531 38.9812 26.8356 38.9343 26.905L37.1122 29.6101C36.8482 29.9759 37.2553 30.4981 37.6748 30.3292L40.7387 29.2117C40.8174 29.1829 40.9032 29.1798 40.9837 29.2028C41.0643 29.2259 41.1354 29.2739 41.187 29.3399L43.1966 31.9081C43.4643 32.2719 44.0853 32.0465 44.0543 31.5952L43.9384 28.3358C43.9354 28.2521 43.959 28.1696 44.0058 28.1002C44.0526 28.0308 44.1202 27.978 44.1988 27.9494ZM6.15283 12.4582C5.58883 12.8497 6.15595 13.6991 6.73351 13.3273C7.29811 12.9361 6.73027 12.0863 6.15283 12.4582ZM9.69367 3.28181C9.12967 3.67325 9.69679 4.52273 10.2744 4.15085C10.839 3.75953 10.2711 2.90993 9.69367 3.28181ZM20.511 29.7623C19.947 30.1537 20.5141 31.0033 21.0916 30.6314C21.6562 30.2401 21.0885 29.3905 20.511 29.7623ZM31.6904 28.6837C31.1264 29.075 31.6936 29.9246 32.2711 29.5527C32.8357 29.1614 32.2686 28.3118 31.6904 28.6837ZM43.4548 7.13357C43.8461 7.69757 44.6957 7.13045 44.3237 6.55289C43.9325 5.98805 43.0828 6.55613 43.4548 7.13357ZM44.6781 15.9826C44.1134 16.3741 44.6812 17.2235 45.2588 16.8517C45.8234 16.4603 45.2555 15.6107 44.6781 15.9826Z" fill="#DFA915"/>
</svg>
