<svg width="60" height="60" viewBox="0 0 60 60" fill="none" xmlns="http://www.w3.org/2000/svg">
<path fill-rule="evenodd" clip-rule="evenodd" d="M29.616 14.0221C30.7779 17.5045 30.9759 21.3079 30.7083 25.1731C30.3096 30.9301 28.8786 36.8224 28.0131 42.0115C27.6705 44.065 27.3747 46.8385 27.4809 50.2801C27.5559 52.6981 27.8292 55.4455 28.4244 58.5061C28.432 58.5448 28.4471 58.5816 28.4688 58.6144C28.4906 58.6473 28.5186 58.6755 28.5513 58.6976C28.584 58.7196 28.6207 58.7349 28.6594 58.7428C28.698 58.7506 28.7378 58.7508 28.7765 58.7432C28.8152 58.7357 28.852 58.7206 28.8848 58.6988C28.9177 58.677 28.9459 58.649 28.968 58.6163C28.99 58.5836 29.0054 58.5469 29.0132 58.5083C29.021 58.4697 29.0212 58.4299 29.0136 58.3912C28.425 55.3666 28.1547 52.651 28.0806 50.2615C27.9759 46.8685 28.2672 44.1346 28.605 42.1105C29.4732 36.9034 30.9069 30.9907 31.3068 25.2145C31.5801 21.2689 31.371 17.3869 30.1851 13.8319C30.1731 13.794 30.1536 13.7589 30.1278 13.7287C30.1021 13.6984 30.0706 13.6736 30.0352 13.6556C29.9997 13.6376 29.9611 13.6268 29.9215 13.6239C29.8819 13.6209 29.842 13.6259 29.8044 13.6385C29.7667 13.651 29.7319 13.671 29.7019 13.6971C29.672 13.7233 29.6476 13.7551 29.6301 13.7907C29.6125 13.8264 29.6023 13.8652 29.5999 13.9048C29.5975 13.9445 29.603 13.9842 29.616 14.0218V14.0221Z" fill="black"/>
<path fill-rule="evenodd" clip-rule="evenodd" d="M17.5864 15.9348C16.1356 20.7216 16.2397 24.2157 17.1634 27.312C17.9113 29.8206 19.2019 32.0679 20.6512 34.5339C23.1256 38.7441 26.0639 43.6041 27.4649 51.5883C27.4786 51.6667 27.523 51.7364 27.5881 51.7821C27.6533 51.8278 27.7339 51.8457 27.8123 51.8319C27.8906 51.8182 27.9603 51.7738 28.006 51.7087C28.0517 51.6435 28.0696 51.5629 28.0559 51.4845C26.6383 43.4076 23.6716 38.4891 21.1684 34.23C19.7455 31.8081 18.4729 29.604 17.7382 27.1404C16.8427 24.138 16.7543 20.7504 18.1607 16.1088C18.1831 16.0329 18.1746 15.9511 18.137 15.8814C18.0994 15.8117 18.0357 15.7597 17.9599 15.7368C17.8841 15.7138 17.8023 15.7217 17.7324 15.7588C17.6624 15.7959 17.61 15.8592 17.5864 15.9348ZM40.9832 27.7815C39.3872 33.2985 37.3271 36.5664 35.3081 39.3396C33.5492 41.7552 31.823 43.8021 30.4487 46.605C29.3207 48.9054 28.4285 51.7131 27.9527 55.6464C27.9479 55.6856 27.9509 55.7252 27.9616 55.7632C27.9722 55.8011 27.9901 55.8366 28.0144 55.8676C28.0388 55.8986 28.069 55.9245 28.1033 55.9439C28.1376 55.9632 28.1754 55.9756 28.2146 55.9803C28.2537 55.9851 28.2933 55.982 28.3313 55.9714C28.3692 55.9608 28.4047 55.9429 28.4357 55.9185C28.4667 55.8942 28.4927 55.864 28.512 55.8297C28.5313 55.7954 28.5437 55.7575 28.5485 55.7184C29.0138 51.8694 29.8835 49.1205 30.9875 46.869C32.3453 44.1 34.0553 42.0798 35.7934 39.693C37.8446 36.8748 39.9374 33.5541 41.5595 27.9483C41.5816 27.8719 41.5724 27.7897 41.534 27.72C41.4956 27.6503 41.431 27.5987 41.3546 27.5766C41.2781 27.5545 41.196 27.5637 41.1263 27.6021C41.0566 27.6405 41.005 27.7051 40.9828 27.7815H40.9832Z" fill="black"/>
<path fill-rule="evenodd" clip-rule="evenodd" d="M6.28606 36.3791C8.09146 38.1947 9.90586 39.2072 11.6927 39.8063C14.2232 40.6547 16.6991 40.6643 19.0205 40.9583C21.3269 41.2502 23.4785 41.8295 25.361 43.9067C25.4145 43.9654 25.489 44.0005 25.5684 44.0043C25.6477 44.0081 25.7253 43.9803 25.7842 43.9269C25.843 43.8736 25.8783 43.7991 25.8824 43.7198C25.8864 43.6404 25.8587 43.5628 25.8056 43.5038C23.8112 41.303 21.5396 40.6724 19.0958 40.3631C16.8113 40.0736 14.3738 40.0721 11.8838 39.2375C10.1738 38.6645 8.43916 37.6931 6.71176 35.9561C6.65494 35.9032 6.57988 35.8745 6.50231 35.8758C6.42475 35.8771 6.35069 35.9083 6.29566 35.963C6.24064 36.0177 6.2089 36.0915 6.20711 36.1691C6.20532 36.2467 6.23361 36.3219 6.28606 36.3791Z" fill="black"/>
<path fill-rule="evenodd" clip-rule="evenodd" d="M19.0888 40.7272C19.1276 40.6775 19.1498 40.6168 19.1521 40.5538C19.1545 40.4908 19.1369 40.4286 19.102 40.3762C18.0841 38.8453 17.0194 37.9915 15.943 37.5202C14.3158 36.8086 12.6523 36.9796 11.0404 37.0504C9.51188 37.1173 8.03018 37.0924 6.69488 35.9407C6.64378 35.8969 6.57946 35.8715 6.51223 35.8687C6.445 35.8658 6.37876 35.8857 6.32414 35.9249C6.26952 35.9642 6.22968 36.0207 6.21101 36.0854C6.19234 36.15 6.19592 36.2191 6.22118 36.2815C7.59998 39.6457 9.51818 41.3986 11.4478 42.1804C14.7292 43.5097 18.0718 42.025 19.0888 40.7272ZM18.475 40.5205C17.4124 41.649 14.5132 42.775 11.6731 41.6245C10.0522 40.9678 8.45768 39.568 7.21118 37.0243C8.42708 37.6801 9.72758 37.7086 11.0668 37.6498C12.5902 37.5829 14.1646 37.3972 15.7021 38.0701C16.6486 38.4841 17.5771 39.2281 18.475 40.5205ZM24.0358 19.0567C23.8273 21.1453 24.0886 22.7449 24.592 24.1195C25.1542 25.6555 26.023 26.9074 26.8846 28.2505C27.9691 29.9401 29.0416 31.7791 29.4166 34.5724C29.4256 34.6391 29.4568 34.7008 29.5051 34.7477C29.5535 34.7945 29.6162 34.8237 29.6832 34.8306C29.7502 34.8375 29.8175 34.8217 29.8744 34.7857C29.9313 34.7496 29.9744 34.6955 29.9968 34.6321C31.4281 30.577 33.5083 27.9271 35.4499 25.6294C37.1221 23.6506 38.6911 21.9268 39.685 19.8202C40.291 18.5362 40.6852 17.1106 40.762 15.4033C40.7656 15.3237 40.7374 15.246 40.6837 15.1873C40.63 15.1285 40.5552 15.0935 40.4756 15.0899C40.3961 15.0863 40.3184 15.1145 40.2597 15.1682C40.2009 15.2219 40.1659 15.2967 40.1623 15.3763C40.0903 16.9951 39.7168 18.3466 39.1423 19.5643C38.1703 21.6253 36.6277 23.3062 34.9918 25.2421C33.1807 27.385 31.2547 29.8315 29.8216 33.3964C29.3299 31.0918 28.3672 29.4496 27.3898 27.9262C26.5519 26.6206 25.702 25.4062 25.1554 23.9131C24.6784 22.6111 24.4354 21.0949 24.6325 19.1161C24.6369 19.0766 24.6335 19.0366 24.6224 18.9985C24.6113 18.9603 24.5927 18.9248 24.5677 18.8939C24.5427 18.863 24.5119 18.8373 24.4769 18.8184C24.442 18.7996 24.4036 18.7878 24.3641 18.7839C24.3245 18.78 24.2846 18.7839 24.2466 18.7955C24.2086 18.8072 24.1733 18.8262 24.1428 18.8516C24.1122 18.877 24.087 18.9082 24.0686 18.9434C24.0501 18.9786 24.0392 19.0171 24.0358 19.0567Z" fill="black"/>
<path fill-rule="evenodd" clip-rule="evenodd" d="M27.4835 28.846C27.6137 28.8505 27.7316 28.771 27.7763 28.6486C28.2971 27.2146 28.2863 26.2255 27.9995 25.3552C27.773 24.6682 27.3671 24.0538 26.8961 23.3476C26.1812 22.2757 25.3142 20.9746 24.7751 18.7774C24.7619 18.7228 24.7336 18.673 24.6934 18.6337C24.6533 18.5944 24.6029 18.5672 24.548 18.5552C24.4931 18.5433 24.4359 18.547 24.3831 18.5659C24.3302 18.5849 24.2837 18.6183 24.2489 18.6625C22.754 20.548 21.953 23.9083 23.0318 26.2357C23.7044 27.6865 25.0877 28.7617 27.4835 28.846ZM27.2855 28.2355C24.7406 28.069 23.54 26.614 23.2217 24.8365C22.9046 23.0644 23.4341 20.9908 24.3593 19.5415C24.9215 21.4606 25.7225 22.6693 26.3969 23.6806C26.8349 24.337 27.2192 24.9037 27.4295 25.5427C27.668 26.2669 27.6719 27.0829 27.2855 28.2355ZM18.581 30.592C18.6328 30.6019 18.6864 30.598 18.7362 30.5806C18.786 30.5632 18.8304 30.533 18.8648 30.493C20.1563 28.987 20.5616 27.5914 20.5151 26.1925C20.471 24.8524 20 23.5057 19.484 22.045C18.8609 20.281 18.173 18.3436 18.173 16.0219C18.173 15.9633 18.1559 15.906 18.1238 15.8571C18.0916 15.8081 18.0459 15.7697 17.9921 15.7464C17.9384 15.7232 17.879 15.7161 17.8213 15.7262C17.7636 15.7363 17.7102 15.7631 17.6675 15.8032C14.9705 18.3334 13.5545 22.3258 13.9841 25.5253C14.3207 28.0309 15.7694 30.0583 18.581 30.592ZM18.5222 29.968C16.1114 29.44 14.8742 27.643 14.5787 25.4455C14.1983 22.6129 15.3545 19.1278 17.5931 16.7275C17.7122 18.8173 18.3389 20.6044 18.9182 22.2448C19.4123 23.6431 19.8731 24.9298 19.9157 26.2126C19.9562 27.4375 19.6037 28.6558 18.5222 29.968ZM31.3424 22.5901C32.5502 21.1771 33.6464 19.2376 34.4333 17.3011C35.3723 14.9896 35.8628 12.6802 35.6108 11.2585C35.5961 11.1809 35.5514 11.1123 35.4864 11.0674C35.4214 11.0226 35.3413 11.0052 35.2636 11.019C35.1858 11.0329 35.1167 11.0768 35.0711 11.1412C35.0255 11.2057 35.0072 11.2856 35.0201 11.3635C35.2583 12.7084 34.7657 14.8885 33.8774 17.0749C33.1154 18.9511 32.0564 20.8312 30.8864 22.1998C30.8608 22.2297 30.8413 22.2644 30.8291 22.3019C30.8169 22.3393 30.8122 22.3788 30.8153 22.4181C30.8184 22.4574 30.8291 22.4957 30.847 22.5308C30.8649 22.5659 30.8895 22.5972 30.9194 22.6228C30.9494 22.6484 30.9841 22.6678 31.0215 22.68C31.059 22.6922 31.0985 22.6969 31.1378 22.6939C31.177 22.6908 31.2153 22.68 31.2504 22.6622C31.2856 22.6443 31.3168 22.62 31.3424 22.5901Z" fill="black"/>
<path fill-rule="evenodd" clip-rule="evenodd" d="M33.3251 18.6165C33.3623 18.6829 33.4234 18.7326 33.4959 18.7556C33.5685 18.7786 33.6471 18.7732 33.7157 18.7404C35.8223 17.7354 36.9869 15.6924 37.1663 13.455C37.3325 11.3823 36.6503 9.14429 35.0933 7.43189C35.0546 7.38919 35.0044 7.35857 34.9487 7.34368C34.893 7.32878 34.8342 7.33026 34.7793 7.34792C34.7244 7.36558 34.6758 7.39868 34.6392 7.44326C34.6026 7.48784 34.5797 7.54201 34.5731 7.59929C34.1459 11.2725 32.8619 13.2546 32.5994 15.1935C32.4542 16.2645 32.5991 17.3235 33.3251 18.6165ZM33.7121 18.0687C33.1826 17.0298 33.0743 16.1571 33.194 15.2739C33.44 13.4562 34.5818 11.6001 35.0774 8.35169C36.2144 9.85379 36.7058 11.6916 36.5684 13.407C36.4133 15.3399 35.4569 17.1195 33.7124 18.069L33.7121 18.0687ZM37.5458 23.1969C38.2544 22.3452 39.2228 21.7452 40.2446 21.3444C41.3537 20.9094 42.5282 20.7096 43.5161 20.6868C43.5957 20.685 43.6713 20.6516 43.7262 20.594C43.7812 20.5365 43.8111 20.4595 43.8092 20.3799C43.8074 20.3003 43.774 20.2247 43.7165 20.1698C43.6589 20.1148 43.5819 20.085 43.5023 20.0868C42.4523 20.1111 41.2043 20.3238 40.0256 20.7858C38.9102 21.2232 37.8578 21.8838 37.0847 22.8129C37.0338 22.874 37.0093 22.9529 37.0165 23.0321C37.0237 23.1114 37.0621 23.1845 37.1233 23.2354C37.1844 23.2864 37.2633 23.3109 37.3425 23.3037C37.4218 23.2964 37.4949 23.258 37.5458 23.1969Z" fill="black"/>
<path fill-rule="evenodd" clip-rule="evenodd" d="M40.2011 21.0755C40.1912 21.1664 40.223 21.2567 40.2875 21.3215C41.0864 22.1174 42.074 22.4195 43.2524 22.2185C44.3984 22.0229 45.7385 21.3356 47.2652 20.1395C47.3074 20.1064 47.34 20.0626 47.3596 20.0126C47.3791 19.9626 47.3849 19.9083 47.3763 19.8553C47.3678 19.8023 47.3451 19.7526 47.3108 19.7114C47.2765 19.6701 47.2317 19.6388 47.1812 19.6208C45.1586 18.8987 43.5848 18.6233 42.464 18.7736C41.7881 18.8642 41.2658 19.1072 40.8896 19.4876C40.5107 19.871 40.2764 20.3984 40.2011 21.0755ZM40.817 20.9969C40.8884 20.5418 41.0513 20.1779 41.3165 19.9094C41.6081 19.6142 42.0194 19.4387 42.5435 19.3685C43.499 19.2401 44.8007 19.4573 46.4519 20.0045C45.2084 20.9186 44.1104 21.4634 43.1519 21.6269C42.2339 21.7832 41.4548 21.5759 40.817 20.9969ZM41.285 27.9827C41.5466 28.0328 41.825 27.9377 42.0731 27.7157C42.4019 27.4217 42.686 26.8913 42.791 26.3528C42.8906 25.8416 42.8249 25.3292 42.5432 24.983C42.3542 24.7502 42.0692 24.5813 41.6561 24.539C41.2436 24.497 40.9325 24.5984 40.7033 24.7775C40.4504 24.9755 40.2932 25.2761 40.2272 25.625C40.1162 26.2115 40.2692 26.9363 40.562 27.4112C40.7558 27.725 41.0141 27.9308 41.285 27.9827ZM41.3978 27.3935C41.2688 27.3686 41.1653 27.2465 41.0729 27.0965C40.8497 26.7347 40.7324 26.183 40.8167 25.7366C40.8542 25.5392 40.9301 25.3619 41.0729 25.2506C41.1977 25.1528 41.3705 25.1129 41.5949 25.1357C41.8169 25.1585 41.9762 25.2365 42.0779 25.3613C42.1949 25.5053 42.2357 25.7003 42.236 25.9064C42.236 26.3729 42.0209 26.9027 41.738 27.2048C41.6282 27.3218 41.5178 27.4163 41.3978 27.3938V27.3935ZM34.9244 40.322C34.8167 40.5068 34.8314 40.7876 35.024 41.0882C35.3171 41.5463 36.0356 42.1112 36.7484 42.3188C37.4444 42.5216 38.1239 42.4019 38.4902 41.6828C38.9201 40.8398 38.2133 40.0148 37.2284 39.7043C36.3674 39.4325 35.3594 39.5747 34.9244 40.3223V40.322ZM35.4557 40.6025C35.762 40.1087 36.4631 40.0919 37.0481 40.2764C37.3613 40.3754 37.6481 40.5377 37.8341 40.7453C38.0036 40.9349 38.0804 41.1659 37.9556 41.4104C37.7399 41.8334 37.3259 41.8622 36.9164 41.7428C36.4274 41.6003 35.9333 41.2523 35.6498 40.9238C35.5854 40.8524 35.5302 40.7733 35.4854 40.6883C35.4731 40.6605 35.4632 40.6318 35.4557 40.6025ZM36.965 36.8435C36.7544 37.2404 36.8372 37.637 37.1183 37.9724C37.3907 38.2976 37.8713 38.5634 38.4005 38.6759C39.2405 38.855 40.1777 38.6489 40.5974 37.8254C40.9805 37.0736 40.4789 36.4286 39.6479 36.1379C39.122 35.954 38.474 35.9189 37.9379 36.0842C37.5182 36.2138 37.1663 36.4634 36.965 36.8435ZM37.4951 37.1246C37.7672 36.611 38.4743 36.5078 39.0827 36.6107C39.4082 36.6656 39.7127 36.7841 39.9167 36.9578C40.097 37.1111 40.1837 37.3157 40.0628 37.553C39.7727 38.1221 39.1061 38.213 38.5256 38.0891C38.1377 38.0063 37.778 37.8254 37.5782 37.5872C37.4621 37.4486 37.4081 37.2884 37.4951 37.1246ZM38.906 33.1178C38.741 33.4292 38.7638 33.749 38.9279 34.0463C39.1649 34.4753 39.7409 34.8626 40.3913 35.0375C41.2871 35.2781 42.2879 35.1113 42.7133 34.2764C42.9323 33.8474 42.8507 33.4484 42.5801 33.1145C42.305 32.7755 41.804 32.5067 41.2484 32.3825C40.745 32.2697 40.2002 32.2739 39.7562 32.4266C39.3866 32.5535 39.0842 32.7812 38.9057 33.1178H38.906ZM39.4358 33.3986C39.5426 33.1976 39.7304 33.0698 39.9512 32.9939C40.2983 32.8745 40.724 32.8799 41.1173 32.9678C41.4581 33.0443 41.7761 33.1829 41.9948 33.3707C42.1943 33.5423 42.3032 33.7598 42.1787 34.004C41.8838 34.583 41.1677 34.625 40.547 34.4579C40.1405 34.3487 39.764 34.1435 39.5474 33.89C39.4172 33.7376 39.3464 33.5675 39.4358 33.3986ZM40.298 29.6948C40.0859 30.0947 40.1579 30.4706 40.406 30.7778C40.6628 31.0958 41.1401 31.3358 41.669 31.4009C42.428 31.4945 43.274 31.2353 43.6829 30.4334C43.8524 30.101 43.8491 29.8052 43.7438 29.5565C43.6016 29.2205 43.2458 28.958 42.7862 28.8323C41.9318 28.5983 40.7498 28.8416 40.2977 29.6948H40.298ZM40.8278 29.9759C41.0942 29.4734 41.7323 29.3078 42.2849 29.3522C42.5264 29.3714 42.7547 29.4323 42.9329 29.5337C43.0577 29.6048 43.1582 29.6939 43.1987 29.81C43.2341 29.9114 43.2158 30.0284 43.1483 30.161C42.8654 30.716 42.2675 30.8702 41.7425 30.8054C41.4434 30.7685 41.1638 30.6614 40.9736 30.5024C40.8086 30.3638 40.7198 30.1796 40.8278 29.9759Z" fill="black"/>
<path fill-rule="evenodd" clip-rule="evenodd" d="M35.4444 40.6238C35.8818 39.872 35.4357 38.9207 34.7046 38.3228C34.2735 37.9703 33.7566 37.748 33.318 37.7471C32.9022 37.7459 32.544 37.9226 32.3325 38.3372C31.899 39.188 32.3889 39.9383 33.1383 40.4135C33.7053 40.7735 34.4079 40.9631 34.8498 40.9316C35.145 40.9106 35.3487 40.7882 35.4444 40.6238ZM34.9347 40.3058C34.9025 40.317 34.8693 40.3254 34.8357 40.3307C34.7392 40.339 34.6421 40.3355 34.5465 40.3202C34.1157 40.2596 33.5571 40.0328 33.1725 39.6932C32.8503 39.4085 32.6496 39.0365 32.8671 38.6102C32.9904 38.3678 33.228 38.3168 33.4827 38.3633C33.7629 38.4143 34.0629 38.5733 34.3248 38.7872C34.5789 38.9951 34.7976 39.2561 34.9212 39.5342C35.0358 39.7907 35.0682 40.0628 34.9347 40.3058ZM37.4964 37.1249C37.7016 36.7373 37.7022 36.287 37.5558 35.8442C37.3761 35.3015 36.9723 34.7702 36.5184 34.4153C35.7699 33.8303 34.9116 33.7526 34.5255 34.5101C34.113 35.3192 34.4841 36.2384 35.1156 36.8672C35.5998 37.3502 36.2274 37.6457 36.708 37.6196C37.0443 37.6016 37.3254 37.4471 37.4964 37.1249ZM36.9663 36.8435C36.8781 37.0097 36.7065 37.0415 36.5187 37.0106C36.1989 36.9578 35.8368 36.7391 35.5389 36.4421C35.0901 35.9951 34.767 35.3576 35.0601 34.7825C35.1543 34.5977 35.3127 34.5395 35.4906 34.565C35.8035 34.6103 36.1527 34.8482 36.4449 35.1596C36.72 35.4524 36.9441 35.8157 37.0269 36.1778C37.0797 36.4097 37.0734 36.641 36.9663 36.8438V36.8435ZM39.4371 33.3989C39.6171 33.0599 39.6345 32.6798 39.5307 32.3018C39.4056 31.8473 39.0996 31.3937 38.7207 31.0403C38.3019 30.6497 37.7955 30.3863 37.3617 30.3485C36.9258 30.311 36.5481 30.4733 36.3255 30.9101C35.9037 31.7381 36.3276 32.651 37.0188 33.2513C37.5291 33.6944 38.1729 33.9521 38.6604 33.9041C38.9964 33.8711 39.2724 33.7103 39.4374 33.3986L39.4371 33.3989ZM38.907 33.1175C38.8173 33.2873 38.6379 33.3263 38.4393 33.305C38.1096 33.2696 37.7298 33.074 37.4124 32.7983C36.9288 32.3786 36.5652 31.7612 36.8604 31.1825C36.9564 30.9941 37.122 30.9299 37.3098 30.9461C37.6326 30.974 37.9998 31.1885 38.3112 31.4789C38.6082 31.7555 38.8545 32.1059 38.952 32.4608C39.0144 32.687 39.0144 32.9147 38.907 33.1175ZM40.8384 29.957C40.9428 29.7209 40.9305 29.4083 40.8057 29.0789C40.6206 28.5908 40.1919 28.0541 39.7266 27.7424C39.36 27.4964 38.9685 27.3947 38.6409 27.4892C38.4045 27.5573 38.1879 27.7211 38.0307 28.0292C37.5948 28.8845 37.9968 29.6915 38.6385 30.164C39.0495 30.467 39.555 30.623 39.9741 30.575C40.3527 30.5318 40.6701 30.3365 40.8384 29.957ZM40.2897 29.714C40.2159 29.8802 40.0722 29.96 39.9063 29.9789C39.6186 30.0119 39.2763 29.8889 38.9943 29.681C38.5767 29.3735 38.2818 28.8584 38.5653 28.3016C38.6265 28.1816 38.6991 28.1036 38.7897 28.0712C38.8926 28.0343 39.0081 28.055 39.1263 28.0997C39.3033 28.1663 39.4815 28.2908 39.6459 28.4423C39.891 28.6688 40.1034 28.9577 40.2219 29.2343C40.2984 29.4149 40.3467 29.5856 40.2897 29.714ZM41.7897 6.9851C41.7416 6.9459 41.6825 6.9226 41.6206 6.91841C41.5587 6.91422 41.497 6.92934 41.4441 6.96169C40.479 7.55149 39.717 8.1482 39.1563 8.7485C38.6322 9.30979 38.2812 9.87739 38.0973 10.4477C37.7721 11.4527 37.9023 12.3479 38.4318 13.0115C38.8911 13.5869 39.6636 13.9958 40.7469 14.1266C41.7978 14.2532 42.7368 14.0141 43.434 13.5464C44.2725 12.9839 44.7663 12.0923 44.7093 11.084C44.6754 10.4819 44.4156 9.82909 43.9143 9.1319C43.4331 8.4629 42.7257 7.7465 41.7897 6.9851ZM41.5758 7.586C42.3819 8.2568 42.9996 8.88829 43.4268 9.48229C43.8486 10.0685 44.0817 10.6115 44.1102 11.1179C44.1552 11.9102 43.7586 12.6062 43.0998 13.0481C42.5088 13.4447 41.7102 13.6382 40.8186 13.5311C39.9267 13.4234 39.2787 13.1111 38.9007 12.6371C38.4873 12.119 38.4141 11.4167 38.6679 10.6322C38.8281 10.1363 39.1392 9.64609 39.5949 9.15799C40.0887 8.62909 40.7499 8.1059 41.5758 7.586Z" fill="black"/>
<path fill-rule="evenodd" clip-rule="evenodd" d="M43.7967 9.20088C43.0089 9.18468 41.8566 9.61518 40.8141 10.2461C39.7935 10.8641 38.8815 11.6702 38.5011 12.3932C38.4683 12.4631 38.4637 12.5431 38.4883 12.6163C38.5129 12.6896 38.5648 12.7505 38.6332 12.7865C38.7015 12.8225 38.7812 12.8307 38.8555 12.8094C38.9298 12.7882 38.993 12.7392 39.0321 12.6725C39.3741 12.023 40.2081 11.3144 41.1246 10.7594C42.0576 10.1954 43.0797 9.78618 43.7844 9.80058C43.8639 9.80221 43.9409 9.77217 43.9983 9.71706C44.0557 9.66195 44.0889 9.5863 44.0905 9.50673C44.0922 9.42717 44.0621 9.35021 44.007 9.2928C43.9519 9.23538 43.8762 9.20251 43.7967 9.20088Z" fill="black"/>
<path fill-rule="evenodd" clip-rule="evenodd" d="M39.7228 8.57277C39.8554 9.11097 40.0192 9.44757 40.2436 9.70467C40.4836 9.97977 40.7986 10.1646 41.2516 10.3953C41.2868 10.4141 41.3254 10.4258 41.3652 10.4295C41.4049 10.4333 41.445 10.4291 41.4831 10.4171C41.5212 10.4052 41.5566 10.3857 41.5871 10.36C41.6176 10.3342 41.6426 10.3025 41.6607 10.267C41.6788 10.2314 41.6897 10.1925 41.6926 10.1527C41.6955 10.1129 41.6904 10.0728 41.6776 10.035C41.6649 9.99716 41.6447 9.96225 41.6182 9.93231C41.5918 9.90238 41.5597 9.87802 41.5237 9.86067C41.155 9.67287 40.891 9.53397 40.6957 9.31017C40.522 9.11127 40.4077 8.84547 40.3057 8.42937C40.2963 8.39109 40.2794 8.35505 40.2561 8.32329C40.2327 8.29154 40.2034 8.26469 40.1696 8.24428C40.1359 8.22388 40.0985 8.21031 40.0595 8.20436C40.0206 8.19842 39.9808 8.2002 39.9425 8.20962C39.9043 8.21903 39.8682 8.2359 39.8365 8.25924C39.8047 8.28259 39.7779 8.31196 39.7575 8.34568C39.7371 8.3794 39.7235 8.41681 39.7175 8.45578C39.7116 8.49474 39.7134 8.53449 39.7228 8.57277ZM39.5584 13.8693C39.3388 14.9979 39.9676 15.5664 40.5409 15.5253C41.0083 15.4917 41.5759 15.0333 41.686 13.9572C41.6921 13.8791 41.6675 13.8017 41.6173 13.7415C41.5672 13.6814 41.4955 13.6432 41.4175 13.6352C41.3396 13.6272 41.2617 13.65 41.2003 13.6988C41.139 13.7475 41.0991 13.8183 41.0893 13.896C41.0527 14.2539 40.9585 14.5212 40.8286 14.7012C40.7299 14.8374 40.6156 14.9184 40.4977 14.9268C40.387 14.9349 40.2868 14.8686 40.2187 14.7561C40.1137 14.5824 40.0819 14.3199 40.1473 13.9839C40.1554 13.945 40.1557 13.9049 40.1482 13.8658C40.1407 13.8268 40.1255 13.7897 40.1035 13.7566C40.0815 13.7235 40.0531 13.6951 40.0201 13.6731C39.987 13.651 39.9499 13.6358 39.9109 13.6282C39.8719 13.6206 39.8318 13.6208 39.7929 13.6289C39.754 13.6369 39.7171 13.6526 39.6843 13.675C39.6515 13.6975 39.6234 13.7262 39.6018 13.7595C39.5802 13.7929 39.5655 13.8302 39.5584 13.8693ZM29.6239 10.2441C29.9971 11.1336 30.1948 11.8692 30.2068 12.4533C30.2176 12.9864 30.0703 13.3779 29.7298 13.6137C29.4619 13.7991 29.0701 13.7676 28.5538 13.5882C28.0273 13.4058 27.3934 13.0614 26.6491 12.5592C26.5831 12.5163 26.5029 12.501 26.4258 12.5167C26.3487 12.5323 26.2808 12.5777 26.2368 12.6429C26.1928 12.7082 26.1762 12.7881 26.1906 12.8655C26.205 12.9429 26.2492 13.0115 26.3137 13.0566C27.3022 13.7238 28.1155 14.124 28.7482 14.2689C29.3098 14.3973 29.7493 14.3298 30.0715 14.1069C30.5656 13.7649 30.8224 13.2147 30.8065 12.441C30.7933 11.7996 30.5869 10.989 30.1774 10.0119C30.1466 9.93847 30.0879 9.88031 30.0142 9.85018C29.9406 9.82005 29.8579 9.82043 29.7846 9.85122C29.7112 9.88201 29.653 9.9407 29.6229 10.0144C29.5927 10.088 29.5931 10.1707 29.6239 10.2441Z" fill="black"/>
<path fill-rule="evenodd" clip-rule="evenodd" d="M21.7084 5.8293C21.6778 5.8413 21.481 5.9163 21.3364 5.9493C20.9869 6.0279 20.5843 6.0831 20.4622 6.1242C20.1385 6.2328 19.906 6.4098 19.738 6.6408C19.582 6.8553 19.4824 7.1196 19.4266 7.4283C19.2949 8.1594 19.603 8.8779 20.2087 9.5157C20.848 10.1889 21.823 10.7766 22.8847 11.1957C24.1045 11.6778 25.4365 11.937 26.4892 11.8662C27.154 11.8215 27.7126 11.6421 28.0882 11.3262C28.4602 11.0136 28.7281 10.5441 28.8934 9.9705C29.1682 9.0171 29.1613 7.7655 28.9378 6.5418C28.7188 5.343 28.2922 4.173 27.7363 3.3408C27.4057 2.8458 27.0265 2.4678 26.6212 2.2551C26.2627 2.0673 25.9057 2.0691 25.5787 2.2077C25.195 2.3709 24.8479 2.7417 24.6157 3.2379C24.5467 3.3855 24.4456 3.6639 24.2656 3.8625C24.1621 3.9771 24.0244 4.0605 23.8327 4.014C23.0197 3.816 22.6189 3.939 22.393 4.1559C22.2334 4.3089 22.1455 4.5279 22.084 4.7907C22.012 5.0991 21.9778 5.4882 21.7084 5.8293ZM23.6908 4.5969C24.0502 4.6845 24.3328 4.5879 24.5572 4.4097C24.8716 4.1601 25.0543 3.7161 25.1593 3.4923C25.2934 3.2055 25.4722 2.9703 25.6828 2.8308C25.8826 2.6988 26.1121 2.6658 26.3428 2.7867C26.7703 3.0105 27.148 3.4725 27.4693 4.0572C27.8704 4.788 28.1758 5.7102 28.3474 6.6498C28.5208 7.5984 28.5589 8.5659 28.4158 9.3732C28.3027 10.0116 28.0813 10.5483 27.7021 10.8672C27.4093 11.1132 26.9671 11.2326 26.4487 11.2677C25.4719 11.3337 24.2371 11.085 23.1049 10.6377C22.1305 10.2528 21.2305 9.7206 20.6437 9.1026C20.185 8.6196 19.9171 8.0886 20.017 7.5348C20.0551 7.3239 20.1163 7.1403 20.2231 6.9939C20.3224 6.8577 20.4622 6.7569 20.6533 6.6927C20.8063 6.6417 21.4135 6.5715 21.7747 6.4515C21.9616 6.3891 22.0978 6.3021 22.1632 6.2214C22.4593 5.8563 22.5553 5.4534 22.6312 5.0985C22.675 4.8909 22.6912 4.7016 22.8085 4.5885C22.8625 4.5369 22.9435 4.5165 23.0587 4.5111C23.218 4.5039 23.4232 4.5321 23.6908 4.5969Z" fill="#1F3B96"/>
<path fill-rule="evenodd" clip-rule="evenodd" d="M19.2088 9.25886C19.2901 9.18387 19.3939 9.11966 19.5178 9.06386C19.6402 9.00806 19.7809 8.96186 19.9402 8.92286C19.9785 8.91349 20.0146 8.89666 20.0464 8.87334C20.0782 8.85003 20.1051 8.82068 20.1255 8.78697C20.146 8.75326 20.1596 8.71586 20.1656 8.67689C20.1716 8.63792 20.1698 8.59816 20.1604 8.55986C20.1511 8.52157 20.1342 8.4855 20.1109 8.45371C20.0876 8.42192 20.0582 8.39503 20.0245 8.37458C19.9908 8.35414 19.9534 8.34053 19.9145 8.33454C19.8755 8.32855 19.8357 8.33029 19.7974 8.33966C19.552 8.39996 19.3417 8.47646 19.1659 8.56766C19.0195 8.6416 18.8849 8.73717 18.7669 8.85116C18.6322 8.98436 18.5908 9.13946 18.6085 9.30866C18.6226 9.44516 18.6904 9.59846 18.7543 9.74696C18.7714 9.78656 18.7912 9.85076 18.8008 9.88406C18.7588 9.90506 18.7129 9.90116 18.6667 9.89636C18.6007 9.88916 18.5338 9.87326 18.466 9.85796C18.3016 9.82106 18.1351 9.78986 17.9743 9.80786C17.7805 9.82946 17.5903 9.91076 17.4166 10.1238C17.2366 10.3449 17.2036 10.5411 17.227 10.7208C17.248 10.8768 17.3254 11.0241 17.4091 11.1708C17.4601 11.2596 17.5351 11.3442 17.4976 11.457C17.4889 11.484 17.458 11.4891 17.4307 11.502C17.3533 11.538 17.2603 11.5629 17.1643 11.5911C16.9051 11.6673 16.6363 11.7666 16.4524 11.973C16.3093 12.1335 16.207 12.357 16.207 12.6918C16.207 13.215 16.561 13.6956 17.0995 14.0676C17.7055 14.4861 18.5374 14.775 19.1944 14.8737C19.9003 14.9799 22.0357 15.2748 24.3004 14.4108C25.6684 13.8891 27.0844 12.9468 28.2625 11.2869C29.5144 10.7664 30.6379 9.91736 31.5781 8.97296C32.6713 7.87436 33.5164 6.64796 34.0303 5.67146C34.2253 5.30126 34.4254 4.66586 34.4092 4.08056C34.3975 3.64796 34.2676 3.24446 33.9718 2.96216C33.7618 2.76146 33.5707 2.66006 33.3928 2.60996C33.1759 2.54906 32.9746 2.56526 32.7673 2.59736C32.5816 2.62646 32.3887 2.67596 32.1523 2.60636C32.0695 2.58236 32.0053 2.49896 31.9282 2.41466C31.7668 2.23766 31.594 2.02886 31.3798 1.88666C31.2007 1.76696 30.9952 1.68896 30.7504 1.68896C30.4936 1.68896 30.3328 1.78046 30.2149 1.91186C30.1075 2.03216 30.0424 2.20286 29.9797 2.39126C29.917 2.57876 29.8552 2.80166 29.563 2.89256C29.4961 2.91356 29.4079 2.89166 29.311 2.87186C29.113 2.83166 28.8952 2.76536 28.705 2.73596C28.5781 2.71646 28.4605 2.71256 28.36 2.72846C28.276 2.74196 28.1629 2.78546 28.0276 2.87396C27.9019 2.95646 27.7444 3.08336 27.5566 3.25676C27.499 3.31093 27.4651 3.38564 27.4623 3.46466C27.4595 3.54368 27.488 3.62062 27.5416 3.67873C27.5952 3.73685 27.6696 3.77146 27.7486 3.77502C27.8276 3.77858 27.9048 3.75082 27.9634 3.69776C28.069 3.60026 28.1632 3.51926 28.246 3.45536C28.3402 3.38246 28.4044 3.32936 28.4545 3.32096C28.5355 3.30806 28.636 3.33026 28.7434 3.35396C28.9513 3.39986 29.1757 3.46646 29.3662 3.48896C29.5075 3.50516 29.6353 3.49826 29.7406 3.46586C30.0169 3.37976 30.1918 3.23576 30.3145 3.07166C30.4363 2.90876 30.502 2.72216 30.5599 2.54816C30.5803 2.48696 30.5995 2.42816 30.6238 2.37566C30.6466 2.32676 30.6778 2.28896 30.7504 2.28896C30.8662 2.28896 30.9625 2.32916 31.0474 2.38556C31.2592 2.52686 31.4149 2.75276 31.573 2.91176C31.7041 3.04406 31.8403 3.14006 31.9825 3.18176C32.2264 3.25376 32.4388 3.24926 32.6383 3.22376C32.8045 3.20276 32.9578 3.16016 33.1183 3.16916C33.2536 3.17696 33.3913 3.23696 33.5575 3.39596V3.39626C33.7906 3.61856 33.8305 3.96956 33.8035 4.31516C33.7717 4.72526 33.634 5.13596 33.4993 5.39216C33.0076 6.32606 32.1988 7.49876 31.1527 8.54966C30.2482 9.45866 29.1658 10.2777 27.9556 10.7643C27.9015 10.786 27.8548 10.8231 27.8215 10.8711C26.7148 12.459 25.3789 13.3572 24.0865 13.8501C21.9565 14.6631 19.9477 14.3805 19.2835 14.2803C18.706 14.1936 17.9731 13.9419 17.4406 13.5741C17.0839 13.3275 16.807 13.0383 16.807 12.6921C16.807 12.4896 16.8736 12.3741 16.981 12.3051C17.1922 12.1689 17.476 12.1401 17.6728 12.0507C17.8669 11.9628 18.0052 11.8347 18.0676 11.6448C18.1186 11.4894 18.1156 11.3478 18.0811 11.214C18.0484 11.0865 17.9836 10.9668 17.917 10.8501C17.8564 10.7442 17.7679 10.6425 17.8819 10.5027C17.9329 10.4406 17.9845 10.4106 18.0409 10.404C18.2089 10.3854 18.3835 10.4619 18.5515 10.4865C18.7585 10.5165 18.9568 10.4988 19.1407 10.38C19.3138 10.2681 19.3837 10.1283 19.4026 9.97976C19.4221 9.82466 19.3642 9.64286 19.2856 9.46466C19.2655 9.41816 19.2445 9.37196 19.2277 9.32666C19.2201 9.30445 19.2138 9.28181 19.2088 9.25886Z" fill="#1F3B96"/>
<path fill-rule="evenodd" clip-rule="evenodd" d="M26.5475 6.88567C27.1304 7.74367 27.5213 8.53417 27.7157 9.26047C27.8606 9.80347 27.8948 10.3075 27.8132 10.7734C27.4532 10.8598 27.0176 10.7257 26.498 10.4155C25.913 10.066 25.2413 9.49177 24.4811 8.69647C24.4253 8.64279 24.3508 8.61276 24.2734 8.61265C24.196 8.61253 24.1215 8.64234 24.0655 8.69585C24.0095 8.74936 23.9763 8.82243 23.9729 8.89981C23.9696 8.97718 23.9962 9.05287 24.0473 9.11107C25.0463 10.156 25.9079 10.8352 26.6243 11.1592C27.2366 11.4361 27.7595 11.4631 28.1906 11.278C28.2776 11.2405 28.3421 11.164 28.364 11.0716C28.5062 10.4725 28.4855 9.81697 28.2953 9.10537C28.0862 8.32387 27.6707 7.47097 27.0437 6.54847C27.0218 6.51524 26.9936 6.48668 26.9606 6.46447C26.9276 6.44226 26.8905 6.42683 26.8515 6.41908C26.8125 6.41133 26.7723 6.41142 26.7333 6.41933C26.6943 6.42725 26.6573 6.44284 26.6244 6.4652C26.5915 6.48756 26.5634 6.51624 26.5417 6.54956C26.52 6.58289 26.5051 6.6202 26.4979 6.65933C26.4908 6.69846 26.4915 6.73862 26.5 6.77747C26.5085 6.81633 26.5246 6.85311 26.5475 6.88567Z" fill="#1F3B96"/>
<path fill-rule="evenodd" clip-rule="evenodd" d="M30.4281 5.66523C30.4281 6.73653 30.2223 7.69473 29.8071 8.53953C29.3847 9.39753 28.7466 10.1367 27.8946 10.7601C27.8747 10.7749 27.8567 10.792 27.8409 10.8111C27.1617 11.6295 26.2983 12.1452 25.2507 12.3579C24.3417 12.5421 23.2977 12.5007 22.1187 12.24C22.0803 12.2315 22.0405 12.2307 22.0017 12.2375C21.9629 12.2444 21.9258 12.2588 21.8926 12.28C21.8594 12.3012 21.8307 12.3287 21.8081 12.361C21.7855 12.3933 21.7695 12.4297 21.761 12.4682C21.7525 12.5067 21.7516 12.5464 21.7585 12.5852C21.7653 12.624 21.7798 12.6611 21.801 12.6943C21.8222 12.7275 21.8497 12.7563 21.882 12.7788C21.9142 12.8014 21.9507 12.8174 21.9891 12.8259C23.262 13.1073 24.3891 13.1448 25.3701 12.9459C26.544 12.7077 27.5136 12.1329 28.2789 11.2221C29.199 10.5426 29.8869 9.73593 30.345 8.80443C30.7992 7.88163 31.0281 6.83553 31.0281 5.66523C31.0281 5.58567 30.9965 5.50936 30.9403 5.4531C30.884 5.39684 30.8077 5.36523 30.7281 5.36523C30.6486 5.36523 30.5723 5.39684 30.516 5.4531C30.4597 5.50936 30.4281 5.58567 30.4281 5.66523Z" fill="#1F3B96"/>
</svg>
