<svg width="18" height="18" viewBox="0 0 18 18" fill="none" xmlns="http://www.w3.org/2000/svg">
<g clip-path="url(#clip0_5294_1638)">
<path d="M17.1562 5.0625C16.5319 5.0625 15.9862 5.40281 15.6966 5.90906C14.7909 5.93719 14.0625 6.6825 14.0625 7.59375V10.7859C13.4831 10.6791 12.8644 10.8225 12.3891 11.2275L10.3472 12.9769C10.1007 13.1878 9.90292 13.4496 9.76744 13.7443C9.63197 14.0391 9.56205 14.3597 9.5625 14.6841V17.1534C9.5625 17.3081 9.68906 17.4347 9.84375 17.4347C9.99844 17.4347 10.125 17.3081 10.125 17.1534V14.6841C10.125 14.1919 10.3387 13.7222 10.7128 13.4016L12.7547 11.6522C12.9897 11.4524 13.2825 11.3331 13.5903 11.3119C13.898 11.2906 14.2044 11.3685 14.4647 11.5341L12.7519 13.0022C12.7238 13.0262 12.7007 13.0555 12.684 13.0884C12.6672 13.1213 12.6571 13.1572 12.6543 13.1941C12.6514 13.2309 12.6558 13.2679 12.6672 13.303C12.6787 13.3382 12.6969 13.3707 12.7209 13.3988C12.7449 13.4268 12.7742 13.4499 12.8072 13.4666C12.8401 13.4834 12.876 13.4935 12.9128 13.4964C12.9496 13.4992 12.9867 13.4948 13.0218 13.4834C13.0569 13.4719 13.0894 13.4537 13.1175 13.4297L15.0863 11.7422C15.1159 11.717 15.1399 11.686 15.157 11.651C15.174 11.6161 15.1836 11.578 15.1852 11.5392C15.1868 11.5003 15.1803 11.4616 15.1662 11.4254C15.1521 11.3892 15.1306 11.3563 15.1031 11.3287C15.0514 11.278 14.997 11.2301 14.94 11.1853L15.6347 10.5891C15.885 10.3753 16.0284 10.0631 16.0284 9.73687V6.75C16.0284 6.22687 16.3884 5.78531 16.8722 5.66156V10.9153C16.8722 11.4047 16.6612 11.8687 16.29 12.1894L12.7519 15.2578C12.69 15.3112 12.6562 15.39 12.6562 15.4716V17.1591C12.6562 17.3137 12.7828 17.4403 12.9375 17.4403C13.0922 17.4403 13.2188 17.3137 13.2188 17.1591V15.6009L16.6613 12.6169C16.9047 12.4058 17.1 12.1449 17.234 11.8518C17.3679 11.5588 17.4373 11.2403 17.4375 10.9181V5.34938C17.4375 5.19469 17.3109 5.06813 17.1562 5.06813V5.0625ZM15.4688 9.73687C15.4688 9.9 15.3984 10.0575 15.2719 10.1644L14.625 10.7212V7.59375C14.625 7.07062 14.985 6.62906 15.4688 6.50531V9.73969V9.73687ZM7.65281 12.9769L5.61094 11.2275C5.13563 10.8225 4.51688 10.6791 3.9375 10.7859V7.59375C3.9375 6.6825 3.20906 5.93719 2.30344 5.90906C2.15616 5.65197 1.94363 5.43831 1.68733 5.28967C1.43103 5.14102 1.14004 5.06266 0.84375 5.0625C0.689062 5.0625 0.5625 5.18906 0.5625 5.34375V10.9125C0.5625 11.565 0.846563 12.1837 1.33875 12.6141L4.78125 15.5981V17.1562C4.78125 17.3109 4.90781 17.4375 5.0625 17.4375C5.21719 17.4375 5.34375 17.3109 5.34375 17.1562V15.4688C5.34375 15.3872 5.30719 15.3084 5.24813 15.255L1.71 12.1866C1.52674 12.0282 1.37985 11.8321 1.27937 11.6117C1.17889 11.3914 1.12719 11.1519 1.12781 10.9097V5.65594C1.61156 5.7825 1.97156 6.22125 1.97156 6.74437V9.73125C1.97156 10.0603 2.115 10.3697 2.3625 10.5834L3.05719 11.1797C3.00094 11.2247 2.9475 11.2725 2.89406 11.3231C2.83781 11.3794 2.80969 11.4553 2.8125 11.5341C2.81531 11.6128 2.85188 11.6859 2.91094 11.7366L4.87969 13.4241C4.90776 13.4481 4.94028 13.4663 4.9754 13.4778C5.01052 13.4892 5.04755 13.4936 5.08438 13.4907C5.1212 13.4879 5.1571 13.4778 5.19002 13.461C5.22294 13.4443 5.25224 13.4212 5.27625 13.3931C5.30026 13.3651 5.3185 13.3325 5.32994 13.2974C5.34138 13.2623 5.34578 13.2253 5.34291 13.1884C5.34004 13.1516 5.32994 13.1157 5.3132 13.0828C5.29645 13.0499 5.27338 13.0206 5.24531 12.9966L3.5325 11.5284C3.79275 11.3629 4.0992 11.285 4.40693 11.3063C4.71466 11.3275 5.00749 11.4468 5.2425 11.6466L7.28437 13.3959C7.46924 13.5545 7.61752 13.7513 7.71899 13.9727C7.82047 14.1941 7.87274 14.4349 7.87219 14.6784V17.1478C7.87219 17.3025 7.99875 17.4291 8.15344 17.4291C8.30813 17.4291 8.43469 17.3025 8.43469 17.1478V14.6784C8.43469 14.0203 8.14781 13.3988 7.65 12.9684L7.65281 12.9769ZM2.53125 9.73687V6.5025C3.015 6.62906 3.375 7.06781 3.375 7.59094V10.7184L2.72812 10.1616C2.60437 10.0547 2.53125 9.9 2.53125 9.73406V9.73687ZM11.1656 10.125C11.2402 10.1245 11.3137 10.1074 11.3808 10.0749C11.448 10.0424 11.507 9.99534 11.5536 9.93713C11.6002 9.87893 11.6333 9.81105 11.6503 9.73846C11.6674 9.66586 11.668 9.59037 11.6522 9.5175L11.2022 7.34906L12.7772 5.86406C12.9234 5.72625 12.9741 5.52375 12.9094 5.33531C12.8795 5.24389 12.8237 5.1631 12.7488 5.10271C12.6739 5.04231 12.5832 5.0049 12.4875 4.995L10.3528 4.76719L9.45 2.82094C9.36844 2.64094 9.19406 2.53125 8.99719 2.53125C8.80031 2.53125 8.62594 2.64375 8.54437 2.82094L7.64156 4.76719L5.50688 4.995C5.31 5.01469 5.14969 5.14687 5.085 5.33531C5.02031 5.52375 5.07094 5.72906 5.21719 5.86406L6.79219 7.34906L6.34219 9.5175C6.30281 9.71438 6.38156 9.91687 6.54187 10.0322C6.705 10.1475 6.91313 10.1559 7.08469 10.0547L8.99438 8.91563L10.9041 10.0547C10.9828 10.1025 11.0728 10.125 11.16 10.125H11.1656ZM8.74687 8.40937L6.92719 9.495L7.35469 7.43062C7.39125 7.25906 7.335 7.07906 7.20844 6.96094L5.70094 5.54063L7.74281 5.32125C7.82836 5.31157 7.90999 5.28011 7.97991 5.22989C8.04983 5.17967 8.1057 5.11235 8.14219 5.03437L9.00281 3.18094L9.86344 5.03437C9.93656 5.19187 10.0913 5.30438 10.2628 5.32125L12.3047 5.54063L10.7972 6.96094C10.6706 7.07906 10.6144 7.26188 10.6509 7.43062L11.0784 9.495L9.25875 8.40937C9.10125 8.31375 8.90438 8.31656 8.74687 8.40937ZM9 1.96875C9.15469 1.96875 9.28125 1.84219 9.28125 1.6875V0.84375C9.28125 0.689062 9.15469 0.5625 9 0.5625C8.84531 0.5625 8.71875 0.689062 8.71875 0.84375V1.6875C8.71875 1.84219 8.84531 1.96875 9 1.96875ZM11.5312 2.53125C11.6044 2.53125 11.6747 2.50312 11.7309 2.44969L12.2934 1.88719C12.346 1.8346 12.3756 1.76328 12.3756 1.68891C12.3756 1.61454 12.346 1.54321 12.2934 1.49063C12.2408 1.43804 12.1695 1.40849 12.0952 1.40849C12.0208 1.40849 11.9495 1.43804 11.8969 1.49063L11.3344 2.05313C11.2951 2.0924 11.2684 2.14246 11.2577 2.19693C11.247 2.25141 11.2526 2.30785 11.274 2.35909C11.2954 2.41032 11.3316 2.45404 11.3779 2.4847C11.4242 2.51535 11.4785 2.53155 11.5341 2.53125H11.5312ZM12.9375 4.21875C12.9656 4.21875 12.9966 4.21312 13.0275 4.20469L13.8713 3.92344C14.0175 3.87562 14.0991 3.71531 14.0484 3.56625C14.0369 3.53126 14.0186 3.49889 13.9945 3.47101C13.9705 3.44314 13.9411 3.4203 13.9082 3.40383C13.8752 3.38736 13.8393 3.37757 13.8026 3.37504C13.7658 3.3725 13.729 3.37727 13.6941 3.38906L12.8503 3.67031C12.7041 3.71813 12.6225 3.87844 12.6731 4.0275C12.7125 4.14562 12.8222 4.21875 12.9403 4.21875H12.9375ZM6.26906 2.44969C6.32531 2.50594 6.39563 2.53125 6.46875 2.53125C6.54187 2.53125 6.61219 2.50312 6.66844 2.44969C6.69451 2.42367 6.7152 2.39276 6.72931 2.35874C6.74342 2.32471 6.75069 2.28824 6.75069 2.25141C6.75069 2.21457 6.74342 2.1781 6.72931 2.14407C6.7152 2.11005 6.69451 2.07914 6.66844 2.05313L6.10594 1.49063C6.0799 1.46459 6.04899 1.44393 6.01497 1.42984C5.98094 1.41575 5.94448 1.40849 5.90766 1.40849C5.87083 1.40849 5.83437 1.41575 5.80035 1.42984C5.76633 1.44393 5.73541 1.46459 5.70937 1.49063C5.68334 1.51666 5.66268 1.54758 5.64859 1.5816C5.6345 1.61562 5.62724 1.65208 5.62724 1.68891C5.62724 1.72573 5.6345 1.76219 5.64859 1.79622C5.66268 1.83024 5.68334 1.86115 5.70937 1.88719L6.27187 2.44969H6.26906ZM4.12875 3.92344L4.9725 4.20469C5.04338 4.22798 5.12057 4.22245 5.1874 4.18929C5.25424 4.15614 5.30535 4.09802 5.32969 4.0275C5.3775 3.88125 5.29875 3.72094 5.1525 3.67031L4.30875 3.38906C4.15969 3.33844 4.00219 3.42 3.95438 3.56625C3.90656 3.7125 3.98531 3.87281 4.13156 3.92344H4.12875Z" fill="#4A4A4A"/>
</g>
<defs>
<clipPath id="clip0_5294_1638">
<rect width="18" height="18" fill="white"/>
</clipPath>
</defs>
</svg>
