<svg width="20" height="20" viewBox="0 0 20 20" fill="none" xmlns="http://www.w3.org/2000/svg">
<path d="M1.66675 11.6671L1.66676 11.2503C1.66676 8.50043 1.66676 7.12553 2.52103 6.27126C3.37531 5.41699 4.75023 5.41699 7.50009 5.41699H12.501C15.2505 5.41699 16.6252 5.41699 17.4795 6.27109C18.3337 7.12518 18.334 8.49993 18.3344 11.2493L18.3345 11.6663C18.335 14.4166 18.3352 15.7918 17.4809 16.6462C16.6265 17.5007 15.2514 17.5006 12.501 17.5006L7.49996 17.5004C4.75014 17.5004 3.37524 17.5003 2.52099 16.6461C1.66674 15.7918 1.66675 14.4169 1.66675 11.6671Z" stroke="#5B5F5F" stroke-width="1.25" stroke-linecap="round" stroke-linejoin="round"/>
<path d="M7.08325 5.41667C7.08325 4.24628 7.08325 3.66108 7.36414 3.24072C7.48574 3.05873 7.64199 2.90248 7.82397 2.78088C8.24434 2.5 8.82955 2.5 9.99989 2.5C11.1703 2.5 11.7555 2.5 12.1759 2.78088C12.3579 2.90248 12.5141 3.05873 12.6357 3.24072C12.9166 3.66108 12.9166 4.24628 12.9166 5.41667" stroke="#5B5F5F" stroke-width="1.25" stroke-linecap="round" stroke-linejoin="round"/>
<path d="M5 8.75H15" stroke="#5B5F5F" stroke-width="1.25" stroke-linecap="round" stroke-linejoin="round"/>
</svg>
