<svg width="24" height="24" viewBox="0 0 24 24" fill="none" xmlns="http://www.w3.org/2000/svg">
<path d="M2.0003 8.5L1.99814 13.997C1.99685 17.2979 1.9962 18.9484 3.02138 19.974C4.04657 20.9996 5.69704 20.9996 8.99798 20.9997L14.999 20.9998C18.2984 20.9999 19.948 21 20.9731 19.9751C21.9982 18.9502 21.9986 17.3005 21.9992 14.0012L22.0003 8.5" stroke="#141B34" stroke-width="1.5" stroke-linecap="round" stroke-linejoin="round"/>
<path d="M8.49805 6.5C8.49805 5.09554 8.49805 4.39331 8.83511 3.88886C8.98102 3.67048 9.16852 3.48298 9.38691 3.33706C9.89135 3 10.5936 3 11.9981 3C13.4025 3 14.1048 3 14.6092 3.33706C14.8276 3.48298 15.0151 3.67048 15.161 3.88886C15.4981 4.39331 15.4981 5.09554 15.4981 6.5" stroke="#141B34" stroke-width="1.5" stroke-linecap="round" stroke-linejoin="round"/>
<path d="M19.9974 6.50016L3.99824 6.5C2.89379 6.50007 1.99815 7.39568 1.99805 8.50013C1.99815 10.7091 3.78944 12.5004 5.9984 12.5006H17.9972C20.2062 12.5005 21.9974 10.7093 21.9975 8.5003C21.9974 7.39582 21.1018 6.50023 19.9974 6.50016Z" stroke="#141B34" stroke-width="1.5" stroke-linecap="round" stroke-linejoin="round"/>
<path d="M9.99805 12.5V13.5C9.99805 13.965 9.99805 14.1975 10.0492 14.3882C10.1879 14.9059 10.5922 15.3102 11.1098 15.4489C11.3006 15.5 11.5331 15.5 11.9981 15.5C12.4631 15.5 12.6955 15.5 12.8863 15.4489C13.4039 15.3102 13.8083 14.9059 13.947 14.3882C13.9981 14.1975 13.9981 13.965 13.9981 13.5V12.5" stroke="#141B34" stroke-width="1.5" stroke-linecap="round" stroke-linejoin="round"/>
</svg>
