<svg width="20" height="20" viewBox="0 0 20 20" fill="none" xmlns="http://www.w3.org/2000/svg">
<path d="M10 1.66663H5C2.93167 1.66663 2.5 2.09829 2.5 4.16663V18.3333H12.5V4.16663C12.5 2.09829 12.0683 1.66663 10 1.66663Z" stroke="#1570EF" stroke-width="1.25" stroke-linejoin="round"/>
<path d="M15 6.66663H12.5V18.3333H17.5V9.16663C17.5 7.09829 17.0683 6.66663 15 6.66663Z" stroke="#1570EF" stroke-width="1.25" stroke-linejoin="round"/>
<path d="M6.6665 5H8.33317M6.6665 7.5H8.33317M6.6665 10H8.33317" stroke="#1570EF" stroke-width="1.25" stroke-linecap="round" stroke-linejoin="round"/>
<path d="M9.58317 18.3334V15C9.58317 14.2144 9.58317 13.8215 9.33909 13.5775C9.095 13.3334 8.70217 13.3334 7.9165 13.3334H7.08317C6.2975 13.3334 5.90466 13.3334 5.66058 13.5775C5.4165 13.8215 5.4165 14.2144 5.4165 15V18.3334" stroke="#1570EF" stroke-width="1.25" stroke-linejoin="round"/>
</svg>
