<svg width="24" height="24" viewBox="0 0 24 24" fill="none" xmlns="http://www.w3.org/2000/svg">
<g clip-path="url(#clip0_5294_1474)">
<path d="M21 2.25H17.25V1.5C17.25 1.30109 17.171 1.11032 17.0303 0.96967C16.8897 0.829018 16.6989 0.75 16.5 0.75C16.3011 0.75 16.1103 0.829018 15.9697 0.96967C15.829 1.11032 15.75 1.30109 15.75 1.5V2.25H8.25V1.5C8.25 1.30109 8.17098 1.11032 8.03033 0.96967C7.88968 0.829018 7.69891 0.75 7.5 0.75C7.30109 0.75 7.11032 0.829018 6.96967 0.96967C6.82902 1.11032 6.75 1.30109 6.75 1.5V2.25H3C2.40345 2.2506 1.8315 2.48784 1.40967 2.90967C0.98784 3.3315 0.750596 3.90345 0.75 4.5V21C0.750596 21.5966 0.98784 22.1685 1.40967 22.5903C1.8315 23.0122 2.40345 23.2494 3 23.25H21C21.5966 23.2494 22.1685 23.0122 22.5903 22.5903C23.0122 22.1685 23.2494 21.5966 23.25 21V4.5C23.2494 3.90345 23.0122 3.3315 22.5903 2.90967C22.1685 2.48784 21.5966 2.2506 21 2.25ZM3 3.75H6.75V5.25C6.55109 5.25 6.36032 5.32902 6.21967 5.46967C6.07902 5.61032 6 5.80109 6 6C6 6.19891 6.07902 6.38968 6.21967 6.53033C6.36032 6.67098 6.55109 6.75 6.75 6.75H8.25C8.44891 6.75 8.63968 6.67098 8.78033 6.53033C8.92098 6.38968 9 6.19891 9 6C9 5.80109 8.92098 5.61032 8.78033 5.46967C8.63968 5.32902 8.44891 5.25 8.25 5.25V3.75H15.75V5.25C15.5511 5.25 15.3603 5.32902 15.2197 5.46967C15.079 5.61032 15 5.80109 15 6C15 6.19891 15.079 6.38968 15.2197 6.53033C15.3603 6.67098 15.5511 6.75 15.75 6.75H17.25C17.4489 6.75 17.6397 6.67098 17.7803 6.53033C17.921 6.38968 18 6.19891 18 6C18 5.80109 17.921 5.61032 17.7803 5.46967C17.6397 5.32902 17.4489 5.25 17.25 5.25V3.75H21C21.1989 3.7502 21.3895 3.82928 21.5301 3.96989C21.6707 4.1105 21.7498 4.30115 21.75 4.5V8.25H2.25V4.5C2.2502 4.30115 2.32928 4.1105 2.46989 3.96989C2.6105 3.82928 2.80115 3.7502 3 3.75ZM21 21.75H3C2.80115 21.7498 2.6105 21.6707 2.46989 21.5301C2.32928 21.3895 2.2502 21.1989 2.25 21V9.75H21.75V21C21.7498 21.1989 21.6707 21.3895 21.5301 21.5301C21.3895 21.6707 21.1989 21.7498 21 21.75Z" fill="white"/>
<path d="M14.4246 13.0201L11.1995 16.8893L9.5308 15.2198C9.38935 15.0832 9.1999 15.0076 9.00325 15.0093C8.8066 15.011 8.61849 15.0899 8.47944 15.229C8.34038 15.368 8.2615 15.5561 8.25979 15.7528C8.25809 15.9494 8.33368 16.1389 8.4703 16.2803L10.7203 18.5303C10.795 18.6022 10.8835 18.658 10.9804 18.6945C11.0774 18.7311 11.1807 18.7475 11.2842 18.7428C11.3877 18.7381 11.4892 18.7124 11.5824 18.6672C11.6756 18.622 11.7587 18.5584 11.8265 18.4801L15.5765 13.9801C15.6982 13.8267 15.7551 13.6318 15.7351 13.4371C15.715 13.2423 15.6196 13.0631 15.4692 12.9378C15.3188 12.8124 15.1253 12.7509 14.9301 12.7662C14.7349 12.7816 14.5535 12.8727 14.4246 13.0201Z" fill="white"/>
</g>
<defs>
<clipPath id="clip0_5294_1474">
<rect width="24" height="24" fill="white"/>
</clipPath>
</defs>
</svg>
