<svg width="48" height="48" viewBox="0 0 48 48" fill="none" xmlns="http://www.w3.org/2000/svg">
<path d="M0 24C0 10.7452 10.7452 0 24 0C37.2548 0 48 10.7452 48 24C48 37.2548 37.2548 48 24 48C10.7452 48 0 37.2548 0 24Z" fill="#1570EF"/>
<path d="M30 14V16M18 14V16" stroke="white" stroke-width="1.5" stroke-linecap="round" stroke-linejoin="round"/>
<path d="M14.5 24.2432C14.5 19.8859 14.5 17.7073 15.7521 16.3536C17.0042 15 19.0195 15 23.05 15H24.95C28.9805 15 30.9958 15 32.2479 16.3536C33.5 17.7073 33.5 19.8859 33.5 24.2432V24.7568C33.5 29.1141 33.5 31.2927 32.2479 32.6464C30.9958 34 28.9805 34 24.95 34H23.05C19.0195 34 17.0042 34 15.7521 32.6464C14.5 31.2927 14.5 29.1141 14.5 24.7568V24.2432Z" stroke="white" stroke-width="1.5" stroke-linecap="round" stroke-linejoin="round"/>
<path d="M15 20H33" stroke="white" stroke-width="1.5" stroke-linecap="round" stroke-linejoin="round"/>
</svg>
