<svg width="12" height="12" viewBox="0 0 12 12" fill="none" xmlns="http://www.w3.org/2000/svg">
<path d="M2.25 4.75C2.25 6.82105 3.92893 8.5 6 8.5C8.07105 8.5 9.75 6.82105 9.75 4.75C9.75 2.67893 8.07105 1 6 1C3.92893 1 2.25 2.67893 2.25 4.75Z" stroke="#6366F1" stroke-width="0.75" stroke-linecap="round" stroke-linejoin="round"/>
<path d="M4.5 5.08335C4.5 5.08335 4.875 5.08335 5.25 5.75C5.25 5.75 6.4412 4.08334 7.5 3.75" stroke="#6366F1" stroke-width="0.75" stroke-linecap="round" stroke-linejoin="round"/>
<path d="M8.44125 7.5L8.77635 9.10495C8.99165 10.1362 9.0993 10.6517 8.87815 10.8961C8.65705 11.1405 8.273 10.9303 7.50495 10.5099L6.3682 9.88765C6.1867 9.7883 6.09595 9.73865 6 9.73865C5.90405 9.73865 5.8133 9.7883 5.6318 9.88765L4.49504 10.5099C3.72699 10.9303 3.34296 11.1405 3.12183 10.8961C2.9007 10.6517 3.00835 10.1362 3.22366 9.10495L3.55876 7.5" stroke="#6366F1" stroke-width="0.75" stroke-linejoin="round"/>
</svg>
