<svg width="16" height="16" viewBox="0 0 16 16" fill="none" xmlns="http://www.w3.org/2000/svg">
<path d="M11.6517 6.00737C11.6566 6.00735 11.6616 6.00734 11.6666 6.00734C13.3235 6.00734 14.6666 7.35293 14.6666 9.01287C14.6666 10.5599 13.5 11.8339 12 12M11.6517 6.00737C11.6616 5.89737 11.6666 5.78597 11.6666 5.67339C11.6666 3.64463 10.025 2 7.99998 2C6.08214 2 4.5082 3.47511 4.34693 5.35461M11.6517 6.00737C11.5835 6.76507 11.2857 7.4564 10.8285 8.011M4.34693 5.35461C2.65597 5.51582 1.33331 6.9426 1.33331 8.67887C1.33331 10.2945 2.47849 11.6421 3.99998 11.9515M4.34693 5.35461C4.45215 5.34458 4.5588 5.33945 4.66665 5.33945C5.41719 5.33945 6.10981 5.58796 6.66698 6.00734" stroke="white" stroke-width="1.2" stroke-linecap="round" stroke-linejoin="round"/>
<path d="M7.99998 8.6665V13.9998M7.99998 8.6665C7.53318 8.6665 6.661 9.99604 6.33331 10.3332M7.99998 8.6665C8.46678 8.6665 9.33898 9.99604 9.66665 10.3332" stroke="white" stroke-width="1.2" stroke-linecap="round" stroke-linejoin="round"/>
</svg>
