<svg width="20" height="20" viewBox="0 0 20 20" fill="none" xmlns="http://www.w3.org/2000/svg">
<path d="M10.4165 16.6663H8.74984C5.61769 16.6663 4.05162 16.6663 3.00605 15.8406C2.83882 15.7085 2.68416 15.563 2.54384 15.4056C1.6665 14.4215 1.6665 12.9476 1.6665 9.99967C1.6665 7.05177 1.6665 5.57782 2.54384 4.59376C2.68416 4.43636 2.83882 4.2908 3.00605 4.15873C4.05162 3.33301 5.61769 3.33301 8.74984 3.33301H11.2498C14.382 3.33301 15.9481 3.33301 16.9936 4.15873C17.1609 4.2908 17.3155 4.43636 17.4558 4.59376C18.1993 5.42766 18.3127 6.61336 18.3301 8.74967" stroke="#1570EF" stroke-width="1.5" stroke-linecap="round" stroke-linejoin="round"/>
<path d="M15.4167 16.6663L15.4167 10.833M12.5 13.7497H18.3333" stroke="#1570EF" stroke-width="1.5" stroke-linecap="round"/>
<path d="M1.6665 7.5H18.3332" stroke="#1570EF" stroke-width="1.5" stroke-linejoin="round"/>
</svg>
