<svg width="15" height="19" viewBox="0 0 15 19" fill="none" xmlns="http://www.w3.org/2000/svg">
<path d="M8.25 1.16679V1.58346C8.25 3.94048 8.25 5.11899 8.98225 5.85122C9.7145 6.58346 10.893 6.58346 13.25 6.58346H13.6667M14.0833 7.96421V10.7501C14.0833 13.8928 14.0833 15.4642 13.107 16.4405C12.1307 17.4168 10.5593 17.4168 7.41667 17.4168C4.27397 17.4168 2.70262 17.4168 1.72631 16.4405C0.75 15.4642 0.75 13.8928 0.75 10.7501V6.96332C0.75 4.25914 0.75 2.90705 1.48839 1.99123C1.63757 1.80621 1.80609 1.63769 1.99111 1.48851C2.90692 0.750122 4.25902 0.750122 6.96317 0.750122C7.55117 0.750122 7.84508 0.750122 8.11433 0.84513C8.17033 0.864889 8.22517 0.887622 8.27875 0.913247C8.53633 1.03641 8.74417 1.24429 9.15992 1.66002L13.107 5.60715C13.5887 6.08886 13.8296 6.32972 13.9565 6.63601C14.0833 6.94229 14.0833 7.28291 14.0833 7.96421Z" stroke="#141B34" stroke-width="1.5" stroke-linecap="round" stroke-linejoin="round"/>
</svg>
