<svg width="20" height="20" viewBox="0 0 20 20" fill="none" xmlns="http://www.w3.org/2000/svg">
<path d="M11.5553 3.91409C12.1142 3.30856 12.3936 3.0058 12.6906 2.82919C13.4071 2.40307 14.2893 2.38982 15.0178 2.79424C15.3197 2.96185 15.6077 3.25609 16.1838 3.84457C16.7598 4.43305 17.0479 4.72729 17.212 5.03569C17.6079 5.77984 17.5949 6.68109 17.1777 7.41303C17.0049 7.71637 16.7085 8.00183 16.1157 8.57276L9.06297 15.3657C7.93966 16.4477 7.378 16.9886 6.67605 17.2628C5.97409 17.537 5.2024 17.5168 3.65902 17.4764L3.44903 17.4709C2.97918 17.4587 2.74425 17.4525 2.60769 17.2975C2.47113 17.1426 2.48977 16.9032 2.52706 16.4246L2.54731 16.1647C2.65226 14.8177 2.70473 14.1441 2.96778 13.5387C3.23083 12.9332 3.68458 12.4416 4.59207 11.4584L11.5553 3.91409Z" stroke="#1570EF" stroke-width="1.5" stroke-linejoin="round"/>
<path d="M10.75 4L16 9.25" stroke="#1570EF" stroke-width="1.5" stroke-linejoin="round"/>
<path d="M11.5 17.5L17.5 17.5" stroke="#1570EF" stroke-width="1.5" stroke-linecap="round" stroke-linejoin="round"/>
</svg>
