<svg width="20" height="20" viewBox="0 0 20 20" fill="none" xmlns="http://www.w3.org/2000/svg">
<path d="M3.74877 4.1667C2.66261 4.14843 2.14148 4.36247 1.85253 5.11882C1.67709 5.57806 1.66675 6.08064 1.66675 6.5723V15C1.75661 15.529 1.90668 15.8799 2.28535 16.1668C2.9026 16.6343 3.72271 16.6982 4.48449 16.8361C6.15483 17.1386 7.60773 17.6509 9.99483 18.3333M9.99483 18.3333C12.2055 17.6495 13.7863 17.1751 15.2678 16.9018C16.4527 16.6833 17.9599 16.5359 18.2267 15.3603C18.2967 15.0516 18.3287 14.6644 18.3229 14.1667V7.72186C18.3229 6.46841 18.5124 4.78765 17.369 4.27573C17.0832 4.14778 16.7216 4.12563 16.2409 4.1667M9.99483 18.3333V12.5" stroke="#1570EF" stroke-width="1.25" stroke-linecap="round" stroke-linejoin="round"/>
<path d="M9.99409 9.99996C12.2938 9.99996 14.1582 8.13448 14.1582 5.83329C14.1582 3.53211 12.2938 1.66663 9.99409 1.66663M9.99409 9.99996C7.69439 9.99996 5.83008 8.13448 5.83008 5.83329C5.83008 3.53211 7.69439 1.66663 9.99409 1.66663M9.99409 9.99996C10.9141 9.99996 11.6598 8.13448 11.6598 5.83329C11.6598 3.53211 10.9141 1.66663 9.99409 1.66663M9.99409 9.99996C9.07417 9.99996 8.32851 8.13448 8.32851 5.83329C8.32851 3.53211 9.07417 1.66663 9.99409 1.66663" stroke="#1570EF" stroke-width="1.25" stroke-linecap="round" stroke-linejoin="round"/>
</svg>
