<svg width="20" height="20" viewBox="0 0 20 20" fill="none" xmlns="http://www.w3.org/2000/svg">
<g clip-path="url(#clip0_5294_4979)">
<path d="M10 0C4.48609 0 0 4.48609 0 10C0 15.5139 4.48609 20 10 20C15.5139 20 20 15.5139 20 10C20 4.48609 15.5139 0 10 0ZM10 18.3333C5.40488 18.3333 1.66668 14.5951 1.66668 10C1.66668 5.40488 5.40488 1.66668 10 1.66668C14.5951 1.66668 18.3333 5.40488 18.3333 10C18.3333 14.5951 14.5951 18.3333 10 18.3333Z" fill="white"/>
<path d="M14.8216 4.61901L8.14643 7.96089C8.06579 8.00122 8.0004 8.06661 7.96007 8.14726L4.61819 14.8225C4.57909 14.9007 4.56559 14.9892 4.57961 15.0756C4.59363 15.1619 4.63446 15.2416 4.69632 15.3034C4.73499 15.3421 4.78092 15.3729 4.83147 15.3938C4.88202 15.4147 4.93621 15.4255 4.99093 15.4255C5.05563 15.4256 5.11946 15.4106 5.17729 15.3816L11.8525 12.0397C11.9331 11.9993 11.9985 11.934 12.0389 11.8533L15.3807 5.17812C15.4198 5.09989 15.4333 5.01134 15.4193 4.92501C15.4053 4.83869 15.3645 4.75897 15.3026 4.69714C15.176 4.57019 14.9811 4.53925 14.8216 4.61901ZM9.99944 10.8336C9.54007 10.8336 9.16612 10.4596 9.16612 10.0003C9.16612 9.54089 9.54007 9.16694 9.99944 9.16694C10.4588 9.16694 10.8328 9.54089 10.8328 10.0003C10.8328 10.4596 10.4588 10.8336 9.99944 10.8336Z" fill="white"/>
</g>
<defs>
<clipPath id="clip0_5294_4979">
<rect width="20" height="20" fill="white"/>
</clipPath>
</defs>
</svg>
