<svg width="20" height="20" viewBox="0 0 20 20" fill="none" xmlns="http://www.w3.org/2000/svg">
<path d="M17.158 9.28374C17.386 9.60348 17.5 9.76335 17.5 10C17.5 10.2367 17.386 10.3965 17.158 10.7163C16.1334 12.1529 13.5169 15.25 10 15.25C6.48308 15.25 3.86657 12.1529 2.84203 10.7163C2.61401 10.3965 2.5 10.2367 2.5 10C2.5 9.76335 2.61401 9.60348 2.84203 9.28374C3.86657 7.84708 6.48308 4.75 10 4.75C13.5169 4.75 16.1334 7.84708 17.158 9.28374Z" stroke="#5B5F5F" stroke-width="1.35"/>
<path d="M12.25 10C12.25 8.75739 11.2426 7.75003 10 7.75003C8.75736 7.75003 7.75 8.75739 7.75 10C7.75 11.2427 8.75736 12.25 10 12.25C11.2426 12.25 12.25 11.2427 12.25 10Z" stroke="#5B5F5F" stroke-width="1.35"/>
</svg>
