<svg width="18" height="18" viewBox="0 0 18 18" fill="none" xmlns="http://www.w3.org/2000/svg">
<path d="M12.3991 2.32641L13.5927 1.20169L13.9786 1.61119L12.7849 2.73619L12.3991 2.32641ZM4.02344 1.60725L4.40931 1.19775L5.60294 2.32247L5.21706 2.73197L4.02344 1.60725ZM4.02794 9.0795L5.22156 7.9545L5.60744 8.36429L4.41381 9.489L4.02794 9.0795ZM12.3954 8.35388L12.7813 7.94438L13.9749 9.06938L13.589 9.47888L12.3954 8.35388Z" fill="#4A4A4A"/>
<path d="M3.09375 16.0312V17.1562C3.09375 17.2308 3.12338 17.3024 3.17613 17.3551C3.22887 17.4079 3.30041 17.4375 3.375 17.4375H14.625C14.6996 17.4375 14.7711 17.4079 14.8239 17.3551C14.8766 17.3024 14.9062 17.2308 14.9062 17.1562V16.0312C14.9062 15.9567 14.8766 15.8851 14.8239 15.8324C14.7711 15.7796 14.6996 15.75 14.625 15.75H12.6562V14.9062C12.6562 14.8317 12.6266 14.7601 12.5739 14.7074C12.5211 14.6546 12.4496 14.625 12.375 14.625H10.125V6.46875H14.0625C14.1371 6.46875 14.2086 6.43912 14.2614 6.38637C14.3141 6.33363 14.3438 6.26209 14.3438 6.1875V4.5C14.3438 4.42541 14.3141 4.35387 14.2614 4.30113C14.2086 4.24838 14.1371 4.21875 14.0625 4.21875H10.125V0.84375C10.125 0.769158 10.0954 0.697621 10.0426 0.644876C9.98988 0.592132 9.91834 0.5625 9.84375 0.5625H8.15625C8.08166 0.5625 8.01012 0.592132 7.95738 0.644876C7.90463 0.697621 7.875 0.769158 7.875 0.84375V4.21875H3.9375C3.86291 4.21875 3.79137 4.24838 3.73863 4.30113C3.68588 4.35387 3.65625 4.42541 3.65625 4.5V6.1875C3.65625 6.26209 3.68588 6.33363 3.73863 6.38637C3.79137 6.43912 3.86291 6.46875 3.9375 6.46875H7.875V14.625H5.625C5.55041 14.625 5.47887 14.6546 5.42613 14.7074C5.37338 14.7601 5.34375 14.8317 5.34375 14.9062V15.75H3.375C3.30041 15.75 3.22887 15.7796 3.17613 15.8324C3.12338 15.8851 3.09375 15.9567 3.09375 16.0312ZM8.15625 5.90625H4.21875V4.78125H8.15625C8.23084 4.78125 8.30238 4.75162 8.35512 4.69887C8.40787 4.64613 8.4375 4.57459 8.4375 4.5V1.125H9.5625V4.5C9.5625 4.57459 9.59213 4.64613 9.64488 4.69887C9.69762 4.75162 9.76916 4.78125 9.84375 4.78125H13.7812V5.90625H9.84375C9.76916 5.90625 9.69762 5.93588 9.64488 5.98863C9.59213 6.04137 9.5625 6.11291 9.5625 6.1875V14.625H8.4375V6.1875C8.4375 6.11291 8.40787 6.04137 8.35512 5.98863C8.30238 5.93588 8.23084 5.90625 8.15625 5.90625ZM5.90625 15.1875H12.0938V15.75H5.90625V15.1875ZM3.65625 16.3125H14.3438V16.875H3.65625V16.3125Z" fill="#4A4A4A"/>
</svg>
