<svg width="28" height="28" viewBox="0 0 28 28" fill="none" xmlns="http://www.w3.org/2000/svg">
<mask id="mask0_5294_1607" style="mask-type:luminance" maskUnits="userSpaceOnUse" x="0" y="0" width="28" height="28">
<path d="M27.7998 27.7998V0.200195H0.200195V27.7998H27.7998Z" fill="white" stroke="white" stroke-width="0.4"/>
</mask>
<g mask="url(#mask0_5294_1607)">
<path d="M19.2959 13.3696C19.9693 12.3603 20.3623 11.1479 20.3623 9.84326C20.3621 6.32953 17.5137 3.48097 14 3.48096C10.4863 3.48096 7.63794 6.32952 7.6377 9.84326C7.6377 11.1477 8.02993 12.3604 8.70312 13.3696C8.71179 13.3465 8.7208 13.3234 8.72949 13.3003C9.23944 11.9402 9.91496 10.3936 10.5 9.08154C11.0888 7.76101 11.5793 6.69179 11.7285 6.26514L11.7295 6.26318C11.9968 5.52402 12.6906 5.25978 13.2705 5.42627C13.5596 5.50938 13.8207 5.70007 13.9824 5.98779C13.9888 5.99919 13.9939 6.01129 14 6.02295C14.0061 6.01129 14.0112 5.99919 14.0176 5.98779C14.1793 5.70007 14.4404 5.50938 14.7295 5.42627C15.3094 5.2598 16.0032 5.52402 16.2705 6.26318L16.2715 6.26514C16.4206 6.69175 16.9103 7.76117 17.499 9.08154C18.0841 10.3936 18.7605 11.9402 19.2705 13.3003C19.2792 13.3235 19.2874 13.3468 19.2959 13.3696ZM14 11.9644C14.1981 11.6746 14.5233 11.4718 14.9023 11.439C14.9554 11.4344 15.0072 11.4354 15.0576 11.438L14 7.46533L12.9414 11.438C12.9921 11.4354 13.0443 11.4343 13.0977 11.439C13.4767 11.4718 13.8019 11.6746 14 11.9644Z" fill="#FFF69B" stroke="#1F3B96" stroke-width="0.4"/>
<path d="M20.7812 27.4531L17.323 26.0343C12.1245 23.201 14.6727 19.2574 14.4506 16.8526C14.4031 16.338 14.0477 13.2171 14.0001 12.7024C13.9506 12.1653 14.3644 11.6865 14.9199 11.6384C15.4754 11.5902 15.8049 12.0301 16.0202 12.5274C16.5849 13.8316 17.0773 15.2502 17.3567 16.4402M15.3149 11.6225L14.0925 7.03632C13.7436 5.46729 15.6232 5.0597 16.0828 6.3314C16.3885 7.20563 18.0681 10.6625 19.0833 13.3703C19.8135 15.3179 19.954 15.9095 19.8133 17.9581L19.6646 20.1238L20.7812 20.582" stroke="#1F3B96" stroke-width="0.4" stroke-miterlimit="2.613" stroke-linecap="round" stroke-linejoin="round"/>
<path d="M7.21875 27.4531L10.6769 26.0343C15.8754 23.201 13.3272 19.2574 13.5494 16.8526C13.5969 16.338 13.9523 13.2171 13.9998 12.7024C14.0494 12.1653 13.6355 11.6865 13.08 11.6384C12.5245 11.5902 12.1951 12.0301 11.9797 12.5274C11.4151 13.8316 10.9227 15.2502 10.6432 16.4402M12.6851 11.6225L13.9074 7.03632C14.2563 5.46729 12.3768 5.0597 11.9171 6.3314C11.6115 7.20563 9.93184 10.6625 8.91663 13.3703C8.18639 15.3179 8.04595 15.9095 8.18661 17.9581L8.3353 20.1238L7.21875 20.582" stroke="#1F3B96" stroke-width="0.4" stroke-miterlimit="2.613" stroke-linecap="round" stroke-linejoin="round"/>
<path d="M14 0.546877V1.36719" stroke="#1F3B96" stroke-width="0.4" stroke-miterlimit="22.926" stroke-linecap="round" stroke-linejoin="round"/>
<path d="M9.35156 1.79254L9.76172 2.50293" stroke="#1F3B96" stroke-width="0.4" stroke-miterlimit="22.926" stroke-linecap="round" stroke-linejoin="round"/>
<path d="M5.94922 5.19531L6.65961 5.60547" stroke="#1F3B96" stroke-width="0.4" stroke-miterlimit="22.926" stroke-linecap="round" stroke-linejoin="round"/>
<path d="M4.70312 9.84375H5.52344" stroke="#1F3B96" stroke-width="0.4" stroke-miterlimit="22.926" stroke-linecap="round" stroke-linejoin="round"/>
<path d="M5.94922 14.4922L6.65961 14.082" stroke="#1F3B96" stroke-width="0.4" stroke-miterlimit="22.926" stroke-linecap="round" stroke-linejoin="round"/>
<path d="M22.0522 14.4922L21.3418 14.082" stroke="#1F3B96" stroke-width="0.4" stroke-miterlimit="22.926" stroke-linecap="round" stroke-linejoin="round"/>
<path d="M23.2969 9.84375H22.4766" stroke="#1F3B96" stroke-width="0.4" stroke-miterlimit="22.926" stroke-linecap="round" stroke-linejoin="round"/>
<path d="M22.0522 5.19531L21.3418 5.60547" stroke="#1F3B96" stroke-width="0.4" stroke-miterlimit="22.926" stroke-linecap="round" stroke-linejoin="round"/>
<path d="M18.6484 1.79254L18.2383 2.50293" stroke="#1F3B96" stroke-width="0.4" stroke-miterlimit="22.926" stroke-linecap="round" stroke-linejoin="round"/>
</g>
</svg>
