<svg width="20" height="20" viewBox="0 0 20 20" fill="none" xmlns="http://www.w3.org/2000/svg">
<path fill-rule="evenodd" clip-rule="evenodd" d="M8.24002 8.99994L9.05602 11.3299C9.14354 11.5803 9.32693 11.7856 9.56586 11.9008C9.80478 12.0159 10.0797 12.0315 10.33 11.9439C10.5804 11.8564 10.7857 11.673 10.9009 11.4341C11.016 11.1952 11.0315 10.9203 10.944 10.6699L7.60902 1.14193C7.49212 0.808469 7.2745 0.519562 6.98626 0.315164C6.69801 0.110767 6.35338 0.000976562 6.00002 0.000976562C5.64666 0.000976562 5.30203 0.110767 5.01378 0.315164C4.72553 0.519562 4.50792 0.808469 4.39102 1.14193L1.05602 10.6699C0.968497 10.9203 0.984017 11.1952 1.09916 11.4341C1.21431 11.673 1.41965 11.8564 1.67002 11.9439C1.92038 12.0315 2.19526 12.0159 2.43418 11.9008C2.6731 11.7856 2.8565 11.5803 2.94402 11.3299L3.75902 8.99994H8.24002ZM7.54002 6.99994L6.00002 2.59893L4.46002 6.99994H7.54002ZM15.5 4.99993C16.109 4.99993 16.68 5.15493 17.18 5.42793C17.3014 5.2528 17.4757 5.12109 17.6773 5.05202C17.8789 4.98296 18.0973 4.98017 18.3006 5.04406C18.5038 5.10796 18.6814 5.23518 18.8072 5.40716C18.9331 5.57913 19.0006 5.78684 19 5.99993V10.9999C18.9999 11.2127 18.932 11.4199 18.8061 11.5914C18.6802 11.7629 18.5028 11.8898 18.2998 11.9536C18.0969 12.0174 17.8788 12.0147 17.6774 11.9461C17.4761 11.8775 17.3018 11.7464 17.18 11.5719C16.712 11.8274 16.1918 11.9726 15.6591 11.9964C15.1265 12.0203 14.5954 11.922 14.1065 11.7093C13.6175 11.4966 13.1837 11.1749 12.838 10.7689C12.4923 10.363 12.244 9.88336 12.1119 9.36677C11.9799 8.85017 11.9676 8.31023 12.076 7.78816C12.1845 7.26609 12.4107 6.7757 12.7376 6.35443C13.0645 5.93315 13.4832 5.59212 13.962 5.35737C14.4408 5.12263 14.9668 5.00037 15.5 4.99993ZM15.5 9.99994C15.8978 9.99994 16.2794 9.8419 16.5607 9.5606C16.842 9.27929 17 8.89776 17 8.49994C17 8.10211 16.842 7.72058 16.5607 7.43927C16.2794 7.15797 15.8978 6.99994 15.5 6.99994C15.1022 6.99994 14.7207 7.15797 14.4394 7.43927C14.1581 7.72058 14 8.10211 14 8.49994C14 8.89776 14.1581 9.27929 14.4394 9.5606C14.7207 9.8419 15.1022 9.99994 15.5 9.99994Z" fill="white"/>
<path d="M2 14C1.73478 14 1.48043 14.1054 1.29289 14.2929C1.10536 14.4804 1 14.7348 1 15C1 15.2652 1.10536 15.5196 1.29289 15.7071C1.48043 15.8946 1.73478 16 2 16H18C18.2652 16 18.5196 15.8946 18.7071 15.7071C18.8946 15.5196 19 15.2652 19 15C19 14.7348 18.8946 14.4804 18.7071 14.2929C18.5196 14.1054 18.2652 14 18 14H2ZM2 18C1.73478 18 1.48043 18.1054 1.29289 18.2929C1.10536 18.4804 1 18.7348 1 19C1 19.2652 1.10536 19.5196 1.29289 19.7071C1.48043 19.8946 1.73478 20 2 20H14C14.2652 20 14.5196 19.8946 14.7071 19.7071C14.8946 19.5196 15 19.2652 15 19C15 18.7348 14.8946 18.4804 14.7071 18.2929C14.5196 18.1054 14.2652 18 14 18H2Z" fill="white"/>
</svg>
