<svg width="28" height="28" viewBox="0 0 28 28" fill="none" xmlns="http://www.w3.org/2000/svg">
<path d="M10.6828 24.2335V20.6556C10.6827 19.7456 11.4247 19.0061 12.3439 19H15.711C16.6345 19 17.3833 19.7413 17.3833 20.6556V24.2446C17.3831 25.0172 18.006 25.6487 18.7862 25.6668H21.031C23.2687 25.6668 25.0827 23.871 25.0827 21.6556V11.4776C25.0707 10.6061 24.6574 9.78774 23.9603 9.25537L16.2834 3.13301C14.9384 2.06699 13.0266 2.06699 11.6817 3.13301L4.03838 9.26648C3.33865 9.79669 2.92463 10.6164 2.91602 11.4887V21.6556C2.91602 23.871 4.73004 25.6668 6.96775 25.6668H9.21247C10.0121 25.6668 10.6603 25.0251 10.6603 24.2335" stroke="#0D5593" stroke-width="1.5" stroke-linecap="round" stroke-linejoin="round"/>
</svg>
