<svg width="16" height="16" viewBox="0 0 16 16" fill="none" xmlns="http://www.w3.org/2000/svg">
<path d="M5.66663 12C6.87563 10.6975 9.11129 10.6362 10.3333 12M9.29369 7.99996C9.29369 8.73636 8.71249 9.33329 7.99556 9.33329C7.27863 9.33329 6.69743 8.73636 6.69743 7.99996C6.69743 7.26356 7.27863 6.66663 7.99556 6.66663C8.71249 6.66663 9.29369 7.26356 9.29369 7.99996Z" stroke="#1570EF" stroke-linecap="round"/>
<path d="M6.33337 2.66797C4.57045 2.67454 3.62738 2.73618 3.01679 3.31464C2.33337 3.96208 2.33337 5.00414 2.33337 7.08827V10.2461C2.33337 12.3303 2.33337 13.3723 3.01679 14.0197C3.70021 14.6672 4.80015 14.6672 7.00004 14.6672H9.00004C11.1999 14.6672 12.2998 14.6672 12.9833 14.0197C13.6667 13.3723 13.6667 12.3303 13.6667 10.2461V7.08827C13.6667 5.00414 13.6667 3.96208 12.9833 3.31464C12.3727 2.73618 11.4296 2.67454 9.66671 2.66797" stroke="#1570EF" stroke-linecap="round" stroke-linejoin="round"/>
<path d="M6.51481 2.42113C6.57877 2.14459 6.61076 2.00632 6.67217 1.8934C6.81531 1.63035 7.07924 1.43703 7.39431 1.36451C7.52957 1.33337 7.68644 1.33337 8.00004 1.33337C8.31364 1.33337 8.47051 1.33337 8.60577 1.36451C8.92084 1.43703 9.18477 1.63034 9.32791 1.8934C9.38931 2.00632 9.42131 2.14459 9.48524 2.42113L9.54077 2.66121C9.65424 3.15167 9.71097 3.39689 9.62537 3.58553C9.56997 3.70771 9.47551 3.81232 9.35404 3.88611C9.16644 4.00004 8.88831 4.00004 8.33211 4.00004H7.66797C7.11177 4.00004 6.83364 4.00004 6.64605 3.88611C6.52455 3.81232 6.43011 3.70771 6.37469 3.58553C6.28911 3.39689 6.34583 3.15167 6.45928 2.66121L6.51481 2.42113Z" stroke="#1570EF"/>
</svg>
