<svg width="20" height="20" viewBox="0 0 20 20" fill="none" xmlns="http://www.w3.org/2000/svg">
<g clip-path="url(#clip0_5294_4953)">
<path d="M5.20795 14.6218C3.87385 14.6218 2.68718 13.7676 2.25623 12.4959L2.22709 12.4001C2.12545 12.0633 2.08287 11.7801 2.08287 11.4967V5.81485L0.061178 12.5634C-0.198829 13.556 0.393686 14.5851 1.38781 14.8593L14.2741 18.3103C14.4308 18.3511 14.5921 18.3718 14.7541 18.3719C15.584 18.3719 16.3424 17.8211 16.555 17.0093L17.3058 14.6218H5.20795ZM7.49973 5.87161C8.41897 5.87161 9.16633 5.12405 9.16633 4.20485C9.16633 3.28564 8.41897 2.53809 7.49973 2.53809C6.58048 2.53809 5.83297 3.28568 5.83297 4.20485C5.83297 5.12401 6.58052 5.87161 7.49973 5.87161Z" fill="white"/>
<path d="M17.9157 0.0380859H5.41537C4.26713 0.0380859 3.33203 0.973188 3.33203 2.12158V11.2884C3.33203 12.4368 4.26713 13.3719 5.41537 13.3719H17.9157C19.0641 13.3719 19.9992 12.4368 19.9992 11.2884V2.12158C19.9992 0.973188 19.0641 0.0380859 17.9157 0.0380859ZM5.41537 1.70485H17.9157C18.1458 1.70485 18.3324 1.89149 18.3324 2.12158V8.03755L15.6999 4.96575C15.4207 4.63828 15.0165 4.46324 14.5823 4.45335C14.1507 4.45578 13.7457 4.64742 13.469 4.97915L10.3739 8.69416L9.36551 7.68828C8.79557 7.11834 7.86801 7.11834 7.29881 7.68828L4.99879 9.98756V2.12154C4.99879 1.89145 5.18544 1.70485 5.41537 1.70485Z" fill="white"/>
</g>
<defs>
<clipPath id="clip0_5294_4953">
<rect width="20" height="20" fill="white"/>
</clipPath>
</defs>
</svg>
