<svg width="14" height="14" viewBox="0 0 14 14" fill="none" xmlns="http://www.w3.org/2000/svg">
<path d="M10.034 1.16699H3.96579C3.11543 1.16699 2.36936 1.7414 2.33528 2.56906C2.2924 3.61045 3.0248 4.30195 3.79405 4.95113C4.8582 5.84918 5.39028 6.29823 5.44609 6.86663C5.45482 6.95558 5.45482 7.04507 5.44609 7.13403C5.39028 7.70243 4.85821 8.15148 3.79405 9.04952C3.00362 9.71656 2.29019 10.3367 2.33528 11.4316C2.36936 12.2593 3.11543 12.8337 3.96579 12.8337H10.034C10.8843 12.8337 11.6304 12.2593 11.6645 11.4316C11.6916 10.7726 11.4474 10.1165 10.9287 9.66033C10.6922 9.45231 10.4467 9.25287 10.2057 9.04952C9.14156 8.15148 8.6095 7.70243 8.55367 7.13403C8.54492 7.04507 8.54492 6.95558 8.55367 6.86663C8.6095 6.29823 9.14156 5.84918 10.2057 4.95113C10.9879 4.29108 11.709 3.65088 11.6645 2.56906C11.6304 1.7414 10.8843 1.16699 10.034 1.16699Z" stroke="#A47D06" stroke-width="0.875"/>
<path d="M5.25 12.6219C5.25 12.3641 5.25 12.2352 5.3011 12.1226C5.30921 12.1047 5.31824 12.0872 5.32816 12.0702C5.39059 11.9633 5.49623 11.8878 5.70752 11.7368C6.29446 11.3176 6.58787 11.1079 6.92137 11.0856C6.97375 11.0821 7.02625 11.0821 7.07863 11.0856C7.41212 11.1079 7.70554 11.3176 8.29249 11.7368C8.50377 11.8878 8.60942 11.9633 8.67183 12.0702C8.68175 12.0872 8.69079 12.1047 8.6989 12.1226C8.75 12.2352 8.75 12.3641 8.75 12.6219V12.833H5.25V12.6219Z" stroke="#A47D06" stroke-width="0.875" stroke-linecap="round"/>
</svg>
