<svg width="20" height="20" viewBox="0 0 20 20" fill="none" xmlns="http://www.w3.org/2000/svg">
<path d="M12.9167 9.16667C12.9167 10.7775 11.6109 12.0833 10 12.0833C8.38921 12.0833 7.08337 10.7775 7.08337 9.16667C7.08337 7.55583 8.38921 6.25 10 6.25C11.6109 6.25 12.9167 7.55583 12.9167 9.16667Z" stroke="#1570EF" stroke-width="1.5"/>
<path d="M10 1.66663C14.0588 1.66663 17.5 5.02744 17.5 9.10479C17.5 13.247 14.0027 16.1539 10.7725 18.1305C10.5371 18.2635 10.2708 18.3333 10 18.3333C9.72917 18.3333 9.46292 18.2635 9.2275 18.1305C6.00325 16.1346 2.5 13.2614 2.5 9.10479C2.5 5.02744 5.9412 1.66663 10 1.66663Z" stroke="#1570EF" stroke-width="1.5"/>
</svg>
