<svg width="32" height="32" viewBox="0 0 32 32" fill="none" xmlns="http://www.w3.org/2000/svg">
<rect width="32" height="32" rx="16" fill="#2F3131"/>
<path d="M16 19.75V18.0834" stroke="white" stroke-width="1.25" stroke-linecap="round"/>
<path d="M9.55618 21.7039C9.74358 23.0958 10.8964 24.1862 12.2994 24.2507C13.4799 24.305 14.6791 24.3333 15.9997 24.3333C17.3203 24.3333 18.5194 24.305 19.6999 24.2507C21.1029 24.1862 22.2558 23.0958 22.4432 21.7039C22.5655 20.7956 22.6663 19.8647 22.6663 18.9167C22.6663 17.9687 22.5655 17.0378 22.4432 16.1294C22.2558 14.7375 21.1029 13.6471 19.6999 13.5826C18.5194 13.5283 17.3203 13.5 15.9997 13.5C14.6791 13.5 13.4799 13.5283 12.2994 13.5826C10.8964 13.6471 9.74358 14.7375 9.55618 16.1294C9.43388 17.0378 9.33301 17.9687 9.33301 18.9167C9.33301 19.8647 9.43388 20.7956 9.55618 21.7039Z" stroke="white" stroke-width="1.25"/>
<path d="M12.25 13.5V11.4166C12.25 9.34556 13.9289 7.66663 16 7.66663C17.6328 7.66663 18.9167 8.91663 19.3333 10.1666" stroke="white" stroke-width="1.25" stroke-linecap="round" stroke-linejoin="round"/>
</svg>
