<svg width="18" height="18" viewBox="0 0 18 18" fill="none" xmlns="http://www.w3.org/2000/svg">
<path d="M5.91939 9.98673C5.70799 9.77661 5.42201 9.6587 5.12394 9.65877C4.82587 9.65884 4.53995 9.77688 4.32864 9.98711C4.26518 10.0597 4.2117 10.1404 4.16964 10.2271L3.75002 9.93086V7.87567C3.75002 7.5773 3.63149 7.29115 3.42051 7.08017C3.20954 6.8692 2.92339 6.75067 2.62502 6.75067C2.32665 6.75067 2.0405 6.8692 1.82952 7.08017C1.61854 7.29115 1.50002 7.5773 1.50002 7.87567V11.2726C1.49908 11.4355 1.53389 11.5965 1.60199 11.7444C1.67009 11.8924 1.76982 12.0236 1.89414 12.1287L5.25002 15.167V16.1257C5.25002 16.2251 5.28953 16.3205 5.35985 16.3908C5.43018 16.4612 5.52556 16.5007 5.62502 16.5007C5.72447 16.5007 5.81986 16.4612 5.89018 16.3908C5.96051 16.3205 6.00002 16.2251 6.00002 16.1257V15.0007C6.00005 14.9483 5.98912 14.8965 5.96793 14.8486C5.94675 14.8007 5.91578 14.7578 5.87702 14.7226L2.38558 11.5625C2.34293 11.5272 2.30864 11.4829 2.2852 11.4328C2.26176 11.3827 2.24974 11.3279 2.25002 11.2726V7.87511C2.25002 7.77565 2.28953 7.68027 2.35985 7.60994C2.43018 7.53962 2.52556 7.50011 2.62502 7.50011C2.72447 7.50011 2.81986 7.53962 2.89018 7.60994C2.96051 7.68027 3.00002 7.77565 3.00002 7.87511V10.1251C3 10.1852 3.01444 10.2445 3.04211 10.2979C3.06978 10.3513 3.10987 10.3972 3.15902 10.4319L4.05639 11.0647C4.1009 11.2603 4.1975 11.4402 4.33596 11.5854L5.78533 12.9554C5.85761 13.0238 5.95409 13.0607 6.05355 13.0579C6.15301 13.0551 6.2473 13.013 6.31567 12.9407C6.38405 12.8684 6.42091 12.7719 6.41815 12.6725C6.41539 12.573 6.37324 12.4787 6.30096 12.4104L4.85889 11.0478C4.82448 11.0125 4.79735 10.9709 4.77905 10.9251C4.76075 10.8794 4.75163 10.8305 4.75222 10.7813C4.75282 10.732 4.7631 10.6833 4.7825 10.6381C4.8019 10.5928 4.83002 10.5518 4.86527 10.5174C4.90052 10.4829 4.9422 10.4558 4.98793 10.4375C5.03366 10.4192 5.08255 10.4101 5.13181 10.4107C5.18106 10.4113 5.22972 10.4216 5.275 10.441C5.32028 10.4604 5.3613 10.4885 5.39571 10.5237L7.39014 12.421C7.42509 12.4556 7.45281 12.4967 7.47167 12.5421C7.49054 12.5874 7.50017 12.6361 7.50002 12.6852V16.1255C7.50002 16.2249 7.53953 16.3203 7.60985 16.3906C7.68018 16.461 7.77556 16.5005 7.87502 16.5005C7.97447 16.5005 8.06986 16.461 8.14018 16.3906C8.21051 16.3203 8.25002 16.2249 8.25002 16.1255V12.6852C8.25009 12.5362 8.22045 12.3886 8.16282 12.2511C8.10519 12.1137 8.02074 11.9891 7.91439 11.8846L5.91939 9.98673ZM15.375 6.75048C15.0768 6.75083 14.7908 6.86947 14.5799 7.08037C14.369 7.29127 14.2504 7.57722 14.25 7.87548V9.93104L13.8306 10.2267C13.7884 10.14 13.7349 10.0593 13.6714 9.98673C13.4616 9.77683 13.1773 9.65837 12.8805 9.65718C12.5837 9.65598 12.2985 9.77215 12.087 9.98036L10.0781 11.8917C9.9738 11.9958 9.89108 12.1195 9.83477 12.2557C9.77845 12.3919 9.74965 12.5379 9.75002 12.6852V16.1255C9.75002 16.2249 9.78953 16.3203 9.85985 16.3906C9.93018 16.461 10.0256 16.5005 10.125 16.5005C10.2245 16.5005 10.3199 16.461 10.3902 16.3906C10.4605 16.3203 10.5 16.2249 10.5 16.1255V12.6852C10.4993 12.5895 10.5361 12.4972 10.6026 12.4284L12.6107 10.5177C12.6803 10.4476 12.7747 10.4077 12.8735 10.4068C12.9723 10.4059 13.0675 10.4441 13.1383 10.5129C13.2092 10.5818 13.25 10.6758 13.2519 10.7746C13.2538 10.8734 13.2166 10.9689 13.1485 11.0405L11.6991 12.4105C11.6268 12.4789 11.5847 12.5732 11.582 12.6726C11.5792 12.7721 11.6161 12.8685 11.6845 12.9408C11.7528 13.013 11.8471 13.0552 11.9466 13.0579C12.046 13.0607 12.1425 13.0238 12.2147 12.9554L13.6716 11.578C13.8081 11.4345 13.9029 11.2565 13.9461 11.0632L14.8412 10.4319C14.8903 10.3972 14.9303 10.3513 14.9579 10.298C14.9856 10.2447 15 10.1855 15 10.1255V7.87548C15 7.77603 15.0395 7.68064 15.1099 7.61032C15.1802 7.53999 15.2756 7.50048 15.375 7.50048C15.4745 7.50048 15.5699 7.53999 15.6402 7.61032C15.7105 7.68064 15.75 7.77603 15.75 7.87548V11.2726C15.7496 11.3306 15.7361 11.3878 15.7104 11.4398C15.6848 11.4918 15.6477 11.5374 15.6019 11.573L12.1232 14.7224C12.0844 14.7576 12.0534 14.8005 12.0322 14.8484C12.011 14.8963 12 14.9481 12 15.0005V16.1255C12 16.2249 12.0395 16.3203 12.1099 16.3906C12.1802 16.461 12.2756 16.5005 12.375 16.5005C12.4745 16.5005 12.5699 16.461 12.6402 16.3906C12.7105 16.3203 12.75 16.2249 12.75 16.1255V15.1668L16.0935 12.1396C16.221 12.0341 16.3236 11.9016 16.3939 11.7517C16.4642 11.6019 16.5004 11.4383 16.5 11.2728V7.87529C16.4997 7.57703 16.381 7.29109 16.1701 7.08018C15.9592 6.86928 15.6733 6.75083 15.375 6.75048ZM13.5 4.38611C13.5 3.11579 12.8841 2.07573 11.8931 1.67186C10.968 1.29461 9.90902 1.54586 9.00002 2.33561C8.09027 1.54586 7.03127 1.29461 6.10689 1.67186C5.11596 2.07573 4.50002 3.11579 4.50002 4.38611C4.50002 6.82698 6.75883 8.86323 8.85789 9.72254C8.94901 9.75967 9.05103 9.75967 9.14214 9.72254C11.2412 8.86323 13.5 6.82679 13.5 4.38611ZM9.00002 8.96861C7.16683 8.17098 5.25002 6.42817 5.25002 4.38611C5.25002 3.42667 5.68652 2.65286 6.39039 2.36617C6.57882 2.28978 6.78033 2.25087 6.98364 2.25161C7.56152 2.25161 8.18271 2.55067 8.73189 3.11317C8.80389 3.1826 8.9 3.22139 9.00002 3.22139C9.10003 3.22139 9.19615 3.1826 9.26814 3.11317C10.0121 2.35117 10.8874 2.07142 11.6096 2.36617C12.3135 2.65304 12.75 3.42667 12.75 4.38611C12.75 6.42817 10.8332 8.17098 9.00002 8.96861Z" fill="#4A4A4A"/>
</svg>
