<svg width="24" height="24" viewBox="0 0 24 24" fill="none" xmlns="http://www.w3.org/2000/svg">
<path fill-rule="evenodd" clip-rule="evenodd" d="M2.25 6C2.25 5.586 2.586 5.25 3 5.25H21C21.1989 5.25 21.3897 5.32902 21.5303 5.46967C21.671 5.61032 21.75 5.80109 21.75 6C21.75 6.19891 21.671 6.38968 21.5303 6.53033C21.3897 6.67098 21.1989 6.75 21 6.75H3C2.586 6.75 2.25 6.414 2.25 6ZM2.25 18C2.25 17.586 2.586 17.25 3 17.25H21C21.1989 17.25 21.3897 17.329 21.5303 17.4697C21.671 17.6103 21.75 17.8011 21.75 18C21.75 18.1989 21.671 18.3897 21.5303 18.5303C21.3897 18.671 21.1989 18.75 21 18.75H3C2.586 18.75 2.25 18.414 2.25 18ZM6.2502 12C6.2502 11.586 6.5862 11.25 7.0002 11.25H21C21.1989 11.25 21.3897 11.329 21.5303 11.4697C21.671 11.6103 21.75 11.8011 21.75 12C21.75 12.1989 21.671 12.3897 21.5303 12.5303C21.3897 12.671 21.1989 12.75 21 12.75H7.0002C6.5862 12.75 6.2502 12.414 6.2502 12Z" fill="#4A4A4A"/>
</svg>
