<svg width="20" height="20" viewBox="0 0 20 20" fill="none" xmlns="http://www.w3.org/2000/svg">
<path d="M6.25 11.25H2.5C1.80964 11.25 1.25 11.8096 1.25 12.5V16.25C1.25 16.9404 1.80964 17.5 2.5 17.5H6.25C6.94036 17.5 7.5 16.9404 7.5 16.25V12.5C7.5 11.8096 6.94036 11.25 6.25 11.25Z" fill="white"/>
<path d="M4.375 8.125C4.12872 8.12571 3.88475 8.07745 3.65728 7.98303C3.42981 7.88861 3.22338 7.74991 3.05 7.575L2.425 6.95C2.16311 6.68778 1.9848 6.35384 1.91259 5.99034C1.84038 5.62684 1.8775 5.2501 2.01928 4.90769C2.16106 4.56528 2.40113 4.27257 2.70917 4.06652C3.01721 3.86047 3.3794 3.75033 3.75 3.75C3.89308 3.75084 4.03563 3.76761 4.175 3.8L5.475 2.5H2.5C2.16878 2.50099 1.85142 2.633 1.61721 2.86721C1.383 3.10142 1.25099 3.41878 1.25 3.75V7.5C1.25099 7.83122 1.383 8.14858 1.61721 8.38279C1.85142 8.617 2.16878 8.74901 2.5 8.75H6.25C6.58122 8.74901 6.89858 8.617 7.13279 8.38279C7.367 8.14858 7.49901 7.83122 7.5 7.5V5.775L5.7 7.575C5.52662 7.74991 5.32019 7.88861 5.09272 7.98303C4.86525 8.07745 4.62128 8.12571 4.375 8.125ZM9.375 5H18.125C18.2908 5 18.4497 4.93415 18.5669 4.81694C18.6842 4.69973 18.75 4.54076 18.75 4.375C18.75 4.20924 18.6842 4.05027 18.5669 3.93306C18.4497 3.81585 18.2908 3.75 18.125 3.75H9.375C9.20924 3.75 9.05027 3.81585 8.93306 3.93306C8.81585 4.05027 8.75 4.20924 8.75 4.375C8.75 4.54076 8.81585 4.69973 8.93306 4.81694C9.05027 4.93415 9.20924 5 9.375 5ZM9.375 7.5H15C15.1658 7.5 15.3247 7.43415 15.4419 7.31694C15.5592 7.19973 15.625 7.04076 15.625 6.875C15.625 6.70924 15.5592 6.55027 15.4419 6.43306C15.3247 6.31585 15.1658 6.25 15 6.25H9.375C9.20924 6.25 9.05027 6.31585 8.93306 6.43306C8.81585 6.55027 8.75 6.70924 8.75 6.875C8.75 7.04076 8.81585 7.19973 8.93306 7.31694C9.05027 7.43415 9.20924 7.5 9.375 7.5ZM18.125 12.5H9.375C9.20924 12.5 9.05027 12.5658 8.93306 12.6831C8.81585 12.8003 8.75 12.9592 8.75 13.125C8.75 13.2908 8.81585 13.4497 8.93306 13.5669C9.05027 13.6842 9.20924 13.75 9.375 13.75H18.125C18.2908 13.75 18.4497 13.6842 18.5669 13.5669C18.6842 13.4497 18.75 13.2908 18.75 13.125C18.75 12.9592 18.6842 12.8003 18.5669 12.6831C18.4497 12.5658 18.2908 12.5 18.125 12.5ZM15 15H9.375C9.20924 15 9.05027 15.0658 8.93306 15.1831C8.81585 15.3003 8.75 15.4592 8.75 15.625C8.75 15.7908 8.81585 15.9497 8.93306 16.0669C9.05027 16.1842 9.20924 16.25 9.375 16.25H15C15.1658 16.25 15.3247 16.1842 15.4419 16.0669C15.5592 15.9497 15.625 15.7908 15.625 15.625C15.625 15.4592 15.5592 15.3003 15.4419 15.1831C15.3247 15.0658 15.1658 15 15 15Z" fill="white"/>
<path d="M6.43326 3.30799L4.37513 5.36612L4.19201 5.18299C4.07413 5.06914 3.91625 5.00615 3.75238 5.00757C3.58851 5.009 3.43175 5.07473 3.31587 5.19061C3.19999 5.30649 3.13426 5.46324 3.13284 5.62712C3.13141 5.79099 3.19441 5.94887 3.30826 6.06674L3.93326 6.69174C4.05046 6.80891 4.2094 6.87473 4.37513 6.87473C4.54086 6.87473 4.6998 6.80891 4.81701 6.69174L7.31701 4.19174C7.3767 4.13409 7.42432 4.06512 7.45707 3.98887C7.48983 3.91262 7.50707 3.83061 7.50779 3.74762C7.50851 3.66463 7.4927 3.58233 7.46127 3.50552C7.42985 3.42871 7.38344 3.35893 7.32475 3.30025C7.26607 3.24156 7.19629 3.19515 7.11948 3.16373C7.04267 3.1323 6.96037 3.11649 6.87738 3.11721C6.79439 3.11793 6.71238 3.13517 6.63613 3.16793C6.55988 3.20068 6.49091 3.2483 6.43326 3.30799Z" fill="white"/>
</svg>
