<svg width="28" height="28" viewBox="0 0 28 28" fill="none" xmlns="http://www.w3.org/2000/svg">
<rect width="28" height="28" rx="14" fill="white" fill-opacity="0.4"/>
<path d="M18.125 8H10.625C10.1277 8 9.65081 8.19754 9.29917 8.54917C8.94754 8.90081 8.75 9.37772 8.75 9.875V18.875C8.75 19.3723 8.94754 19.8492 9.29917 20.2008C9.65081 20.5525 10.1277 20.75 10.625 20.75H18.125C18.6223 20.75 19.0992 20.5525 19.4508 20.2008C19.8025 19.8492 20 19.3723 20 18.875V9.875C20 9.37772 19.8025 8.90081 19.4508 8.54917C19.0992 8.19754 18.6223 8 18.125 8ZM19.25 18.875C19.25 19.1734 19.1315 19.4595 18.9205 19.6705C18.7095 19.8815 18.4234 20 18.125 20H10.625C10.3266 20 10.0405 19.8815 9.8295 19.6705C9.61853 19.4595 9.5 19.1734 9.5 18.875V9.875C9.5 9.57663 9.61853 9.29048 9.8295 9.0795C10.0405 8.86853 10.3266 8.75 10.625 8.75H18.125C18.4234 8.75 18.7095 8.86853 18.9205 9.0795C19.1315 9.29048 19.25 9.57663 19.25 9.875V18.875ZM17.75 10.625C17.75 10.7245 17.7105 10.8198 17.6402 10.8902C17.5698 10.9605 17.4745 11 17.375 11H11.375C11.2755 11 11.1802 10.9605 11.1098 10.8902C11.0395 10.8198 11 10.7245 11 10.625C11 10.5255 11.0395 10.4302 11.1098 10.3598C11.1802 10.2895 11.2755 10.25 11.375 10.25H17.375C17.4745 10.25 17.5698 10.2895 17.6402 10.3598C17.7105 10.4302 17.75 10.5255 17.75 10.625ZM17.75 12.5C17.75 12.5995 17.7105 12.6948 17.6402 12.7652C17.5698 12.8355 17.4745 12.875 17.375 12.875H11.375C11.2755 12.875 11.1802 12.8355 11.1098 12.7652C11.0395 12.6948 11 12.5995 11 12.5C11 12.4005 11.0395 12.3052 11.1098 12.2348C11.1802 12.1645 11.2755 12.125 11.375 12.125H17.375C17.4745 12.125 17.5698 12.1645 17.6402 12.2348C17.7105 12.3052 17.75 12.4005 17.75 12.5ZM17.75 14.375C17.75 14.4745 17.7105 14.5698 17.6402 14.6402C17.5698 14.7105 17.4745 14.75 17.375 14.75H11.375C11.2755 14.75 11.1802 14.7105 11.1098 14.6402C11.0395 14.5698 11 14.4745 11 14.375C11 14.2755 11.0395 14.1802 11.1098 14.1098C11.1802 14.0395 11.2755 14 11.375 14H17.375C17.4745 14 17.5698 14.0395 17.6402 14.1098C17.7105 14.1802 17.75 14.2755 17.75 14.375ZM17.75 16.25C17.75 16.3495 17.7105 16.4448 17.6402 16.5152C17.5698 16.5855 17.4745 16.625 17.375 16.625H11.375C11.2755 16.625 11.1802 16.5855 11.1098 16.5152C11.0395 16.4448 11 16.3495 11 16.25C11 16.1505 11.0395 16.0552 11.1098 15.9848C11.1802 15.9145 11.2755 15.875 11.375 15.875H17.375C17.4745 15.875 17.5698 15.9145 17.6402 15.9848C17.7105 16.0552 17.75 16.1505 17.75 16.25ZM17.75 18.125C17.75 18.2245 17.7105 18.3198 17.6402 18.3902C17.5698 18.4605 17.4745 18.5 17.375 18.5H11.375C11.2755 18.5 11.1802 18.4605 11.1098 18.3902C11.0395 18.3198 11 18.2245 11 18.125C11 18.0255 11.0395 17.9302 11.1098 17.8598C11.1802 17.7895 11.2755 17.75 11.375 17.75H17.375C17.4745 17.75 17.5698 17.7895 17.6402 17.8598C17.7105 17.9302 17.75 18.0255 17.75 18.125Z" fill="white"/>
</svg>
