<svg width="22" height="22" viewBox="0 0 22 22" fill="none" xmlns="http://www.w3.org/2000/svg">
<path d="M3.23292 13.2715C3.0585 14.4149 3.83827 15.2085 4.793 15.604C8.45324 17.1203 13.5468 17.1203 17.2071 15.604C18.1618 15.2085 18.9416 14.4149 18.7672 13.2715C18.66 12.5689 18.13 11.9838 17.7373 11.4124C17.2229 10.6549 17.1718 9.82862 17.1718 8.94953C17.1718 5.55226 14.4086 2.79822 11 2.79822C7.5915 2.79822 4.82832 5.55226 4.82832 8.94953C4.82825 9.82862 4.77714 10.6549 4.2628 11.4124C3.87012 11.9838 3.3401 12.5689 3.23292 13.2715Z" stroke="#5B5F5F" stroke-width="1.5" stroke-linecap="round" stroke-linejoin="round"/>
<path d="M7.71863 16.7412C8.09467 18.1562 9.42093 19.2017 10.9993 19.2017C12.5777 19.2017 13.904 18.1562 14.28 16.7412" stroke="#5B5F5F" stroke-width="1.5" stroke-linecap="round" stroke-linejoin="round"/>
</svg>
