<svg width="32" height="32" viewBox="0 0 32 32" fill="none" xmlns="http://www.w3.org/2000/svg">
<rect width="32" height="32" rx="4" fill="#E8F1FD"/>
<path d="M16 22C16 22 16.75 22 17.5 23.5C17.5 23.5 19.8824 19.75 22 19" stroke="#1570EF" stroke-width="1.125" stroke-linecap="round" stroke-linejoin="round"/>
<path d="M22 16.7536V14.9954C22 14.3821 22 14.0754 21.8858 13.7996C21.7716 13.5238 21.5549 13.307 21.1213 12.8732L17.5689 9.31927C17.1947 8.94494 17.0077 8.75778 16.7759 8.64687C16.7277 8.62381 16.6783 8.60333 16.6279 8.58554C16.3856 8.5 16.1211 8.5 15.5919 8.5C13.1581 8.5 11.9412 8.5 11.117 9.16485C10.9505 9.29916 10.7988 9.4509 10.6646 9.61748C10 10.4421 10 11.6595 10 14.0943V17.5039C10 20.3336 10 21.7484 10.8787 22.6274C11.586 23.3351 12.6403 23.4731 14.5 23.5M16.75 8.87517V9.25032C16.75 11.3726 16.75 12.4337 17.409 13.093C18.0681 13.7523 19.1287 13.7523 21.25 13.7523H21.625" stroke="#1570EF" stroke-width="1.125" stroke-linecap="round" stroke-linejoin="round"/>
</svg>
