<svg width="32" height="32" viewBox="0 0 32 32" fill="none" xmlns="http://www.w3.org/2000/svg">
<rect width="32" height="32" rx="4" fill="#FDECEC"/>
<path d="M10 15.9962V17.9053C10 20.3403 10 21.5578 10.6646 22.3824C10.7988 22.549 10.9505 22.7008 11.117 22.8351C11.9412 23.5 13.1581 23.5 15.5919 23.5C16.1211 23.5 16.3856 23.5 16.6279 23.4144C16.6783 23.3967 16.7277 23.3762 16.7759 23.3531C17.0077 23.2422 17.1947 23.055 17.5689 22.6807L21.1213 19.1265C21.5549 18.6927 21.7716 18.4758 21.8858 18.2001C22 17.9242 22 17.6175 22 17.0041V14.4955C22 11.6656 22 10.2507 21.1213 9.37155C20.4228 8.67267 19.3858 8.52938 17.5689 8.5M16.75 23.1248V22.7496C16.75 20.6272 16.75 19.566 17.409 18.9067C18.0681 18.2474 19.1287 18.2474 21.25 18.2474H21.625" stroke="#EF4444" stroke-width="1.125" stroke-linecap="round" stroke-linejoin="round"/>
<path d="M15.25 13.75L10 8.5M15.25 8.5L10 13.75" stroke="#EF4444" stroke-width="1.125" stroke-linecap="round" stroke-linejoin="round"/>
</svg>
