<svg width="18" height="18" viewBox="0 0 18 18" fill="none" xmlns="http://www.w3.org/2000/svg">
<g clip-path="url(#clip0_5294_1643)">
<path d="M6.95477 15.5124C6.75845 15.8218 6.07502 16.5632 6.07502 16.5632M5.74314 14.9033C5.28189 15.3499 4.63558 15.7346 4.40158 15.9028M4.56864 14.1962C4.0382 14.5213 3.11402 14.811 2.77539 14.9297M10.2437 6.30263C9.11589 5.20295 7.00933 4.40813 6.03227 2.04395C5.69364 2.12157 4.99558 3.05982 5.31845 3.67463M13.2851 5.6912C13.2857 5.55417 13.2591 5.4184 13.2069 5.2917C13.1547 5.16501 13.0779 5.0499 12.981 4.95301C12.8841 4.85612 12.769 4.77936 12.6423 4.72716C12.5156 4.67497 12.3799 4.64836 12.2428 4.64888C11.7793 4.64888 11.3726 4.95601 11.2427 5.3987L10.584 7.68245" stroke="#4A4A4A" stroke-width="0.6" stroke-miterlimit="10" stroke-linecap="round" stroke-linejoin="round"/>
<path d="M8.6034 11.5397L8.26815 12.1051C8.26815 12.1051 3.78221 12.8031 2.08346 13.1884C1.30159 13.6159 1.99459 15.0436 2.77646 14.9288C2.50534 15.5177 3.54765 16.3249 4.40209 15.9031C4.03759 16.5646 5.58502 17.1377 6.0744 16.5646C6.03277 17.2525 7.58527 17.2733 7.93965 16.7884C7.93965 16.7884 8.35646 15.8766 8.76259 14.9491C9.0804 14.2251 9.77846 13.7144 10.5705 13.6986C11.6021 13.6879 12.8424 13.2554 13.4415 11.9425C14.1395 10.4108 13.8217 8.9258 13.5461 8.12312C13.3737 7.63085 13.2856 7.11301 13.2857 6.59143V6.43505L13.8639 6.26855" stroke="#4A4A4A" stroke-width="0.6" stroke-miterlimit="10" stroke-linecap="round" stroke-linejoin="round"/>
<path d="M10.8161 8.28038C9.87338 5.07076 4.75688 6.14963 1.52645 2.04395C1.0832 2.2892 0.474009 3.88332 1.16701 4.62301C0.643321 5.03982 0.666946 6.49838 1.71938 7.00913M1.74526 7.02488C0.880134 7.63463 2.17782 9.16126 3.1622 9.33845C2.68295 9.7187 4.46495 10.797 5.92407 10.3701C5.64563 11.0535 7.65713 11.4686 9.22876 10.4871" stroke="#4A4A4A" stroke-width="0.6" stroke-miterlimit="10" stroke-linecap="round" stroke-linejoin="round"/>
<path d="M4.46591 6.12337C3.49672 6.25387 1.43347 4.81556 1.19384 4.63838L1.16797 4.62319M4.76797 7.65506C3.45003 7.82719 1.99597 7.14994 1.74622 7.0245C1.73687 7.02055 1.72815 7.01524 1.72034 7.00875M1.70459 7.00425L1.72034 7.00931M5.73209 8.75475C4.72128 9.31725 3.19972 9.34875 3.19972 9.34875M7.26884 9.5985C6.43016 10.3016 5.92447 10.3697 5.92447 10.3697M12.2447 5.69138H12.297M15.0184 7.88344C15.0184 7.88344 14.5217 6.70219 14.4143 6.012C14.133 4.21031 15.5252 2.7 15.5252 2.7M14.1527 2.35125C14.4565 2.79562 14.1583 3.52125 14.1583 3.52125C14.1583 3.52125 13.3765 3.52125 13.0783 3.07125C12.7802 2.62688 12.8196 1.6875 12.8196 1.6875C12.8196 1.6875 13.8546 1.90125 14.1527 2.35125Z" stroke="#4A4A4A" stroke-width="0.6" stroke-miterlimit="10" stroke-linecap="round" stroke-linejoin="round"/>
<path d="M16.1536 5.11875C15.6923 5.24813 15.1523 4.7925 15.1523 4.7925C15.1523 4.7925 15.3773 4.12312 15.8442 3.99375C16.3055 3.86437 17.0592 4.31438 17.0592 4.31438C17.0592 4.31438 16.6205 4.98938 16.1536 5.11875ZM16.5811 2.1825C16.3055 2.64938 15.5236 2.7 15.5236 2.7C15.5236 2.7 15.1805 1.99125 15.4561 1.52438C15.7261 1.0575 16.6823 0.84375 16.6823 0.84375C16.6823 0.84375 16.8511 1.71563 16.5811 2.1825Z" stroke="#4A4A4A" stroke-width="0.6" stroke-miterlimit="10" stroke-linecap="round" stroke-linejoin="round"/>
</g>
<defs>
<clipPath id="clip0_5294_1643">
<rect width="18" height="18" fill="white"/>
</clipPath>
</defs>
</svg>
