<svg width="24" height="24" viewBox="0 0 24 24" fill="none" xmlns="http://www.w3.org/2000/svg">
<path d="M11.625 9.375H10.875C10.6679 9.375 10.5 9.54289 10.5 9.75V10.5C10.5 10.7071 10.6679 10.875 10.875 10.875H11.625C11.8321 10.875 12 10.7071 12 10.5V9.75C12 9.54289 11.8321 9.375 11.625 9.375Z" fill="#4A4A4A"/>
<path d="M15 9.375H14.25C14.0429 9.375 13.875 9.54289 13.875 9.75V10.5C13.875 10.7071 14.0429 10.875 14.25 10.875H15C15.2071 10.875 15.375 10.7071 15.375 10.5V9.75C15.375 9.54289 15.2071 9.375 15 9.375Z" fill="#4A4A4A"/>
<path d="M18.375 9.375H17.625C17.4179 9.375 17.25 9.54289 17.25 9.75V10.5C17.25 10.7071 17.4179 10.875 17.625 10.875H18.375C18.5821 10.875 18.75 10.7071 18.75 10.5V9.75C18.75 9.54289 18.5821 9.375 18.375 9.375Z" fill="#4A4A4A"/>
<path d="M8.25 9.375H7.5C7.29289 9.375 7.125 9.54289 7.125 9.75V10.5C7.125 10.7071 7.29289 10.875 7.5 10.875H8.25C8.45711 10.875 8.625 10.7071 8.625 10.5V9.75C8.625 9.54289 8.45711 9.375 8.25 9.375Z" fill="#4A4A4A"/>
<path d="M4.875 9.375H4.125C3.91789 9.375 3.75 9.54289 3.75 9.75V10.5C3.75 10.7071 3.91789 10.875 4.125 10.875H4.875C5.08211 10.875 5.25 10.7071 5.25 10.5V9.75C5.25 9.54289 5.08211 9.375 4.875 9.375Z" fill="#4A4A4A"/>
<path d="M11.625 12.375H10.875C10.6679 12.375 10.5 12.5429 10.5 12.75V13.5C10.5 13.7071 10.6679 13.875 10.875 13.875H11.625C11.8321 13.875 12 13.7071 12 13.5V12.75C12 12.5429 11.8321 12.375 11.625 12.375Z" fill="#4A4A4A"/>
<path d="M8.25 12.375H7.5C7.29289 12.375 7.125 12.5429 7.125 12.75V13.5C7.125 13.7071 7.29289 13.875 7.5 13.875H8.25C8.45711 13.875 8.625 13.7071 8.625 13.5V12.75C8.625 12.5429 8.45711 12.375 8.25 12.375Z" fill="#4A4A4A"/>
<path d="M4.875 12.375H4.125C3.91789 12.375 3.75 12.5429 3.75 12.75V13.5C3.75 13.7071 3.91789 13.875 4.125 13.875H4.875C5.08211 13.875 5.25 13.7071 5.25 13.5V12.75C5.25 12.5429 5.08211 12.375 4.875 12.375Z" fill="#4A4A4A"/>
<path d="M8.25 15.375H7.5C7.29289 15.375 7.125 15.5429 7.125 15.75V16.5C7.125 16.7071 7.29289 16.875 7.5 16.875H8.25C8.45711 16.875 8.625 16.7071 8.625 16.5V15.75C8.625 15.5429 8.45711 15.375 8.25 15.375Z" fill="#4A4A4A"/>
<path d="M4.875 15.375H4.125C3.91789 15.375 3.75 15.5429 3.75 15.75V16.5C3.75 16.7071 3.91789 16.875 4.125 16.875H4.875C5.08211 16.875 5.25 16.7071 5.25 16.5V15.75C5.25 15.5429 5.08211 15.375 4.875 15.375Z" fill="#4A4A4A"/>
<path d="M21 13.815V4.125C21 3.09 20.16 2.25 19.125 2.25V1.875C19.125 1.25625 18.6187 0.75 18 0.75C17.3813 0.75 16.875 1.25625 16.875 1.875V2.25H15.75V1.875C15.75 1.25625 15.2437 0.75 14.625 0.75C14.0063 0.75 13.5 1.25625 13.5 1.875V2.25H12.375V1.875C12.375 1.25625 11.8687 0.75 11.25 0.75C10.6313 0.75 10.125 1.25625 10.125 1.875V2.25H9V1.875C9 1.25625 8.49375 0.75 7.875 0.75C7.25625 0.75 6.75 1.25625 6.75 1.875V2.25H5.625V1.875C5.625 1.25625 5.11875 0.75 4.5 0.75C3.88125 0.75 3.375 1.25625 3.375 1.875V2.25C2.34 2.25 1.5 3.09 1.5 4.125V17.625C1.5 18.66 2.34 19.5 3.375 19.5H11.58C12.3562 21.6825 14.4338 23.25 16.875 23.25C19.9762 23.25 22.5 20.7262 22.5 17.625C22.5 16.155 21.9263 14.8162 21 13.815ZM2.25 6H20.25V6.75H2.25V6ZM17.625 1.875C17.625 1.66875 17.7938 1.5 18 1.5C18.2062 1.5 18.375 1.66875 18.375 1.875V2.25H17.625V1.875ZM14.25 1.875C14.25 1.66875 14.4187 1.5 14.625 1.5C14.8313 1.5 15 1.66875 15 1.875V2.25H14.25V1.875ZM10.875 1.875C10.875 1.66875 11.0437 1.5 11.25 1.5C11.4563 1.5 11.625 1.66875 11.625 1.875V2.25H10.875V1.875ZM7.5 1.875C7.5 1.66875 7.66875 1.5 7.875 1.5C8.08125 1.5 8.25 1.66875 8.25 1.875V2.25H7.5V1.875ZM4.125 1.875C4.125 1.66875 4.29375 1.5 4.5 1.5C4.70625 1.5 4.875 1.66875 4.875 1.875V2.25H4.125V1.875ZM2.25 4.125C2.25 3.50625 2.75625 3 3.375 3H4.875V3.375C4.875 3.58125 4.70625 3.75 4.5 3.75C4.29375 3.75 4.125 3.91875 4.125 4.125C4.125 4.33125 4.29375 4.5 4.5 4.5C5.11875 4.5 5.625 3.99375 5.625 3.375V3H8.25V3.375C8.25 3.58125 8.08125 3.75 7.875 3.75C7.66875 3.75 7.5 3.91875 7.5 4.125C7.5 4.33125 7.66875 4.5 7.875 4.5C8.49375 4.5 9 3.99375 9 3.375V3H11.625V3.375C11.625 3.58125 11.4563 3.75 11.25 3.75C11.0437 3.75 10.875 3.91875 10.875 4.125C10.875 4.33125 11.0437 4.5 11.25 4.5C11.8687 4.5 12.375 3.99375 12.375 3.375V3H15V3.375C15 3.58125 14.8313 3.75 14.625 3.75C14.4187 3.75 14.25 3.91875 14.25 4.125C14.25 4.33125 14.4187 4.5 14.625 4.5C15.2437 4.5 15.75 3.99375 15.75 3.375V3H18.375V3.375C18.375 3.58125 18.2062 3.75 18 3.75C17.7938 3.75 17.625 3.91875 17.625 4.125C17.625 4.33125 17.7938 4.5 18 4.5C18.6187 4.5 19.125 3.99375 19.125 3.375V3C19.7437 3 20.25 3.50625 20.25 4.125V5.25H2.25V4.125ZM3.375 18.75C2.75625 18.75 2.25 18.2437 2.25 17.625V7.5H20.25V13.1362C19.3088 12.4275 18.1425 12 16.875 12C13.7738 12 11.25 14.5238 11.25 17.625C11.25 18.0112 11.2875 18.3862 11.3625 18.75H3.375ZM16.875 22.5C14.1862 22.5 12 20.3137 12 17.625C12 14.9362 14.1862 12.75 16.875 12.75C19.5637 12.75 21.75 14.9362 21.75 17.625C21.75 20.3137 19.5637 22.5 16.875 22.5Z" fill="#4A4A4A"/>
<path d="M16.875 13.5C14.5987 13.5 12.75 15.3487 12.75 17.625C12.75 19.9012 14.5987 21.75 16.875 21.75C19.1512 21.75 21 19.9012 21 17.625C21 15.3487 19.1512 13.5 16.875 13.5ZM16.875 21C15.015 21 13.5 19.485 13.5 17.625C13.5 15.765 15.015 14.25 16.875 14.25C18.735 14.25 20.25 15.765 20.25 17.625C20.25 19.485 18.735 21 16.875 21Z" fill="#4A4A4A"/>
<path d="M18.375 17.25H17.52C17.4563 17.1375 17.3625 17.0437 17.25 16.98V15.375C17.25 15.1687 17.0813 15 16.875 15C16.6687 15 16.5 15.1687 16.5 15.375V16.98C16.2788 17.1112 16.125 17.3512 16.125 17.625C16.125 18.0375 16.4625 18.375 16.875 18.375C17.0059 18.3742 17.1343 18.3392 17.2474 18.2734C17.3606 18.2076 17.4546 18.1134 17.52 18H18.375C18.5812 18 18.75 17.8312 18.75 17.625C18.75 17.4188 18.5812 17.25 18.375 17.25Z" fill="#4A4A4A"/>
</svg>
