<svg width="42" height="42" viewBox="0 0 42 42" fill="none" xmlns="http://www.w3.org/2000/svg">
<path d="M32.8125 9.84375H5.53219C3.92438 9.84375 2.625 11.1497 2.625 12.7509V36.3759C2.625 38.0297 3.96375 39.3684 5.6175 39.3684H35.4441V12.4687C35.4441 11.0184 34.2694 9.84375 32.8191 9.84375H32.8125Z" fill="#B8C3D5"/>
<path d="M39.3827 5.49938C39.3827 3.91125 38.0964 2.625 36.5083 2.625H11.2098C9.62172 2.625 8.33547 3.91125 8.33547 5.49938V36.3037C8.33547 37.9444 7.05578 39.2831 5.44141 39.375H35.9308C37.8339 39.375 39.3827 37.8328 39.3827 35.9297V5.49938Z" fill="#D3DCE5"/>
<path d="M18.5657 27.5562H14.2673C13.5641 27.5562 12.9941 28.1261 12.9941 28.8293V33.1277C12.9941 33.8308 13.5641 34.4008 14.2673 34.4008H18.5657C19.2688 34.4008 19.8388 33.8308 19.8388 33.1277V28.8293C19.8388 28.1261 19.2688 27.5562 18.5657 27.5562Z" fill="#77B24C"/>
<path d="M18.5657 17.3252H14.2673C13.5641 17.3252 12.9941 17.8952 12.9941 18.5983V22.8968C12.9941 23.5999 13.5641 24.1699 14.2673 24.1699H18.5657C19.2688 24.1699 19.8388 23.5999 19.8388 22.8968V18.5983C19.8388 17.8952 19.2688 17.3252 18.5657 17.3252Z" fill="#77B24C"/>
<path d="M5.23105 39.9984C5.36886 40.0181 5.50667 40.0247 5.64449 40.0247H35.9304C36.5932 40.0247 37.2626 39.8869 37.8401 39.5653C39.2379 38.7975 40.032 37.4194 40.032 35.9166V5.49938C40.032 3.55031 38.4504 1.96875 36.5014 1.96875H11.2095C9.26042 1.96875 7.67886 3.55031 7.67886 5.49938V9.1875H5.53292C3.56417 9.1875 1.96292 10.7822 1.96292 12.7575V36.3825C1.96292 36.3825 1.91699 39.4734 5.23105 39.9984ZM3.27542 36.3825V12.7575C3.27542 11.5172 4.28605 10.5 5.53292 10.5H7.67886V36.2972C7.67668 36.8999 7.45042 37.4802 7.0441 37.9254C6.63777 38.3705 6.08042 38.6486 5.48042 38.7056C4.88632 38.6732 4.32725 38.4143 3.91829 37.9821C3.50933 37.55 3.28161 36.9775 3.28199 36.3825H3.27542ZM37.9057 37.8984C37.3807 38.4234 36.6786 38.7188 35.9304 38.7188H8.07917C8.64355 38.0625 8.99136 37.2159 8.99136 36.2972V5.49938C8.99136 4.27875 9.9823 3.28125 11.2095 3.28125H36.5079C37.7285 3.28125 38.726 4.27219 38.726 5.49938V35.9231C38.726 36.6712 38.4373 37.3734 37.9057 37.8984ZM24.3214 17.4366H31.9207C32.2817 17.4366 32.577 17.7319 32.577 18.0928C32.577 18.4538 32.2817 18.7491 31.9207 18.7491H24.3214C23.9604 18.7491 23.6651 18.4538 23.6651 18.0928C23.6651 17.7319 23.9604 17.4366 24.3214 17.4366ZM35.8517 21.9516C35.8517 22.3125 35.5564 22.6078 35.1954 22.6078H24.3148C23.9539 22.6078 23.6585 22.3125 23.6585 21.9516C23.6585 21.5906 23.9539 21.2953 24.3148 21.2953H35.1954C35.5564 21.2953 35.8517 21.5906 35.8517 21.9516ZM35.9698 6.73969L32.8723 12.0422H35.4054C35.7664 12.0422 36.0617 12.3375 36.0617 12.6984C36.0617 13.0594 35.7664 13.3547 35.4054 13.3547H31.7304C31.4942 13.3547 31.2776 13.23 31.1595 13.0266C31.0414 12.8231 31.0414 12.5738 31.1595 12.3703L34.257 7.06781H31.7239C31.3629 7.06781 31.0676 6.7725 31.0676 6.41156C31.0676 6.05063 31.3629 5.75531 31.7239 5.75531H35.3989C35.6351 5.75531 35.8517 5.88 35.9698 6.08344C36.0879 6.28688 36.0879 6.53625 35.9698 6.73969ZM23.7111 13.3547C22.2411 13.3547 21.0467 12.1603 21.0467 10.6903V6.41156C21.0467 6.05063 21.342 5.75531 21.7029 5.75531C22.0639 5.75531 22.3592 6.05063 22.3592 6.41156V10.6903C22.3592 11.4384 22.9629 12.0422 23.7111 12.0422C24.4592 12.0422 25.0629 11.4384 25.0629 10.6903V6.41156C25.0629 6.05063 25.3582 5.75531 25.7192 5.75531C26.0801 5.75531 26.3754 6.05063 26.3754 6.41156V10.6903C26.3754 12.1603 25.181 13.3547 23.7111 13.3547ZM28.1407 12.6984V6.41156C28.1407 6.05063 28.4361 5.75531 28.797 5.75531C29.1579 5.75531 29.4532 6.05063 29.4532 6.41156V12.6984C29.4532 13.0594 29.1579 13.3547 28.797 13.3547C28.4361 13.3547 28.1407 13.0594 28.1407 12.6984ZM15.9476 13.3547C16.7614 13.3547 17.5095 13.0987 18.1264 12.6656L18.6251 13.1644C18.7564 13.2956 18.9204 13.3547 19.091 13.3547C19.2617 13.3547 19.4257 13.2891 19.557 13.1644C19.6178 13.1037 19.6661 13.0315 19.699 12.9522C19.732 12.8728 19.7489 12.7877 19.7489 12.7017C19.7489 12.6158 19.732 12.5307 19.699 12.4513C19.6661 12.3719 19.6178 12.2998 19.557 12.2391L19.0582 11.7403C19.4914 11.1234 19.7473 10.3687 19.7473 9.56156C19.7473 7.46812 18.041 5.76187 15.9476 5.76187C13.8542 5.76187 12.1479 7.46812 12.1479 9.56156C12.1479 11.655 13.8542 13.3612 15.9476 13.3612V13.3547ZM15.9476 7.06781C17.3192 7.06781 18.4348 8.18344 18.4348 9.555C18.4348 10.0013 18.3035 10.4147 18.1001 10.7822L17.2404 9.9225C17.1797 9.86174 17.1075 9.81355 17.0282 9.78067C16.9488 9.74779 16.8637 9.73086 16.7778 9.73086C16.6918 9.73086 16.6068 9.74779 16.5274 9.78067C16.448 9.81355 16.3759 9.86174 16.3151 9.9225C16.2544 9.98326 16.2062 10.0554 16.1733 10.1348C16.1404 10.2142 16.1235 10.2992 16.1235 10.3852C16.1235 10.4711 16.1404 10.5562 16.1733 10.6355C16.2062 10.7149 16.2544 10.7871 16.3151 10.8478L17.1748 11.7075C16.8139 11.9175 16.4004 12.0422 15.9476 12.0422C14.576 12.0422 13.4604 10.9266 13.4604 9.555C13.4604 8.18344 14.576 7.06781 15.9476 7.06781ZM18.5726 26.8997H14.2676C13.2045 26.8997 12.3382 27.7659 12.3382 28.8291V33.1341C12.3382 34.1972 13.2045 35.0634 14.2676 35.0634H18.5726C19.6357 35.0634 20.502 34.1972 20.502 33.1341V28.8291C20.502 27.7659 19.6357 26.8997 18.5726 26.8997ZM19.1895 33.1341C19.1895 33.4753 18.9139 33.7509 18.5726 33.7509H14.2676C13.9264 33.7509 13.6507 33.4753 13.6507 33.1341V28.8291C13.6507 28.4878 13.9264 28.2122 14.2676 28.2122H18.5726C18.9139 28.2122 19.1895 28.4878 19.1895 28.8291V33.1341ZM18.5726 16.6687H14.2676C13.2045 16.6687 12.3382 17.535 12.3382 18.5981V22.9031C12.3382 23.9663 13.2045 24.8325 14.2676 24.8325H18.5726C19.6357 24.8325 20.502 23.9663 20.502 22.9031V18.5981C20.502 17.535 19.6357 16.6687 18.5726 16.6687ZM19.1895 22.9031C19.1895 23.2444 18.9139 23.52 18.5726 23.52H14.2676C13.9264 23.52 13.6507 23.2444 13.6507 22.9031V18.5981C13.6507 18.2569 13.9264 17.9812 14.2676 17.9812H18.5726C18.9139 17.9812 19.1895 18.2569 19.1895 18.5981V22.9031ZM23.6651 25.8103C23.6651 25.4494 23.9604 25.1541 24.3214 25.1541H31.9207C32.2817 25.1541 32.577 25.4494 32.577 25.8103C32.577 26.1713 32.2817 26.4666 31.9207 26.4666H24.3214C23.9604 26.4666 23.6651 26.1713 23.6651 25.8103ZM35.8517 29.6691C35.8517 30.03 35.5564 30.3253 35.1954 30.3253H24.3148C23.9539 30.3253 23.6585 30.03 23.6585 29.6691C23.6585 29.3081 23.9539 29.0128 24.3148 29.0128H35.1954C35.5564 29.0128 35.8517 29.3081 35.8517 29.6691ZM32.5704 33.5278C32.5704 33.8888 32.2751 34.1841 31.9142 34.1841H24.3148C23.9539 34.1841 23.6585 33.8888 23.6585 33.5278C23.6585 33.1669 23.9539 32.8716 24.3148 32.8716H31.9142C32.2751 32.8716 32.5704 33.1669 32.5704 33.5278Z" fill="#1A2C3D"/>
</svg>
