<svg width="18" height="18" viewBox="0 0 18 18" fill="none" xmlns="http://www.w3.org/2000/svg">
<path d="M16.7513 8.3279C16.6098 8.02791 16.3608 7.79201 16.0536 7.66699C15.7464 7.54196 15.4034 7.53693 15.0927 7.6529L12.5699 8.60465C12.5875 8.43938 12.5701 8.27225 12.5189 8.11415C12.4676 7.95604 12.3836 7.81051 12.2723 7.68703C12.1611 7.56355 12.0251 7.46488 11.8732 7.39746C11.7212 7.33004 11.5568 7.29537 11.3906 7.29571H9.68428C9.12572 7.34043 8.13656 6.73152 7.63622 6.52537C7.31484 6.37433 6.96419 6.29579 6.60909 6.2953H4.21369C4.22181 6.17931 4.20604 6.06287 4.16737 5.95321C4.1287 5.84355 4.06795 5.74298 3.98887 5.65773C3.90978 5.57248 3.81405 5.50435 3.7076 5.45757C3.60114 5.41079 3.48622 5.38634 3.36994 5.38574H1.40625C1.33166 5.38574 1.26012 5.41537 1.20738 5.46812C1.15463 5.52086 1.125 5.5924 1.125 5.66699V11.7507C1.125 11.8253 1.15463 11.8968 1.20738 11.9496C1.26012 12.0023 1.33166 12.032 1.40625 12.032H3.37022C3.59303 12.0317 3.80669 11.9433 3.96463 11.7862C4.12257 11.629 4.212 11.4158 4.21341 11.193H4.78575C4.99624 11.1932 5.20353 11.2445 5.38987 11.3423L6.88275 12.1284C7.41909 12.4111 8.01005 12.5748 8.61537 12.6084C9.22069 12.642 9.82615 12.5448 10.3905 12.3233L16.1016 10.0846C16.2597 10.012 16.4019 9.90898 16.5202 9.78138C16.6384 9.65378 16.7303 9.50412 16.7907 9.34096C16.851 9.17779 16.8786 9.00434 16.8718 8.8305C16.8651 8.65667 16.8241 8.48588 16.7513 8.3279ZM3.65147 11.1882C3.65139 11.2628 3.62174 11.3343 3.56901 11.387C3.51628 11.4397 3.44479 11.4694 3.37022 11.4695H1.6875V5.94796H3.37022C3.44479 5.94804 3.51628 5.97769 3.56901 6.03042C3.62174 6.08315 3.65139 6.15464 3.65147 6.22921V11.1882ZM16.2655 9.14662C16.1987 9.33172 16.0611 9.48273 15.883 9.56652L10.1852 11.7996C9.69606 11.9916 9.17128 12.076 8.64663 12.0468C8.12197 12.0177 7.60976 11.8758 7.14487 11.6309L5.652 10.8448C5.38483 10.7044 5.08758 10.6308 4.78575 10.6305H4.21397V6.85752H6.60938C6.88162 6.85795 7.15045 6.91815 7.39687 7.03387L8.65744 7.62815C9.28463 7.98534 10.6951 7.82587 11.3912 7.85821C11.5555 7.86169 11.7119 7.9294 11.8269 8.04682C11.9418 8.16425 12.0062 8.32205 12.0062 8.48638C12.0062 8.65072 11.9418 8.80852 11.8269 8.92594C11.7119 9.04337 11.5555 9.11108 11.3912 9.11456H8.38912C8.31453 9.11456 8.243 9.14419 8.19025 9.19693C8.13751 9.24968 8.10787 9.32121 8.10787 9.3958C8.10787 9.4704 8.13751 9.54193 8.19025 9.59468C8.243 9.64742 8.31453 9.67705 8.38912 9.67705H11.3906C11.7012 9.67701 11.9993 9.55512 12.2209 9.33759L15.291 8.17884C15.4263 8.12996 15.5727 8.12052 15.7132 8.15159C15.8536 8.18267 15.9824 8.25299 16.0844 8.35437C16.1865 8.45575 16.2577 8.58403 16.2897 8.72428C16.3217 8.86453 16.3135 9.01099 16.2655 9.14662Z" fill="#4A4A4A"/>
</svg>
