<svg width="42" height="42" viewBox="0 0 42 42" fill="none" xmlns="http://www.w3.org/2000/svg">
<g clip-path="url(#clip0_5294_1595)">
<path d="M23.3984 25.7201L25.7191 23.3994L28.6866 26.367L26.3659 28.6876L23.3984 25.7201Z" fill="#EAFAFF"/>
<path d="M40.2174 35.5781C41.4994 36.8592 41.4994 38.9359 40.2174 40.2174C38.9359 41.4994 36.8592 41.4994 35.5781 40.2174L28.6875 33.3268L33.3268 28.6875L40.2174 35.5781Z" fill="#FF523D"/>
<path d="M29.8478 25.2075L33.3274 28.6876L28.6881 33.3269L25.2078 29.8473L29.8478 25.2074V25.2075ZM24.6279 4.90784C30.0772 10.3572 30.0698 19.1858 24.6279 24.6273C19.1785 30.077 10.3496 30.069 4.90839 24.6273C-0.537172 19.1819 -0.537172 10.3533 4.90839 4.90784C10.3535 -0.53764 19.1824 -0.53764 24.6279 4.90784Z" fill="#3A5576"/>
<path d="M22.3074 7.22796C26.4645 11.385 26.4644 18.15 22.3069 22.3076C18.1475 26.4669 11.4021 26.4829 7.22689 22.3076C3.0702 18.15 3.0702 11.385 7.22689 7.22697C11.3906 3.06364 18.1389 3.05946 22.3074 7.22796Z" fill="#EAFAFF"/>
<path d="M7.44336 14.8257C6.99055 14.8257 6.62305 15.1929 6.62305 15.6457C6.62305 16.0984 6.99055 16.466 7.44336 16.466C7.89617 16.466 8.26367 16.0985 8.26367 15.6457C8.26367 15.1929 7.89617 14.8257 7.44336 14.8257Z" fill="black"/>
<path d="M30.4271 24.6272C30.3509 24.551 30.2605 24.4906 30.161 24.4493C30.0615 24.4081 29.9548 24.3869 29.8471 24.3869C29.8387 24.3885 29.5234 24.3709 29.2672 24.6272L28.6874 25.2069L26.8026 23.3223C30.9618 17.4921 30.3293 9.44947 25.2072 4.32768C19.4374 -1.44207 10.0981 -1.44305 4.32768 4.32768C-1.44207 10.0971 -1.44305 19.4368 4.32768 25.2072C9.437 30.3169 17.4764 30.9724 23.322 26.8027L25.2069 28.6874L24.6272 29.2671C24.307 29.5872 24.3068 30.107 24.6272 30.4274L34.9978 40.797C36.6003 42.4004 39.1942 42.4014 40.797 40.7973C42.4004 39.1951 42.4011 36.6009 40.797 34.9981L30.4271 24.6272ZM26.3669 27.5274L24.6106 25.7711C24.8147 25.5882 25.0142 25.4004 25.2072 25.2072C25.4006 25.0136 25.5886 24.8147 25.7711 24.6108L27.5274 26.3671L26.3669 27.5274ZM5.4876 24.0472C0.358764 18.9186 0.35819 10.6169 5.4876 5.4876C10.6162 0.358764 18.918 0.35819 24.0472 5.4876C29.1645 10.6047 29.1905 18.9046 24.0472 24.0472C18.8459 29.2491 10.5463 29.1062 5.4876 24.0472ZM29.8471 26.3672L32.1667 28.687L28.6871 32.1667L26.3672 29.8471L29.8471 26.3672ZM39.637 39.6374C38.6757 40.5996 37.12 40.5999 36.158 39.6374L29.8471 33.3267L33.3267 29.8471L39.6374 36.1584C40.5993 37.1193 40.6003 38.6751 39.637 39.6373V39.6374Z" fill="black"/>
<path d="M22.887 6.6481C18.4012 2.1623 11.1341 2.15976 6.64646 6.64744C2.16993 11.1249 2.16993 18.4103 6.64646 22.888C11.1347 27.3761 18.3977 27.3763 22.8863 22.888C27.3638 18.4103 27.3641 11.1252 22.887 6.6481ZM21.7263 21.7277C17.8796 25.5746 11.6541 25.5755 7.80638 21.7281C3.96945 17.8898 3.96945 11.6453 7.80638 7.80712C11.6513 3.96256 17.8808 3.96157 21.7271 7.8081C25.5645 11.6455 25.5642 17.8899 21.7263 21.7277Z" fill="black"/>
<path d="M14.7671 6.56592C12.5748 6.56592 10.515 7.41888 8.96727 8.96755C8.0701 9.8648 7.40966 10.9248 7.00467 12.1187C6.85915 12.5475 7.08859 13.0134 7.51762 13.1589C7.94738 13.3046 8.41258 13.0739 8.5581 12.6458C8.88138 11.6926 9.4095 10.8452 10.1273 10.1272C11.3655 8.88872 13.0131 8.20654 14.7671 8.20654C15.2203 8.20654 15.5874 7.83929 15.5874 7.38623C15.5874 6.93317 15.2203 6.56592 14.7671 6.56592Z" fill="black"/>
</g>
<defs>
<clipPath id="clip0_5294_1595">
<rect width="42" height="42" fill="white"/>
</clipPath>
</defs>
</svg>
