<svg width="28" height="28" viewBox="0 0 28 28" fill="none" xmlns="http://www.w3.org/2000/svg">
<rect width="28" height="28" rx="14" fill="white" fill-opacity="0.4"/>
<g clip-path="url(#clip0_5294_1493)">
<path d="M6.25015 20.6389C6.21579 20.639 6.18179 20.6319 6.15029 20.6182C6.11878 20.6045 6.09043 20.5844 6.06702 20.5593C6.04361 20.5341 6.02563 20.5044 6.01421 20.472C6.00279 20.4396 5.99817 20.4052 6.00065 20.3709C6.0069 20.2827 6.73615 11.6204 16.2739 10.8772L16.2509 7.61268C16.2506 7.56249 16.2654 7.51337 16.2934 7.4717C16.3213 7.43004 16.3612 7.39776 16.4078 7.37907C16.4544 7.36038 16.5055 7.35614 16.5545 7.3669C16.6035 7.37767 16.6482 7.40294 16.6826 7.43943L21.9319 12.9939C21.9757 13.0403 22.0001 13.1016 22.0001 13.1654C22.0002 13.2291 21.9759 13.2905 21.9321 13.3369L16.6501 18.9412C16.6157 18.9779 16.571 19.0034 16.5218 19.0143C16.4726 19.0252 16.4213 19.0209 16.3746 19.0021C16.3278 18.9833 16.2879 18.9508 16.26 18.9089C16.2321 18.8669 16.2175 18.8175 16.2181 18.7672L16.2484 15.5857C9.83165 16.0467 6.4849 20.4917 6.4514 20.5369C6.4282 20.5685 6.39789 20.5942 6.36293 20.6119C6.32798 20.6296 6.28934 20.6389 6.25015 20.6389Z" fill="white"/>
</g>
<defs>
<clipPath id="clip0_5294_1493">
<rect width="16" height="16" fill="white" transform="translate(6 6)"/>
</clipPath>
</defs>
</svg>
