<svg width="32" height="32" viewBox="0 0 32 32" fill="none" xmlns="http://www.w3.org/2000/svg">
<rect width="32" height="32" rx="4" fill="#D6F5DA"/>
<path d="M16.75 15.25C16.75 13.5931 15.4068 12.25 13.75 12.25C12.0931 12.25 10.75 13.5931 10.75 15.25C10.75 16.9068 12.0931 18.25 13.75 18.25C15.4068 18.25 16.75 16.9068 16.75 15.25Z" stroke="#1FB155" stroke-width="1.125" stroke-linecap="round" stroke-linejoin="round"/>
<path d="M15.2789 12.6683C15.2598 12.5316 15.25 12.392 15.25 12.25C15.25 10.5931 16.5932 9.25 18.25 9.25C19.9068 9.25 21.25 10.5931 21.25 12.25C21.25 13.9069 19.9068 15.25 18.25 15.25C17.6916 15.25 17.1688 15.0974 16.7211 14.8317" stroke="#1FB155" stroke-width="1.125" stroke-linecap="round" stroke-linejoin="round"/>
<path d="M18.25 22.75C18.25 20.2647 16.2353 18.25 13.75 18.25C11.2647 18.25 9.25 20.2647 9.25 22.75" stroke="#1FB155" stroke-width="1.125" stroke-linecap="round" stroke-linejoin="round"/>
<path d="M22.75 19.75C22.75 17.2647 20.7353 15.25 18.25 15.25" stroke="#1FB155" stroke-width="1.125" stroke-linecap="round" stroke-linejoin="round"/>
</svg>
