<svg width="24" height="16" viewBox="0 0 24 16" fill="none" xmlns="http://www.w3.org/2000/svg">
<g clip-path="url(#clip0_7099_2485)">
<path d="M24 0.015625H0V15.9846H24V0.015625Z" fill="#F0F0F0"/>
<path d="M13.5 0.0155029H10.5V6.5028H0V9.49695H10.5V15.9843H13.5V9.49695H24V6.5028H13.5V0.0155029Z" fill="#D80027"/>
<path d="M18.4586 10.777L23.9999 13.8495V10.777H18.4586Z" fill="#0052B4"/>
<path d="M14.6086 10.777L24 15.9842V14.5117L17.2643 10.777H14.6086Z" fill="#0052B4"/>
<path d="M21.4984 15.9842L14.6086 12.1637V15.9842H21.4984Z" fill="#0052B4"/>
<path d="M14.6086 10.777L24 15.9842V14.5117L17.2643 10.777H14.6086Z" fill="#F0F0F0"/>
<path d="M14.6086 10.777L24 15.9842V14.5117L17.2643 10.777H14.6086Z" fill="#D80027"/>
<path d="M4.23473 10.7769L0 13.1249V10.7769H4.23473Z" fill="#0052B4"/>
<path d="M9.39125 11.4391V15.9842H1.19482L9.39125 11.4391Z" fill="#0052B4"/>
<path d="M6.73561 10.777L0 14.5117V15.9842L9.39131 10.777H6.73561Z" fill="#D80027"/>
<path d="M5.54133 5.22271L0 2.15015V5.22271H5.54133Z" fill="#0052B4"/>
<path d="M9.39131 5.22271L0 0.0155029V1.48797L6.73561 5.22271H9.39131Z" fill="#0052B4"/>
<path d="M2.50146 0.0155029L9.39125 3.83604V0.0155029H2.50146Z" fill="#0052B4"/>
<path d="M9.39131 5.22271L0 0.0155029V1.48797L6.73561 5.22271H9.39131Z" fill="#F0F0F0"/>
<path d="M9.39131 5.22271L0 0.0155029V1.48797L6.73561 5.22271H9.39131Z" fill="#D80027"/>
<path d="M19.7653 5.2227L24 2.87463V5.2227H19.7653Z" fill="#0052B4"/>
<path d="M14.6086 4.56058V0.0155029H22.8051L14.6086 4.56058Z" fill="#0052B4"/>
<path d="M17.2643 5.22271L24 1.48797V0.0155029L14.6086 5.22271H17.2643Z" fill="#D80027"/>
</g>
<defs>
<clipPath id="clip0_7099_2485">
<rect width="24" height="16" fill="white"/>
</clipPath>
</defs>
</svg>
