<svg width="24" height="24" viewBox="0 0 24 24" fill="none" xmlns="http://www.w3.org/2000/svg">
<path d="M5.36655 3.14655L9.07798 6.85798H2.64941C2.78059 6.06998 3.09474 5.32373 3.56663 4.67916C4.03852 4.03458 4.655 3.50966 5.36655 3.14655ZM10.3551 2.57227H7.71512C7.55227 2.57227 7.38941 2.58084 7.22655 2.58941L11.4951 6.85798H14.6408L10.3551 2.57227ZM16.2866 2.57227H12.7894L17.0751 6.85798H21.3523C21.1515 5.65976 20.5323 4.57156 19.6047 3.78686C18.6772 3.00215 17.5015 2.57178 16.2866 2.57227ZM10.6997 16.8231L14.9854 14.466C15.1198 14.392 15.2319 14.2833 15.3099 14.1512C15.388 14.0191 15.4291 13.8685 15.4291 13.7151C15.4291 13.5617 15.388 13.4111 15.3099 13.279C15.2319 13.147 15.1198 13.0383 14.9854 12.9643L10.6997 10.6071C10.5692 10.5353 10.4222 10.4988 10.2733 10.5011C10.1244 10.5034 9.97862 10.5445 9.8504 10.6202C9.72218 10.696 9.61592 10.8039 9.54209 10.9333C9.46827 11.0627 9.42943 11.209 9.42941 11.358V16.0723C9.42943 16.2212 9.46827 16.3676 9.54209 16.4969C9.61592 16.6263 9.72218 16.7342 9.8504 16.81C9.97862 16.8858 10.1244 16.9269 10.2733 16.9292C10.4222 16.9315 10.5692 16.8949 10.6997 16.8231ZM21.4294 8.57227V16.2866C21.4283 17.6502 20.8861 18.9576 19.9218 19.9218C18.9576 20.8861 17.6502 21.4283 16.2866 21.4294H7.71512C6.3515 21.4283 5.04405 20.8861 4.07983 19.9218C3.1156 18.9576 2.5734 17.6502 2.57227 16.2866V8.57227H21.4294Z" fill="#B02626"/>
</svg>
